<?xml version="1.0" standalone="no"?>
<!DOCTYPE svg PUBLIC "-//W3C//DTD SVG 1.1//EN" "http://www.w3.org/Graphics/SVG/1.1/DTD/svg11.dtd" >
<svg xmlns="http://www.w3.org/2000/svg">
<metadata></metadata>
<defs>
<font id="newjuneproregularregular" horiz-adv-x="1208" >
<font-face units-per-em="2048" ascent="1597" descent="-451" />
<missing-glyph horiz-adv-x="530" />
<glyph unicode="IJ" horiz-adv-x="1230" d="M164 0v1524h158v-1524h-158zM502 27l22 143q146 -35 213 -35q100 0 142.5 56t42.5 178v1155h155v-1166q0 -178 -89.5 -272t-252.5 -94q-75 0 -233 35z" />
<glyph unicode="ij" horiz-adv-x="997" d="M143 1454q0 53 28 84t75 31t74.5 -31t27.5 -84t-27.5 -84t-74.5 -31t-75 31t-28 84zM170 0v1114h154v-1114h-154zM492 -240q100 3 142 58t42 172v1124h153v-1130q0 -172 -88 -263.5t-249 -91.5v131zM649 1454q0 53 28 84t75 31t74.5 -31t27.5 -84t-27.5 -84t-74.5 -31 t-75 31t-28 84z" />
<glyph unicode="&#x27;n" horiz-adv-x="1193" d="M131 1384l55 213h168l-69 -251q-16 -64 -86 -64q-39 0 -59.5 28.5t-8.5 73.5zM154 0v926q0 119 118 147q192 49 353 49q110 0 191.5 -30.5t129.5 -86t71 -126.5t23 -158v-721h-149v707q0 130 -65 203t-218 73q-123 0 -305 -45v-938h-149z" />
<glyph unicode="ff" horiz-adv-x="1445" d="M41 956v138h182v118q0 175 89.5 265t254.5 90q103 0 196 -21t232 -69q87 90 242 90q67 0 229 -33l-22 -139q-142 32 -209 32q-95 0 -135.5 -53t-40.5 -172v-108h354v-138h-354v-956h-150v956h-536v-956h-150v956h-182zM373 1094h536v118q0 86 21 150q-116 40 -197 57 t-166 17q-103 0 -148.5 -56.5t-45.5 -177.5v-108z" />
<glyph unicode="fi" horiz-adv-x="1226" d="M41 956v138h182v118q0 172 86 263.5t242 91.5q67 0 229 -33l-22 -139q-142 32 -209 32q-95 0 -134.5 -53t-41.5 -172v-108h688v-1094h-158v956h-530v-956h-150v956h-182zM879 1466q0 53 27.5 84t74.5 31t74.5 -31t27.5 -84t-27.5 -83.5t-74.5 -30.5t-74.5 30.5 t-27.5 83.5z" />
<glyph unicode="fl" horiz-adv-x="1210" d="M41 956v138h182v118q0 172 86 263.5t242 91.5q97 0 352 -37l154 45v-1575h-152v1393q-237 34 -356 34q-95 0 -135.5 -53t-40.5 -172v-108h354v-138h-354v-956h-150v956h-182z" />
<glyph unicode="ffi" horiz-adv-x="1912" d="M41 956v138h182v118q0 175 89.5 265t254.5 90q103 0 196 -21t232 -69q87 90 242 90q67 0 229 -33l-22 -139q-142 32 -209 32q-95 0 -134.5 -53t-41.5 -172v-108h688v-1094h-158v956h-530v-956h-150v956h-536v-956h-150v956h-182zM373 1094h536v118q0 86 21 150 q-209 74 -346 74q-110 0 -160.5 -51.5t-50.5 -182.5v-108zM1565 1466q0 53 27.5 84t74.5 31t74.5 -31t27.5 -84t-27.5 -83.5t-74.5 -30.5t-74.5 30.5t-27.5 83.5z" />
<glyph unicode="&#xd;" horiz-adv-x="530" />
<glyph unicode=" "  horiz-adv-x="530" />
<glyph unicode="&#x09;" horiz-adv-x="530" />
<glyph unicode="&#xa0;" horiz-adv-x="530" />
<glyph unicode="!" horiz-adv-x="425" d="M115 96q0 54 27.5 84.5t74.5 30.5t74.5 -30.5t27.5 -84.5t-27 -84t-75 -30t-75 30t-27 84zM139 461v1063h156v-1035z" />
<glyph unicode="&#x22;" horiz-adv-x="759" d="M123 1563h166l-17 -410h-135zM471 1563h166l-14 -410h-136z" />
<glyph unicode="#" d="M35 430l22 137h217l72 371h-229l22 135h234l86 451h145l-86 -451h293l86 451h143l-86 -451h220l-23 -135h-219l-70 -371h230l-23 -137h-233l-80 -430h-146l82 430h-299l-84 -430h-147l84 430h-211zM420 567h299l69 371h-296z" />
<glyph unicode="$" d="M102 106l35 146l99 -35q261 -92 423 -92q59 0 112.5 15.5t98.5 47t72 85.5t27 124q0 103 -54.5 164t-175.5 90l-280 68q-348 83 -348 393q0 101 37 182.5t98.5 131t137 76t157.5 28.5v246h147v-252q121 -13 330 -84l96 -33l-35 -145l-98 34q-86 30 -140.5 47t-130.5 31.5 t-143 14.5q-61 0 -114.5 -15.5t-97.5 -46.5t-69.5 -85t-25.5 -124q0 -102 53 -162.5t174 -89.5l279 -67q352 -84 352 -396q0 -100 -36.5 -179.5t-98 -129t-136.5 -77t-159 -31.5v-250h-147v254q-130 13 -342 84z" />
<glyph unicode="%" d="M68 1057v237q0 114 60 178t173 64q112 0 169.5 -64t57.5 -180v-231q0 -119 -57 -182.5t-170 -63.5t-173 64t-60 178zM143 0l783 1524h137l-780 -1524h-140zM188 1061q0 -139 111 -139t111 139v229q0 140 -111 140t-111 -140v-229zM680 231v238q0 114 60 178t173 64 q112 0 170 -64t58 -180v-231q0 -118 -57.5 -182t-170.5 -64t-173 63.5t-60 177.5zM801 236q0 -140 110 -140q111 0 111 140v229q0 139 -111 139q-110 0 -110 -139v-229z" />
<glyph unicode="&#x26;" horiz-adv-x="1435" d="M102 375q0 86 24.5 155t72 119t98 83.5t121.5 66.5q-50 55 -77.5 89t-57 81.5t-42 97.5t-12.5 109q0 91 33.5 163t92 117t133.5 68.5t161 23.5q177 0 287.5 -91.5t110.5 -260.5q0 -54 -12.5 -101.5t-31 -83.5t-51.5 -69.5t-62 -56t-75.5 -48t-80 -40.5t-85.5 -37 l389 -432q113 157 113 399v182h147v-190q0 -295 -163 -500l198 -219h-192l-109 121q-189 -146 -454 -146q-115 0 -207 32t-150 87.5t-88.5 127t-30.5 153.5zM260 379q0 -51 18 -97.5t54.5 -85.5t100 -62t145.5 -23q218 0 360 112l-428 475q-58 -28 -99 -55.5t-77.5 -65.5 t-55 -87.5t-18.5 -110.5zM377 1176q0 -80 40.5 -147t141.5 -171q68 28 106.5 45.5t90.5 49.5t79.5 62.5t47.5 77t20 101.5q0 100 -64 162.5t-190 62.5q-134 0 -203 -67t-69 -176z" />
<glyph unicode="'" horiz-adv-x="421" d="M123 1563h176l-16 -410h-144z" />
<glyph unicode="(" horiz-adv-x="567" d="M74 698q0 149 14.5 270.5t39 206t60.5 148.5t74.5 101.5t86 60.5t90 31t91.5 8v-133q-27 -2 -50.5 -8t-55.5 -24.5t-57.5 -47.5t-52 -81.5t-44.5 -122.5t-29.5 -175t-11.5 -234q0 -135 11.5 -244t29.5 -181.5t44.5 -127t52 -84t58 -48t55 -24t50.5 -7.5v-134 q-44 0 -85 8.5t-87.5 33.5t-86 64t-77 105.5t-63.5 153t-41.5 210.5t-15.5 275z" />
<glyph unicode=")" horiz-adv-x="567" d="M45 -18q28 2 50.5 7.5t55 24t58 48t52 84t44.5 127t29.5 181.5t11.5 244q0 129 -11.5 234t-29.5 175t-44.5 122.5t-52 81.5t-57.5 47.5t-55.5 24.5t-50.5 8v133q70 0 128.5 -16.5t122 -69t106.5 -140t71.5 -241t28.5 -359.5q0 -151 -15.5 -275t-41.5 -210.5t-63.5 -153 t-77.5 -105.5t-86.5 -64t-87.5 -33.5t-85 -8.5v134z" />
<glyph unicode="*" d="M145 1174l50 153l356 -145l-31 381h168l-31 -381l357 143l49 -154l-371 -88l248 -295l-137 -96l-199 334l-198 -332l-138 97l250 294z" />
<glyph unicode="+" d="M119 530v146h405v430h150v-430h413v-146h-413v-434h-150v434h-405z" />
<glyph unicode="," horiz-adv-x="425" d="M76 -154l96 367h170l-113 -406q-18 -63 -79 -63q-45 0 -65 29.5t-9 72.5z" />
<glyph unicode="-" horiz-adv-x="845" d="M123 559v150h600v-150h-600z" />
<glyph unicode="." horiz-adv-x="425" d="M113 96q0 54 27.5 84.5t74.5 30.5t74.5 -30.5t27.5 -84.5t-27 -84t-75 -30t-75 30t-27 84z" />
<glyph unicode="/" horiz-adv-x="839" d="M23 0l641 1524h153l-637 -1524h-157z" />
<glyph unicode="0" d="M137 483v551q0 237 124 371.5t353 134.5t346 -134t117 -378v-539q0 -244 -117 -378t-346 -134t-353 134.5t-124 371.5zM287 492q0 -377 321 -377q322 0 322 377v534q0 377 -322 377q-321 0 -321 -377v-534z" />
<glyph unicode="1" d="M139 0v141h455v1239h-98q-158 0 -232 -37l-39 138q38 21 114.5 32t147.5 11h121q73 0 111.5 -36.5t38.5 -103.5v-1243h368v-141h-987z" />
<glyph unicode="2" d="M125 100q0 56 45 101l528 501q125 117 179.5 210t54.5 206q0 74 -24 128t-68 85t-97.5 45.5t-119.5 14.5q-137 0 -371 -70l-90 -27l-31 142l88 26q249 76 408 76q92 0 171.5 -23t144.5 -71.5t102.5 -133t37.5 -196.5q0 -125 -61 -247t-209 -259l-510 -473h784v-135h-866 q-45 0 -70.5 27.5t-25.5 72.5z" />
<glyph unicode="3" d="M102 86l33 141l94 -26q275 -76 402 -76q162 0 247 68t85 188q0 113 -89 205l-108 112h-291v136h293l84 116q68 93 68 209q0 109 -71 171.5t-224 62.5q-114 0 -369 -70l-90 -25l-31 142l88 24q265 74 404 74q217 0 330.5 -99t113.5 -278q0 -146 -84 -260l-94 -127 l115 -121q106 -115 106 -264q0 -184 -131 -294.5t-348 -110.5q-163 0 -440 77z" />
<glyph unicode="4" d="M74 385q0 35 35 88l651 993q46 70 123 70q106 0 106 -109v-1005h182v-135h-182v-287h-149v287h-670q-48 0 -72 26.5t-24 71.5zM252 422h588v901z" />
<glyph unicode="5" d="M123 80l31 141l90 -24q90 -25 134.5 -36t109.5 -22.5t114 -11.5q177 0 268 97t91 261q0 346 -363 346q-123 0 -264 -40l-144 -41v774h852v-148h-710v-450q168 47 286 47q232 0 362 -121.5t130 -366.5q0 -227 -136.5 -364t-369.5 -137q-85 0 -173 17t-220 54z" />
<glyph unicode="6" d="M129 498v553q0 215 124.5 350t342.5 135q143 0 399 -70l88 -24l-30 -142l-90 25q-255 68 -363 68q-161 0 -240 -90t-79 -252v-142q200 64 331 64q247 0 373.5 -126.5t126.5 -361.5q0 -221 -126 -359t-359 -138q-231 0 -364.5 140t-133.5 370zM281 506q0 -177 91.5 -279 t258.5 -102q159 0 243 96.5t84 263.5q0 344 -360 344q-104 0 -317 -55v-268z" />
<glyph unicode="7" d="M135 1384v140h881q51 0 78.5 -25t27.5 -69q0 -36 -22 -91l-557 -1339h-166l581 1384h-823z" />
<glyph unicode="8" d="M92 379q0 154 107 270l110 121l-90 127q-84 117 -84 258q0 178 125 281.5t342 103.5q223 0 348 -103.5t125 -281.5q0 -141 -84 -258l-90 -127l111 -121q106 -115 106 -270q0 -185 -136 -293.5t-372 -108.5q-237 0 -377.5 109t-140.5 293zM244 377q0 -119 94 -188.5 t268 -69.5q177 0 269 69t92 189q0 108 -88 205l-105 112h-338l-104 -112q-88 -97 -88 -205zM287 1155q0 -113 67 -209l80 -117h342l80 117q68 98 68 209q0 108 -80 175t-240 67q-159 0 -238 -67t-79 -175z" />
<glyph unicode="9" d="M102 1036q0 221 126.5 360.5t359.5 139.5q230 0 363.5 -140t133.5 -370v-553q0 -215 -124.5 -350t-342.5 -135q-147 0 -399 69l-88 25l31 141l90 -24q255 -68 362 -68q161 0 240.5 90t79.5 252v141q-197 -63 -332 -63q-248 0 -374 125t-126 360zM256 1036 q0 -342 360 -342q101 0 318 56v268q0 177 -91.5 279t-258.5 102q-159 0 -243.5 -98t-84.5 -265z" />
<glyph unicode=":" horiz-adv-x="425" d="M113 96q0 54 27.5 84.5t74.5 30.5t74.5 -30.5t27.5 -84.5t-27 -84t-75 -30t-75 30t-27 84zM113 985q0 54 27.5 84.5t74.5 30.5t74.5 -30.5t27.5 -84.5t-27.5 -84.5t-74.5 -30.5t-74.5 30.5t-27.5 84.5z" />
<glyph unicode=";" horiz-adv-x="425" d="M76 -154l96 367h170l-113 -406q-18 -63 -79 -63q-45 0 -65 29.5t-9 72.5zM145 985q0 54 27.5 84.5t75.5 30.5q47 0 74.5 -30.5t27.5 -84.5t-27.5 -84.5t-74.5 -30.5q-48 0 -75.5 30.5t-27.5 84.5z" />
<glyph unicode="&#x3c;" d="M102 604q0 75 74 105l934 374v-170l-834 -313l834 -311v-164l-934 373q-74 27 -74 106z" />
<glyph unicode="=" d="M119 367v149h968v-149h-968zM119 707v149h968v-149h-968z" />
<glyph unicode="&#x3e;" d="M100 125v164l834 311l-834 313v170l934 -374q74 -30 74 -105q0 -79 -74 -106z" />
<glyph unicode="?" horiz-adv-x="935" d="M66 1450l86 27q167 53 329 53q176 0 282.5 -89.5t106.5 -246.5q0 -109 -38 -184t-117 -158l-189 -197v-168l-145 -26v127q0 70 12 104t56 82l147 156q73 80 100 130.5t27 131.5q0 92 -61.5 144.5t-182.5 52.5q-127 0 -297 -48l-88 -24zM352 96q0 54 27.5 84.5t75.5 30.5 q47 0 74.5 -30.5t27.5 -84.5t-27 -84t-75 -30t-75.5 30t-27.5 84z" />
<glyph unicode="@" horiz-adv-x="1910" d="M180 721q0 178 61 331t168.5 260.5t259 168.5t326.5 61q211 0 381 -90.5t266.5 -253t96.5 -367.5q0 -113 -33.5 -212t-89.5 -165.5t-128 -104.5t-149 -38q-50 0 -112.5 28t-87.5 28q-40 0 -123.5 -16.5t-136.5 -16.5q-158 0 -242 97t-84 247q0 122 47.5 221.5t145.5 162 t231 62.5q75 0 211 -16l8 72h129l-94 -709q58 -45 119 -45q96 0 176 112.5t80 295.5q0 172 -82.5 304.5t-221 202.5t-307.5 70q-151 0 -278 -51.5t-214.5 -143t-136.5 -219t-49 -276.5q0 -178 69 -318.5t203.5 -222.5t313.5 -82q103 0 250.5 40t216.5 40q68 0 127 -33 l96 -57l-51 -100l-94 45q-40 18 -86 18q-49 0 -123.5 -18.5t-166 -37t-181.5 -18.5q-163 0 -298.5 58.5t-225 159t-138.5 236t-49 290.5zM686 674q0 -101 52 -164.5t157 -63.5q50 0 209 29l70 522q-115 15 -197 15q-75 0 -132.5 -27.5t-91 -75.5t-50.5 -107.5t-17 -127.5z " />
<glyph unicode="A" horiz-adv-x="1402" d="M31 0l553 1452q30 86 123 86q91 0 122 -84l543 -1454h-168l-131 344h-747l-131 -344h-164zM371 477h657l-323 897z" />
<glyph unicode="B" horiz-adv-x="1388" d="M164 139v1250q0 63 38 99t107 36h504q189 0 296.5 -93t107.5 -272q0 -128 -84 -258l-93 -127l121 -125q115 -118 115 -268q0 -176 -120.5 -278.5t-330.5 -102.5h-512q-69 0 -109 38t-40 101zM319 133h517q139 0 212.5 64.5t73.5 175.5q0 112 -94 209l-115 118h-594v-567z M319 831h592l84 119q68 106 68 209q0 234 -252 234h-492v-562z" />
<glyph unicode="C" horiz-adv-x="1368" d="M113 758q0 155 34 283t94.5 218t145.5 152t186.5 91.5t217.5 29.5q87 0 177.5 -19t221.5 -59l106 -33l-30 -141l-113 35q-242 74 -360 74q-247 0 -384 -156t-137 -475t138 -475t385 -156q116 0 358 74l113 35l30 -142l-106 -33q-252 -77 -399 -77q-150 0 -271.5 45.5 t-213.5 137t-142.5 242t-50.5 349.5z" />
<glyph unicode="D" horiz-adv-x="1495" d="M164 139v1245q0 63 40 101.5t109 38.5h392q309 0 493 -204.5t184 -561.5q0 -178 -50 -321.5t-140.5 -239t-216.5 -146.5t-277 -51h-385q-69 0 -109 38t-40 101zM322 139h370q254 0 393.5 162t139.5 457q0 290 -145 460.5t-402 170.5h-356v-1250z" />
<glyph unicode="E" horiz-adv-x="1261" d="M164 139v1245q0 63 40 101.5t109 38.5h830v-140h-821v-536h722v-137h-722v-572h827v-139h-836q-69 0 -109 38t-40 101z" />
<glyph unicode="F" horiz-adv-x="1183" d="M164 0v1384q0 63 40 101.5t109 38.5h809v-140h-800v-565h733v-135h-733v-684h-158z" />
<glyph unicode="G" horiz-adv-x="1482" d="M113 756q0 193 54 343t150 243t223.5 140.5t280.5 47.5q91 0 185.5 -19t232.5 -59l111 -33l-33 -143l-117 35q-253 73 -381 73q-259 0 -402 -154.5t-143 -473.5q0 -160 41 -282t116.5 -198.5t177 -114.5t227.5 -38q154 0 362 41v424h-379v135h383q69 0 108.5 -38 t39.5 -101v-398q0 -63 -29.5 -96t-95.5 -51q-205 -55 -389 -55q-157 0 -286 45.5t-228 137t-154 241.5t-55 348z" />
<glyph unicode="H" horiz-adv-x="1464" d="M164 0v1524h155v-682h826v682h155v-1524h-155v707h-826v-707h-155z" />
<glyph unicode="I" horiz-adv-x="485" d="M164 0v1524h158v-1524h-158z" />
<glyph unicode="J" horiz-adv-x="759" d="M31 27l22 143q146 -35 213 -35q100 0 142.5 56t42.5 178v1155h155v-1166q0 -178 -89.5 -272t-252.5 -94q-75 0 -233 35z" />
<glyph unicode="K" horiz-adv-x="1339" d="M164 0v1524h153v-901l746 901h203l-457 -531l479 -993h-168l-428 872l-221 -258q-45 -53 -62.5 -74.5t-44.5 -64.5t-37 -84t-10 -92v-299h-153z" />
<glyph unicode="L" horiz-adv-x="1179" d="M164 139v1385h160v-1383h763v-141h-774q-69 0 -109 38t-40 101z" />
<glyph unicode="M" horiz-adv-x="1773" d="M164 0v1419q0 60 34 87.5t89 27.5q109 0 145 -98l455 -1280l475 1282q38 96 133 96q50 0 82.5 -28t32.5 -87v-1419h-144v1327l-473 -1264q-26 -71 -110 -71q-89 0 -113 71l-465 1266v-1329h-141z" />
<glyph unicode="N" horiz-adv-x="1509" d="M164 0v1427q0 55 28.5 83t77.5 28q73 0 117 -65l813 -1258v1309h146v-1424q0 -55 -29 -82.5t-78 -27.5q-73 0 -117 65l-813 1258v-1313h-145z" />
<glyph unicode="O" horiz-adv-x="1624" d="M113 758q0 182 51.5 328.5t144.5 244t222.5 149.5t285.5 52q316 0 505 -204t189 -570q0 -185 -51.5 -332t-144.5 -243.5t-222.5 -147.5t-285.5 -51q-316 0 -505 204t-189 570zM270 758q0 -305 146.5 -473t400.5 -168q253 0 394 166.5t141 474.5q0 303 -146 470t-399 167 t-395 -166.5t-142 -470.5z" />
<glyph unicode="P" horiz-adv-x="1288" d="M164 0v1384q0 63 40 101.5t109 38.5h441q195 0 318.5 -124.5t123.5 -336.5q0 -214 -128 -337.5t-337 -123.5h-416v-602h-151zM315 735h416q150 0 236 87t86 243q0 151 -84.5 239.5t-223.5 88.5h-430v-658z" />
<glyph unicode="Q" horiz-adv-x="1622" d="M113 758q0 182 51.5 328.5t144.5 244t222.5 149.5t285.5 52q316 0 504 -204t188 -570q0 -254 -104 -428.5t-295 -253.5q17 -9 46 -21.5t109 -33.5t148 -21h68v-131h-68q-92 0 -175 20.5t-135.5 45t-126.5 45t-151 20.5q-160 0 -290.5 49t-224.5 143.5t-145.5 238.5 t-51.5 327zM270 758q0 -304 146 -464.5t401 -160.5q254 0 394.5 159.5t140.5 465.5q0 303 -146 470t-399 167t-395 -166.5t-142 -470.5z" />
<glyph unicode="R" horiz-adv-x="1349" d="M164 0v1389q0 63 38 99t107 36h490q198 0 308 -105t110 -303q0 -145 -115 -295l-121 -155l317 -666h-170l-290 621h-519v-621h-155zM319 752h560l86 118q100 141 100 244q0 279 -268 279h-478v-641z" />
<glyph unicode="S" horiz-adv-x="1306" d="M123 106l37 146l104 -35q272 -92 453 -92q62 0 117 15.5t101.5 47t73.5 85.5t27 124q0 103 -57 164t-184 90l-295 68q-178 39 -273.5 137.5t-95.5 257.5q0 105 39.5 187.5t107 132t150 75t174.5 25.5q124 0 231 -22.5t254 -69.5l103 -33l-37 -145l-104 34 q-133 45 -236.5 69t-206.5 24q-87 0 -156 -26t-115 -89t-46 -156q0 -102 56 -162.5t183 -89.5l295 -67q371 -81 371 -398q0 -85 -26 -155t-71 -118.5t-106 -81.5t-128.5 -48.5t-141.5 -15.5q-126 0 -239.5 22t-256.5 68z" />
<glyph unicode="T" horiz-adv-x="1257" d="M61 1384v140h1135v-140h-487v-1384h-160v1384h-488z" />
<glyph unicode="U" horiz-adv-x="1478" d="M154 541v983h155v-983q0 -207 108 -317.5t322 -110.5q430 0 430 428v983h156v-983q0 -267 -153 -418.5t-433 -151.5t-432.5 151.5t-152.5 418.5z" />
<glyph unicode="V" horiz-adv-x="1366" d="M31 1524h170l485 -1352l485 1352h164l-542 -1456q-27 -80 -115 -80q-86 0 -113 80z" />
<glyph unicode="W" horiz-adv-x="1865" d="M51 1524h150l245 -1342l379 1264q21 78 111 78t111 -78l370 -1266l250 1344h148l-273 -1446q-9 -45 -40 -69.5t-79 -24.5q-96 0 -120 86l-371 1292l-381 -1292q-12 -41 -43 -62.5t-76 -21.5q-47 0 -76 24.5t-37 69.5z" />
<glyph unicode="X" horiz-adv-x="1429" d="M92 0l524 768l-518 756h189l436 -641l430 641h178l-510 -752l516 -772h-186l-434 659l-443 -659h-182z" />
<glyph unicode="Y" horiz-adv-x="1327" d="M20 1524h181l473 -723l456 723h177l-557 -862v-662h-160v657z" />
<glyph unicode="Z" horiz-adv-x="1323" d="M113 104q0 40 30 84l885 1201h-893v135h963q51 0 76.5 -28.5t25.5 -76.5q0 -39 -31 -84l-880 -1200h921v-135h-995q-51 0 -76.5 28t-25.5 76z" />
<glyph unicode="[" horiz-adv-x="567" d="M145 -133v1657h383v-133h-229v-1391h229v-133h-383z" />
<glyph unicode="\" horiz-adv-x="839" d="M23 1524h153l641 -1524h-158z" />
<glyph unicode="]" horiz-adv-x="567" d="M45 0h229v1391h-229v133h383v-1657h-383v133z" />
<glyph unicode="^" d="M125 88l381 954q27 70 96 70q70 0 98 -70l383 -954h-170l-313 825l-309 -825h-166z" />
<glyph unicode="_" horiz-adv-x="1024" d="M-4 -199h1032v-137h-1032v137z" />
<glyph unicode="`" horiz-adv-x="1085" d="M377 1563h223l166 -160q27 -27 27 -57q0 -26 -19 -47t-51 -21q-29 0 -59 27z" />
<glyph unicode="a" horiz-adv-x="1224" d="M102 291q0 90 35.5 157t98.5 104.5t139 55t168 17.5h338v127q0 233 -263 233q-125 0 -354 -63l-88 -25l-29 137l86 25q237 67 388 67q87 0 158.5 -21t128 -65t87.5 -117t31 -171v-576l137 -82l-59 -114l-100 59q-47 23 -94 23l-52 -7l-80 -20q-181 -49 -309 -49 q-173 0 -270 81t-97 224zM254 299q0 -180 235 -180q107 0 269 39l123 28v310h-340q-141 0 -214 -47t-73 -150z" />
<glyph unicode="b" horiz-adv-x="1222" d="M154 188v1358l147 31v-518q195 63 328 63q244 0 367.5 -146t123.5 -423q0 -257 -136.5 -409t-373.5 -152q-135 0 -336 49q-120 28 -120 147zM301 176q198 -45 303 -45q96 0 167 31t114 89t63.5 133.5t20.5 170.5q0 426 -359 426q-112 -4 -309 -55v-750z" />
<glyph unicode="c" horiz-adv-x="1077" d="M102 557q0 274 136 421.5t364 147.5q100 0 313 -57l91 -25l-29 -139l-92 25q-201 53 -277 53q-348 0 -348 -426t350 -426q74 0 275 53l92 25l29 -139l-91 -25q-213 -57 -313 -57q-233 0 -366.5 141t-133.5 428z" />
<glyph unicode="d" horiz-adv-x="1222" d="M102 553q0 271 130.5 420t371.5 149q108 0 318 -63v487l147 31v-1389q0 -119 -121 -147q-210 -49 -344 -49q-239 0 -370.5 147t-131.5 414zM254 555q0 -95 20.5 -170.5t63 -133.5t113.5 -89t167 -31q113 0 304 45v750q-204 52 -310 55q-358 0 -358 -426z" />
<glyph unicode="e" horiz-adv-x="1198" d="M102 555q0 117 27 213.5t73.5 162.5t110.5 111.5t137.5 66.5t155.5 21q230 0 365 -138.5t135 -407.5q0 -43 -22 -67.5t-64 -24.5h-762q5 -120 57.5 -203t136 -120.5t191.5 -37.5q118 0 305 57l113 35l31 -135l-109 -35q-202 -65 -346 -65q-245 0 -390 145t-145 422z M258 625h692q0 165 -86.5 270.5t-259.5 105.5q-153 0 -245 -101t-101 -275z" />
<glyph unicode="f" horiz-adv-x="759" d="M41 956v138h182v118q0 172 86 263.5t242 91.5q67 0 229 -33l-22 -139q-142 32 -209 32q-95 0 -135.5 -53t-40.5 -172v-108h354v-138h-354v-956h-150v956h-182z" />
<glyph unicode="g" horiz-adv-x="1224" d="M102 762q0 171 124.5 260.5t340.5 89.5h119q149 0 215 18l238 66l35 -129l-242 -70q4 -3 11.5 -8.5t26 -26.5t33 -45.5t26 -65.5t11.5 -87q0 -172 -122.5 -260t-344.5 -88q-38 0 -70.5 3t-45.5 6l-13 3q27 -30 27 -80q0 -60 -51 -123h389q168 0 257 -70t89 -188 q0 -338 -573 -338q-74 0 -140 9t-127 31t-104.5 54.5t-69.5 83t-26 113.5q0 115 80 213l106 129q39 47 39 96q0 37 -17.5 63.5t-60.5 55.5q-33 22 -56.5 43.5t-49.5 55.5t-40 81t-14 105zM248 762q0 -234 323 -234q148 0 236 56.5t88 177.5q0 227 -324 227q-323 0 -323 -227 zM258 -74q0 -90 93 -132t247 -42q414 0 414 211q0 61 -50 97t-157 36h-477q-70 -75 -70 -170z" />
<glyph unicode="h" horiz-adv-x="1167" d="M154 0v1546l147 31v-520q211 65 328 65q109 0 189 -31t125 -88t66 -126.5t21 -155.5v-721h-147v715q0 124 -62.5 194t-210.5 70q-106 0 -309 -53v-926h-147z" />
<glyph unicode="i" horiz-adv-x="491" d="M143 1454q0 53 28 84t75 31t74.5 -31t27.5 -84t-27.5 -84t-74.5 -31t-75 31t-28 84zM170 0v1114h154v-1114h-154z" />
<glyph unicode="j" horiz-adv-x="505" d="M0 -240q100 3 142 58t42 172v1124h154v-1130q0 -172 -88.5 -263.5t-249.5 -91.5v131zM158 1454q0 53 27.5 84t74.5 31t74.5 -31t27.5 -84t-27.5 -84t-74.5 -31t-74.5 31t-27.5 84z" />
<glyph unicode="k" horiz-adv-x="1128" d="M154 0v1546l147 31v-1079l567 616h197l-371 -389l393 -725h-176l-333 616l-132 -129q-75 -71 -110 -133t-35 -161v-193h-147z" />
<glyph unicode="l" horiz-adv-x="460" d="M154 0v1544l153 33v-1577h-153z" />
<glyph unicode="m" horiz-adv-x="1771" d="M154 0v926q0 59 29 93t89 54q149 49 310 49q184 0 278 -94q212 94 383 94q190 0 282.5 -102t92.5 -279v-741h-150v727q0 123 -55.5 188.5t-185.5 65.5q-75 0 -136.5 -15t-158.5 -51q33 -76 33 -174v-741h-150v727q0 123 -57 189.5t-187 66.5q-121 0 -268 -45v-938h-149z " />
<glyph unicode="n" horiz-adv-x="1193" d="M154 0v926q0 119 118 147q192 49 353 49q110 0 191.5 -30.5t129.5 -86t71 -126.5t23 -158v-721h-149v707q0 130 -65 203t-218 73q-123 0 -305 -45v-938h-149z" />
<glyph unicode="o" horiz-adv-x="1249" d="M102 557q0 270 142.5 419.5t384.5 149.5q241 0 379.5 -149t138.5 -420q0 -270 -142 -419.5t-384 -149.5q-240 0 -379.5 150.5t-139.5 418.5zM258 557q0 -210 97 -324t274 -114t270.5 113.5t93.5 324.5q0 207 -97.5 322.5t-274.5 115.5q-176 0 -269.5 -114.5t-93.5 -323.5 z" />
<glyph unicode="p" horiz-adv-x="1222" d="M154 -381v1307q0 119 120 147q210 49 344 49q239 0 370.5 -147t131.5 -414q0 -271 -130.5 -420t-371.5 -149q-107 0 -317 63v-405zM301 188q204 -52 309 -55q359 0 359 426q0 95 -20.5 170.5t-63.5 133.5t-114 89t-167 31q-112 0 -303 -45v-750z" />
<glyph unicode="q" horiz-adv-x="1222" d="M102 561q0 257 136.5 409t373.5 152q135 0 336 -49q121 -28 121 -147v-1276l-147 -31v436q-195 -63 -328 -63q-244 0 -368 146.5t-124 422.5zM254 559q0 -426 358 -426q113 4 310 55v750q-198 45 -304 45q-96 0 -167 -31t-113.5 -89t-63 -133.5t-20.5 -170.5z" />
<glyph unicode="r" horiz-adv-x="729" d="M154 0v926q0 116 118 147q111 31 199.5 40t237.5 9v-145q-242 0 -404 -43v-934h-151z" />
<glyph unicode="s" horiz-adv-x="1122" d="M123 78l29 137l88 -25q221 -63 370 -63q102 0 168 44t66 132q0 66 -46 106.5t-149 57.5l-221 39q-142 25 -220.5 101.5t-78.5 193.5q0 107 56 182.5t140.5 109t188.5 33.5q105 0 193 -16t208 -51l84 -25l-28 -139l-88 25q-228 65 -371 65q-102 0 -167.5 -43.5 t-65.5 -132.5q0 -66 45.5 -107t148.5 -59l221 -39q143 -25 221 -100.5t78 -192.5q0 -107 -56 -182.5t-140.5 -109t-188.5 -33.5q-105 0 -193 16t-208 51z" />
<glyph unicode="t" horiz-adv-x="835" d="M41 956v138h178v280l150 31v-311h379v-138h-379v-604q0 -119 40.5 -172t135.5 -53q67 0 207 33l22 -140q-157 -32 -235 -32q-320 0 -320 352v616h-178z" />
<glyph unicode="u" horiz-adv-x="1193" d="M154 393v721h149v-706q0 -131 65 -204t218 -73q123 0 305 45v938h149v-926q0 -119 -118 -147q-192 -49 -353 -49q-110 0 -191.5 30.5t-129.5 86t-71 126.5t-23 158z" />
<glyph unicode="v" horiz-adv-x="1105" d="M51 1114h168l330 -971l342 971h164l-391 -1055q-30 -79 -121 -79q-92 0 -119 79z" />
<glyph unicode="w" horiz-adv-x="1617" d="M72 1114h157l179 -958l305 899q21 67 94 67q74 0 96 -67l303 -903l187 962h153l-227 -1042q-9 -44 -39.5 -68t-75.5 -24q-87 0 -114 83l-283 869l-297 -871q-26 -79 -115 -79q-46 0 -76.5 23t-39.5 67z" />
<glyph unicode="x" horiz-adv-x="1122" d="M63 0l408 559l-399 555h184l315 -444l299 444h181l-387 -543l405 -571h-184l-322 459l-321 -459h-179z" />
<glyph unicode="y" horiz-adv-x="1085" d="M49 1114h172l359 -979l305 979h168l-426 -1266q-38 -113 -112.5 -167t-192.5 -54q-83 0 -222 37l23 139q145 -36 201 -36q72 0 108 33t51 94l15 55z" />
<glyph unicode="z" horiz-adv-x="1093" d="M102 98q0 44 35 88l686 799h-694v129h774q48 0 72 -26.5t24 -71.5t-34 -88l-686 -799h722v-129h-802q-48 0 -72.5 26.5t-24.5 71.5z" />
<glyph unicode="{" horiz-adv-x="555" d="M123 643v100q133 0 133 105q0 36 -26.5 104t-53 150t-26.5 153q0 126 77.5 197.5t202.5 71.5h86v-138h-86q-63 0 -99 -34.5t-36 -104.5q0 -75 48 -209.5t48 -189.5q0 -104 -78 -154q38 -24 58 -65.5t20 -89.5q0 -55 -48 -190t-48 -210q0 -70 36 -104.5t99 -34.5h86v-137 h-86q-125 0 -202.5 71t-77.5 197q0 71 26.5 153.5t53 150.5t26.5 104q0 104 -133 104z" />
<glyph unicode="|" horiz-adv-x="444" d="M154 -369v1932h139v-1932h-139z" />
<glyph unicode="}" horiz-adv-x="555" d="M51 0h86q63 0 99 34.5t36 104.5q0 75 -48 210t-48 190q0 48 20 89.5t58 65.5q-78 50 -78 154q0 55 48 189.5t48 209.5q0 70 -36 104.5t-99 34.5h-86v138h86q125 0 203 -71.5t78 -197.5q0 -71 -27 -153t-53.5 -150t-26.5 -104q0 -105 133 -105v-100q-133 0 -133 -104 q0 -36 26.5 -104t53.5 -150.5t27 -153.5q0 -126 -78 -197t-203 -71h-86v137z" />
<glyph unicode="~" d="M92 557q50 127 129.5 186.5t171.5 59.5q99 0 187 -64l125 -92q52 -41 104 -41q53 0 96.5 37t83.5 135l117 -76q-50 -127 -128.5 -186t-170.5 -59q-100 0 -186 63l-125 92q-52 41 -105 41t-97.5 -37t-84.5 -135z" />
<glyph unicode="&#xa1;" horiz-adv-x="425" d="M115 1047q0 54 27 84t75 30t75 -30t27 -84t-27.5 -84.5t-74.5 -30.5t-74.5 30.5t-27.5 84.5zM139 -381v1034l156 29v-1063h-156z" />
<glyph unicode="&#xa2;" d="M133 557q0 245 110.5 388.5t301.5 172.5v260h147v-260q91 -8 254 -51l90 -25l-28 -139l-93 25q-201 53 -276 53q-348 0 -348 -424t350 -424q73 0 274 53l93 25l28 -139l-90 -25q-163 -43 -254 -51v-266h-147v266q-194 24 -303 163.5t-109 397.5z" />
<glyph unicode="&#xa3;" d="M59 68q0 31 16.5 50t47.5 19q54 0 97.5 9t73 23.5t52 37t35.5 45.5t20.5 52.5t10 55t2.5 56.5q0 68 -31 147h-262v131h203q-59 100 -80 137t-48 98t-34.5 107.5t-7.5 108.5q0 180 124.5 286.5t321.5 106.5q159 0 401 -74l89 -26l-31 -142l-90 27q-234 70 -365 70 q-151 0 -224 -67.5t-73 -180.5q0 -28 2.5 -51.5t4.5 -41.5t12 -44.5t15 -41t25 -52t29.5 -56t41 -75t48.5 -87.5h406v-131h-348q24 -71 24 -149q0 -167 -100 -275h338q108 0 158 38.5t53 133.5h125q0 -149 -85.5 -231t-244.5 -82h-688q-31 0 -47.5 18.5t-16.5 49.5z" />
<glyph unicode="&#xa4;" horiz-adv-x="1024" d="M41 178l102 111q-96 110 -96 284q0 180 98 283l-104 111l86 86l104 -103q111 97 279 97q170 0 278 -97l107 103l86 -86l-104 -111q96 -110 96 -283q0 -177 -96 -284l104 -111l-86 -84l-107 103q-111 -97 -278 -97q-171 0 -279 97l-104 -103zM182 573q0 -138 95 -237.5 t233 -99.5t233 99.5t95 237.5q0 137 -96 237.5t-232 100.5q-138 0 -233 -100t-95 -238z" />
<glyph unicode="&#xa5;" d="M55 1524h187l370 -652l365 652h180l-399 -676h350v-129h-418v-148h418v-131h-418v-440h-162v440h-424v131h424v148h-424v129h355z" />
<glyph unicode="&#xa6;" horiz-adv-x="444" d="M154 -369v770h139v-770h-139zM154 795v768h139v-768h-139z" />
<glyph unicode="&#xa7;" d="M119 664v387q0 215 127 350t352 135q143 0 399 -70l88 -24l-30 -142l-90 25q-255 68 -363 68q-167 0 -249.5 -90t-82.5 -252v-142q200 64 332 64q490 0 490 -477v-392q0 -215 -128 -350t-352 -135q-143 0 -399 70l-88 24l31 142l90 -25q255 -68 362 -68q167 0 249.5 90 t82.5 252v142q-200 -64 -332 -64q-247 0 -368 123t-121 359zM270 664q0 -162 80.5 -250t272.5 -88q104 0 317 55v115q0 162 -80 247.5t-272 85.5q-105 0 -318 -55v-110z" />
<glyph unicode="&#xa8;" horiz-adv-x="1085" d="M293 1454q0 53 27.5 84t74.5 31t75 -31t28 -84t-28 -84t-75 -31t-74.5 31t-27.5 84zM680 1454q0 53 27.5 84t74.5 31t75 -31t28 -84t-28 -84t-75 -31t-74.5 31t-27.5 84z" />
<glyph unicode="&#xa9;" horiz-adv-x="1910" d="M152 752q0 172 63.5 322t171.5 253.5t255.5 163t311.5 59.5q163 0 309.5 -58.5t255 -161.5t172.5 -253.5t64 -324.5q0 -171 -64 -321t-172 -255.5t-255.5 -166t-309.5 -60.5q-164 0 -311.5 60.5t-255.5 166t-171.5 255.5t-63.5 321zM279 752q0 -145 53 -271.5 t143.5 -215.5t215 -140t263.5 -51q184 0 337.5 86.5t244 243t90.5 348.5q0 149 -53 276t-144 214t-214 136t-261 49q-187 0 -340.5 -84.5t-244 -240t-90.5 -350.5zM557 748q0 207 107.5 318.5t289.5 111.5q80 0 246 -43l72 -19l-29 -112l-74 18q-142 37 -211 37 q-270 0 -270 -311q0 -155 69.5 -232.5t203.5 -77.5q58 0 208 39l74 19l29 -113l-72 -18q-166 -43 -246 -43q-185 0 -291 105.5t-106 320.5z" />
<glyph unicode="&#xaa;" d="M219 913q0 256 340 256h234v74q0 168 -172 168q-94 0 -265 -41l-86 -20l-26 118l90 25q168 47 289 47q135 0 219 -72t84 -225v-432l96 -53l-49 -103l-86 41q-47 21 -131 4l-103 -20q-95 -18 -153 -18q-133 0 -207 70t-74 181zM360 920q0 -140 160 -140q41 0 180 25l93 16 v234h-236q-101 0 -149 -30.5t-48 -104.5z" />
<glyph unicode="&#xab;" horiz-adv-x="1146" d="M113 575q0 52 45 97l297 289h194l-391 -386l391 -385h-194l-297 289q-45 45 -45 96zM539 575q0 52 45 97l297 289h194l-391 -386l391 -385h-194l-297 289q-45 45 -45 96z" />
<glyph unicode="&#xac;" d="M113 709v145h968v-559h-147v414h-821z" />
<glyph unicode="&#xad;" d="M123 532v148h962v-148h-962z" />
<glyph unicode="&#xae;" horiz-adv-x="1910" d="M152 752q0 172 63.5 322t171.5 253.5t255.5 163t311.5 59.5q163 0 309.5 -58.5t255 -161.5t172.5 -253.5t64 -324.5q0 -171 -64 -321t-172 -255.5t-255.5 -166t-309.5 -60.5q-164 0 -311.5 60.5t-255.5 166t-171.5 255.5t-63.5 321zM279 752q0 -145 53 -271.5 t143.5 -215.5t215 -140t263.5 -51q184 0 337.5 86.5t244 243t90.5 348.5q0 149 -53 276t-144 214t-214 136t-261 49q-187 0 -340.5 -84.5t-244 -240t-90.5 -350.5zM668 342v725q0 104 118 104h258q110 0 176 -64.5t66 -170.5q0 -82 -43 -150l-72 -104l172 -340h-137 l-145 299h-270v-299h-123zM791 750h284l53 77q29 50 29 109t-34.5 93t-92.5 34h-239v-313z" />
<glyph unicode="&#xaf;" horiz-adv-x="1085" d="M236 1350v145h622v-145h-622z" />
<glyph unicode="&#xb0;" d="M221 1167q0 172 106 285t281 113t278 -112.5t103 -285.5q0 -175 -105.5 -287t-279.5 -112q-176 0 -279.5 112.5t-103.5 286.5zM362 1167q0 -128 65 -207t181 -79t179 78.5t63 207.5q0 127 -65.5 205t-180.5 78q-117 0 -179.5 -78t-62.5 -205z" />
<glyph unicode="&#xb1;" d="M119 0v137h968v-137h-968zM119 594v143h405v369h150v-369h413v-143h-413v-350h-150v350h-405z" />
<glyph unicode="&#xb2;" horiz-adv-x="604" d="M63 1092q0 32 31 59l232 217q50 48 69 81t19 81q0 94 -107 94q-68 0 -153 -29l-66 -22l-25 106l62 21q101 35 184 35q96 0 159.5 -50.5t63.5 -156.5q0 -123 -124 -236l-175 -162h302v-106h-400q-33 0 -52.5 18.5t-19.5 49.5z" />
<glyph unicode="&#xb3;" horiz-adv-x="604" d="M53 1067l25 111l65 -21q111 -33 170 -33q113 0 113 88q0 45 -31 76l-37 37h-141v105h141l27 38q25 36 25 76q0 80 -101 80q-65 0 -151 -27l-68 -22l-22 106l61 21q100 33 182 33q106 0 161.5 -49t55.5 -138q0 -72 -41 -127l-28 -39l35 -36q55 -61 55 -132q0 -90 -65 -144 t-171 -54q-81 0 -196 33z" />
<glyph unicode="&#xb4;" horiz-adv-x="1085" d="M408 1346q0 31 26 57l166 160h223l-286 -258q-30 -27 -60 -27q-31 0 -50 21.5t-19 46.5z" />
<glyph unicode="&#xb5;" d="M154 -381v1495h149v-706q0 -130 64.5 -201.5t218.5 -71.5q123 0 305 45v934h149v-921q0 -120 -118 -148q-192 -49 -353 -49q-181 -3 -268 72v-449h-147z" />
<glyph unicode="&#xb6;" horiz-adv-x="1300" d="M94 995q0 112 31 206.5t90.5 167.5t155.5 114t219 41h571v-1905h-143v1776h-295v-1776h-143v848q-119 0 -213 41t-153 113.5t-89.5 167.5t-30.5 206z" />
<glyph unicode="&#xb7;" horiz-adv-x="765" d="M285 752q0 54 27 84t75 30t75 -30t27 -84t-27.5 -84.5t-74.5 -30.5t-74.5 30.5t-27.5 84.5z" />
<glyph unicode="&#xb8;" horiz-adv-x="1085" d="M362 -362l27 88q83 -33 143 -33q48 0 75.5 16t27.5 47q0 24 -14 39t-38 20.5t-57.5 7t-72.5 -0.5l-9 14l84 164h86l-51 -104q81 0 129.5 -37.5t48.5 -106.5q0 -73 -56.5 -114t-143.5 -41q-85 0 -179 41z" />
<glyph unicode="&#xb9;" horiz-adv-x="604" d="M61 1024v109h203v481h-22q-60 0 -115 -27l-33 107q61 30 144 30h61q44 0 67 -22t23 -62v-507h162v-109h-490z" />
<glyph unicode="&#xba;" d="M213 1104q0 203 104.5 320.5t282.5 117.5t280.5 -117t102.5 -321q0 -203 -104.5 -321.5t-282.5 -118.5q-179 0 -281 117.5t-102 322.5zM352 1104q0 -152 65.5 -238t182.5 -86q119 0 182.5 85.5t63.5 238.5q0 149 -66.5 235t-183.5 86q-118 0 -181 -85t-63 -236z" />
<glyph unicode="&#xbb;" horiz-adv-x="1146" d="M72 190l391 385l-391 386h194l297 -289q45 -45 45 -97q0 -51 -45 -96l-297 -289h-194zM498 190l391 385l-391 386h194l297 -289q45 -45 45 -97q0 -51 -45 -96l-297 -289h-194z" />
<glyph unicode="&#xbc;" d="M45 823v109h203v481h-23q-59 0 -114 -27l-33 107q64 31 143 31h62q44 0 67 -22t23 -62v-508h162v-109h-490zM193 0l784 1524h137l-782 -1524h-139zM627 178q0 26 18 51l281 426q25 41 78 41q71 0 71 -69v-410h78v-106h-78v-123h-119v123h-262q-33 0 -50 18.5t-17 48.5z M778 217h178v272z" />
<glyph unicode="&#xbd;" d="M45 823v109h203v481h-23q-59 0 -114 -27l-33 107q64 31 143 31h62q44 0 67 -22t23 -62v-508h162v-109h-490zM152 0l784 1524h137l-782 -1524h-139zM676 68q0 32 31 59l231 217q50 48 69 81t19 81q0 94 -106 94q-69 0 -154 -29l-66 -22l-24 106l61 21q101 35 185 35 q96 0 159.5 -50.5t63.5 -156.5q0 -122 -125 -236l-174 -162h301v-106h-399q-33 0 -52.5 18.5t-19.5 49.5z" />
<glyph unicode="&#xbe;" d="M41 866l25 111l65 -21q107 -32 170 -32q113 0 113 88q0 44 -31 75l-37 37h-141v105h141l27 39q24 34 24 75q0 80 -100 80q-70 0 -152 -26l-67 -23l-23 107l62 20q100 33 182 33q106 0 161.5 -48.5t55.5 -137.5q0 -72 -41 -127l-29 -39l35 -37q56 -62 56 -131 q0 -90 -65 -144.5t-171 -54.5q-81 0 -197 33zM160 0l784 1524h137l-782 -1524h-139zM623 190q0 27 18 52l281 426q25 41 77 41q72 0 72 -70v-410h78v-106h-78v-123h-119v123h-262q-33 0 -50 18.5t-17 48.5zM774 229h178v273z" />
<glyph unicode="&#xbf;" horiz-adv-x="935" d="M70 -51q0 109 38 184t117 158l189 196v168l145 27v-127q0 -71 -11.5 -104.5t-55.5 -81.5l-148 -156q-73 -80 -100 -130.5t-27 -131.5q0 -92 61.5 -144.5t182.5 -52.5q130 0 297 47l88 25l28 -133l-86 -27q-167 -53 -329 -53q-176 0 -282.5 89.5t-106.5 246.5zM383 1047 q0 54 27 84t75 30t75.5 -30t27.5 -84t-27.5 -84.5t-75.5 -30.5q-47 0 -74.5 30.5t-27.5 84.5z" />
<glyph unicode="&#xc0;" horiz-adv-x="1402" d="M31 0l553 1452q30 86 123 86q91 0 122 -84l543 -1454h-168l-131 344h-747l-131 -344h-164zM371 477h657l-323 897zM465 1862h242l159 -109q31 -19 31 -57q0 -26 -18 -46t-50 -20q-28 0 -61 23z" />
<glyph unicode="&#xc1;" horiz-adv-x="1402" d="M31 0l553 1452q30 86 123 86q91 0 122 -84l543 -1454h-168l-131 344h-747l-131 -344h-164zM371 477h657l-323 897zM506 1696q0 38 31 57l159 109h242l-303 -209q-33 -23 -62 -23q-32 0 -49.5 20t-17.5 46z" />
<glyph unicode="&#xc2;" horiz-adv-x="1402" d="M31 0l553 1452q30 86 123 86q91 0 122 -84l543 -1454h-168l-131 344h-747l-131 -344h-164zM342 1630l264 197q47 35 99 35q51 0 100 -35l262 -197h-219l-143 107l-144 -107h-219zM371 477h657l-323 897z" />
<glyph unicode="&#xc3;" horiz-adv-x="1402" d="M31 0l553 1452q30 86 123 86q91 0 122 -84l543 -1454h-168l-131 344h-747l-131 -344h-164zM309 1698q37 94 104.5 138t141.5 44q90 0 150 -41l94 -55q43 -25 84 -25q40 0 71.5 24.5t61.5 90.5l112 -64q-36 -93 -102.5 -137.5t-140.5 -44.5q-83 0 -152 41l-92 55 q-43 25 -84 25t-73 -24.5t-62 -90.5zM371 477h657l-323 897z" />
<glyph unicode="&#xc4;" horiz-adv-x="1402" d="M31 0l553 1452q30 86 123 86q91 0 122 -84l543 -1454h-168l-131 344h-747l-131 -344h-164zM371 477h657l-323 897zM412 1745q0 53 27.5 84t74.5 31t74.5 -31t27.5 -84t-27.5 -84t-74.5 -31t-74.5 31t-27.5 84zM799 1745q0 53 27.5 84t74.5 31t75 -31t28 -84t-28 -84 t-75 -31t-74.5 31t-27.5 84z" />
<glyph unicode="&#xc5;" horiz-adv-x="1402" d="M31 0l553 1452q30 86 123 86q91 0 122 -84l543 -1454h-168l-131 344h-747l-131 -344h-164zM371 477h657l-323 897zM498 1806q0 84 59.5 135.5t147.5 51.5q89 0 148.5 -51.5t59.5 -135.5q0 -83 -60.5 -135.5t-147.5 -52.5t-147 52.5t-60 135.5zM598 1806q0 -44 30 -70 t77 -26t77.5 26.5t30.5 69.5q0 41 -30.5 68t-77.5 27t-77 -27t-30 -68z" />
<glyph unicode="&#xc6;" horiz-adv-x="2093" d="M31 0l577 1401q52 123 180 123h1186v-140h-821v-536h737v-135h-737v-574h827v-139h-835q-69 0 -108.5 38t-39.5 101v203h-659l-137 -342h-170zM389 477h608v907h-241z" />
<glyph unicode="&#xc7;" horiz-adv-x="1374" d="M113 758q0 155 34 283t94.5 218t145.5 152t186.5 91.5t217.5 29.5q87 0 177.5 -19t221.5 -59l106 -33l-30 -141l-113 35q-242 74 -360 74q-247 0 -384 -156t-137 -475t138 -475t385 -156q116 0 358 74l113 35l30 -142l-106 -33q-214 -67 -361 -75l-43 -90 q82 0 130.5 -37.5t48.5 -106.5q0 -73 -57 -114t-144 -41q-84 0 -178 41l26 88q82 -33 144 -33q102 0 102 63q0 24 -14 39t-38 20.5t-57.5 7t-72.5 -0.5l-8 14l75 150q-140 6 -253.5 54.5t-198.5 141t-131.5 239t-46.5 337.5z" />
<glyph unicode="&#xc8;" horiz-adv-x="1261" d="M164 139v1245q0 63 40 101.5t109 38.5h830v-140h-821v-536h722v-137h-722v-572h827v-139h-836q-69 0 -109 38t-40 101zM383 1862h242l159 -109q31 -19 31 -57q0 -26 -17.5 -46t-49.5 -20q-29 0 -62 23z" />
<glyph unicode="&#xc9;" horiz-adv-x="1261" d="M164 139v1245q0 63 40 101.5t109 38.5h830v-140h-821v-536h722v-137h-722v-572h827v-139h-836q-69 0 -109 38t-40 101zM494 1696q0 39 30 57l160 109h242l-303 -209q-33 -23 -62 -23q-32 0 -49.5 20t-17.5 46z" />
<glyph unicode="&#xca;" horiz-adv-x="1261" d="M164 139v1245q0 63 40 101.5t109 38.5h830v-140h-821v-536h722v-137h-722v-572h827v-139h-836q-69 0 -109 38t-40 101zM293 1630l264 197q47 35 98 35q52 0 101 -35l262 -197h-219l-144 107l-143 -107h-219z" />
<glyph unicode="&#xcb;" horiz-adv-x="1261" d="M164 139v1245q0 63 40 101.5t109 38.5h830v-140h-821v-536h722v-137h-722v-572h827v-139h-836q-69 0 -109 38t-40 101zM365 1745q0 53 27.5 84t74.5 31t74.5 -31t27.5 -84t-27.5 -84t-74.5 -31t-74.5 31t-27.5 84zM752 1745q0 53 27.5 84t74.5 31t74.5 -31t27.5 -84 t-27.5 -84t-74.5 -31t-74.5 31t-27.5 84z" />
<glyph unicode="&#xcc;" horiz-adv-x="485" d="M-29 1862h242l160 -109q30 -18 30 -57q0 -26 -17.5 -46t-49.5 -20q-29 0 -62 23zM164 0v1524h158v-1524h-158z" />
<glyph unicode="&#xcd;" horiz-adv-x="485" d="M90 1696q0 38 31 57l160 109h241l-303 -209q-33 -23 -61 -23q-32 0 -50 20t-18 46zM164 0v1524h158v-1524h-158z" />
<glyph unicode="&#xce;" horiz-adv-x="485" d="M-119 1630l264 197q47 35 99 35q51 0 100 -35l262 -197h-219l-143 107l-144 -107h-219zM164 0v1524h158v-1524h-158z" />
<glyph unicode="&#xcf;" horiz-adv-x="485" d="M-53 1745q0 53 27.5 84t74.5 31t75 -31t28 -84t-28 -84t-75 -31t-74.5 31t-27.5 84zM164 0v1524h158v-1524h-158zM334 1745q0 53 27.5 84t74.5 31t75 -31t28 -84t-28 -84t-75 -31t-74.5 31t-27.5 84z" />
<glyph unicode="&#xd0;" horiz-adv-x="1495" d="M20 713v135h144v536q0 63 40 101.5t109 38.5h392q309 0 493 -204.5t184 -561.5q0 -178 -50 -321.5t-140.5 -239t-216.5 -146.5t-277 -51h-385q-69 0 -109 38t-40 101v574h-144zM322 139h370q254 0 393.5 162t139.5 457q0 290 -145 460.5t-402 170.5h-356v-541h469v-135 h-469v-574z" />
<glyph unicode="&#xd1;" horiz-adv-x="1509" d="M164 0v1427q0 55 28.5 83t77.5 28q73 0 117 -65l813 -1258v1309h146v-1424q0 -55 -29 -82.5t-78 -27.5q-73 0 -117 65l-813 1258v-1313h-145zM358 1698q37 94 104.5 138t141.5 44q90 0 150 -41l94 -55q43 -25 84 -25q40 0 71.5 24.5t61.5 90.5l113 -64 q-36 -93 -103 -137.5t-141 -44.5q-83 0 -152 41l-92 55q-43 25 -84 25t-73 -24.5t-62 -90.5z" />
<glyph unicode="&#xd2;" horiz-adv-x="1624" d="M113 758q0 182 51.5 328.5t144.5 244t222.5 149.5t285.5 52q316 0 505 -204t189 -570q0 -185 -51.5 -332t-144.5 -243.5t-222.5 -147.5t-285.5 -51q-316 0 -505 204t-189 570zM270 758q0 -305 146.5 -473t400.5 -168q253 0 394 166.5t141 474.5q0 303 -146 470t-399 167 t-395 -166.5t-142 -470.5zM535 1862h241l160 -109q31 -19 31 -57q0 -26 -18 -46t-50 -20q-28 0 -61 23z" />
<glyph unicode="&#xd3;" horiz-adv-x="1624" d="M113 758q0 182 51.5 328.5t144.5 244t222.5 149.5t285.5 52q316 0 505 -204t189 -570q0 -185 -51.5 -332t-144.5 -243.5t-222.5 -147.5t-285.5 -51q-316 0 -505 204t-189 570zM270 758q0 -305 146.5 -473t400.5 -168q253 0 394 166.5t141 474.5q0 303 -146 470t-399 167 t-395 -166.5t-142 -470.5zM664 1696q0 39 30 57l160 109h242l-303 -209q-33 -23 -62 -23q-32 0 -49.5 20t-17.5 46z" />
<glyph unicode="&#xd4;" horiz-adv-x="1624" d="M113 758q0 182 51.5 328.5t144.5 244t222.5 149.5t285.5 52q316 0 505 -204t189 -570q0 -185 -51.5 -332t-144.5 -243.5t-222.5 -147.5t-285.5 -51q-316 0 -505 204t-189 570zM270 758q0 -305 146.5 -473t400.5 -168q253 0 394 166.5t141 474.5q0 303 -146 470t-399 167 t-395 -166.5t-142 -470.5zM455 1630l264 197q47 35 98 35q52 0 101 -35l262 -197h-219l-144 107l-143 -107h-219z" />
<glyph unicode="&#xd5;" horiz-adv-x="1624" d="M113 758q0 182 51.5 328.5t144.5 244t222.5 149.5t285.5 52q316 0 505 -204t189 -570q0 -185 -51.5 -332t-144.5 -243.5t-222.5 -147.5t-285.5 -51q-316 0 -505 204t-189 570zM270 758q0 -305 146.5 -473t400.5 -168q253 0 394 166.5t141 474.5q0 303 -146 470t-399 167 t-395 -166.5t-142 -470.5zM416 1698q37 94 104.5 138t141.5 44q89 0 149 -41l94 -55q43 -25 84 -25q40 0 71.5 24.5t61.5 90.5l113 -64q-36 -93 -103 -137.5t-141 -44.5q-82 0 -151 41l-92 55q-43 25 -84 25t-73.5 -24.5t-62.5 -90.5z" />
<glyph unicode="&#xd6;" horiz-adv-x="1624" d="M113 758q0 182 51.5 328.5t144.5 244t222.5 149.5t285.5 52q316 0 505 -204t189 -570q0 -185 -51.5 -332t-144.5 -243.5t-222.5 -147.5t-285.5 -51q-316 0 -505 204t-189 570zM270 758q0 -305 146.5 -473t400.5 -168q253 0 394 166.5t141 474.5q0 303 -146 470t-399 167 t-395 -166.5t-142 -470.5zM516 1745q0 53 27.5 84t74.5 31t75 -31t28 -84t-28 -84t-75 -31t-74.5 31t-27.5 84zM903 1745q0 53 28 84t75 31t74.5 -31t27.5 -84t-27.5 -84t-74.5 -31t-75 31t-28 84z" />
<glyph unicode="&#xd7;" d="M154 252l344 346l-344 346l106 105l344 -344l344 344l107 -105l-344 -346l344 -346l-107 -105l-344 345l-344 -345z" />
<glyph unicode="&#xd8;" horiz-adv-x="1624" d="M113 758q0 182 51.5 328.5t144.5 244t222.5 149.5t285.5 52q170 0 303 -59l82 149h135l-112 -209q136 -97 211 -264t75 -391q0 -185 -51.5 -332t-144.5 -243.5t-222.5 -147.5t-285.5 -51q-185 0 -318 65l-83 -155h-138l117 217q-131 98 -201.5 262t-70.5 385zM270 758 q0 -347 187 -514l594 1099q-113 52 -244 52q-253 0 -395 -166.5t-142 -470.5zM557 174q114 -57 260 -57q253 0 394 166.5t141 474.5q0 356 -199 522z" />
<glyph unicode="&#xd9;" horiz-adv-x="1478" d="M154 541v983h155v-983q0 -207 108 -317.5t322 -110.5q430 0 430 428v983h156v-983q0 -267 -153 -418.5t-433 -151.5t-432.5 151.5t-152.5 418.5zM465 1862h242l159 -109q31 -19 31 -57q0 -26 -18 -46t-50 -20q-28 0 -61 23z" />
<glyph unicode="&#xda;" horiz-adv-x="1478" d="M154 541v983h155v-983q0 -207 108 -317.5t322 -110.5q430 0 430 428v983h156v-983q0 -267 -153 -418.5t-433 -151.5t-432.5 151.5t-152.5 418.5zM592 1696q0 38 31 57l159 109h242l-303 -209q-33 -23 -62 -23q-32 0 -49.5 20t-17.5 46z" />
<glyph unicode="&#xdb;" horiz-adv-x="1478" d="M154 541v983h155v-983q0 -207 108 -317.5t322 -110.5q430 0 430 428v983h156v-983q0 -267 -153 -418.5t-433 -151.5t-432.5 151.5t-152.5 418.5zM383 1630l264 197q47 35 98 35q52 0 101 -35l262 -197h-219l-144 107l-143 -107h-219z" />
<glyph unicode="&#xdc;" horiz-adv-x="1478" d="M154 541v983h155v-983q0 -207 108 -317.5t322 -110.5q430 0 430 428v983h156v-983q0 -267 -153 -418.5t-433 -151.5t-432.5 151.5t-152.5 418.5zM457 1745q0 53 27.5 84t74.5 31t75 -31t28 -84t-28 -84t-75 -31t-74.5 31t-27.5 84zM844 1745q0 53 27.5 84t74.5 31t75 -31 t28 -84t-28 -84t-75 -31t-74.5 31t-27.5 84z" />
<glyph unicode="&#xdd;" horiz-adv-x="1327" d="M20 1524h181l473 -723l456 723h177l-557 -862v-662h-160v657zM561 1696q0 38 31 57l160 109h241l-303 -209q-33 -23 -61 -23q-32 0 -50 20t-18 46z" />
<glyph unicode="&#xde;" horiz-adv-x="1288" d="M164 0v1524h151v-264h439q195 0 318.5 -124.5t123.5 -336.5q0 -214 -128 -337.5t-337 -123.5h-416v-338h-151zM315 471h416q150 0 236 87t86 243q0 151 -84.5 239t-223.5 88h-430v-657z" />
<glyph unicode="&#xdf;" horiz-adv-x="1161" d="M143 0v1161q0 107 32 188t88.5 129t127.5 71.5t154 23.5q181 0 296 -98.5t115 -274.5q0 -122 -77 -244l-113 -159l152 -129q151 -129 151 -293q0 -169 -111.5 -272t-295.5 -103h-185v131h185q134 0 196 65.5t62 174.5q0 57 -26.5 103t-80.5 93l-133 117q-99 87 -25 193 l95 131q59 83 59 192q0 107 -72 172.5t-194 65.5q-250 0 -250 -277v-1161h-150z" />
<glyph unicode="&#xe0;" horiz-adv-x="1224" d="M102 291q0 90 35.5 157t98.5 104.5t139 55t168 17.5h338v127q0 233 -263 233q-125 0 -354 -63l-88 -25l-29 137l86 25q237 67 388 67q87 0 158.5 -21t128 -65t87.5 -117t31 -171v-576l137 -82l-59 -114l-100 59q-73 36 -146 16l-80 -20q-181 -49 -309 -49q-173 0 -270 81 t-97 224zM254 299q0 -180 235 -180q107 0 269 39l123 28v310h-340q-141 0 -214 -47t-73 -150zM356 1563h224l165 -160q27 -27 27 -57q0 -26 -19 -47t-51 -21q-29 0 -59 27z" />
<glyph unicode="&#xe1;" horiz-adv-x="1224" d="M102 291q0 90 35.5 157t98.5 104.5t139 55t168 17.5h338v127q0 233 -263 233q-125 0 -354 -63l-88 -25l-29 137l86 25q237 67 388 67q87 0 158.5 -21t128 -65t87.5 -117t31 -171v-576l137 -82l-59 -114l-100 59q-73 36 -146 16l-80 -20q-181 -49 -309 -49q-173 0 -270 81 t-97 224zM254 299q0 -180 235 -180q107 0 269 39l123 28v310h-340q-141 0 -214 -47t-73 -150zM485 1346q0 30 27 57l166 160h223l-287 -258q-30 -27 -59 -27q-31 0 -50.5 22t-19.5 46z" />
<glyph unicode="&#xe2;" horiz-adv-x="1224" d="M102 291q0 90 35.5 157t98.5 104.5t139 55t168 17.5h338v127q0 233 -263 233q-125 0 -354 -63l-88 -25l-29 137l86 25q237 67 388 67q87 0 158.5 -21t128 -65t87.5 -117t31 -171v-576l137 -82l-59 -114l-100 59q-73 36 -146 16l-80 -20q-181 -49 -309 -49q-173 0 -270 81 t-97 224zM254 299q0 -180 235 -180q107 0 269 39l123 28v310h-340q-141 0 -214 -47t-73 -150zM262 1266l268 262q45 39 95 39q56 0 92 -39l270 -262h-211l-151 174l-152 -174h-211z" />
<glyph unicode="&#xe3;" horiz-adv-x="1224" d="M102 291q0 90 35.5 157t98.5 104.5t139 55t168 17.5h338v127q0 233 -263 233q-125 0 -354 -63l-88 -25l-29 137l86 25q237 67 388 67q87 0 158.5 -21t128 -65t87.5 -117t31 -171v-576l137 -82l-59 -114l-100 59q-73 36 -146 16l-80 -20q-181 -49 -309 -49q-173 0 -270 81 t-97 224zM182 1350q38 111 111.5 164t150.5 53q88 0 150 -51l102 -74q44 -33 86 -33t77.5 29.5t66.5 109.5l114 -63q-37 -110 -110 -163.5t-150 -53.5q-86 0 -151 51l-101 74q-43 32 -86 32q-91 0 -145 -139zM254 299q0 -180 235 -180q107 0 269 39l123 28v310h-340 q-141 0 -214 -47t-73 -150z" />
<glyph unicode="&#xe4;" horiz-adv-x="1224" d="M102 291q0 90 35.5 157t98.5 104.5t139 55t168 17.5h338v127q0 233 -263 233q-125 0 -354 -63l-88 -25l-29 137l86 25q237 67 388 67q87 0 158.5 -21t128 -65t87.5 -117t31 -171v-576l137 -82l-59 -114l-100 59q-73 36 -146 16l-80 -20q-181 -49 -309 -49q-173 0 -270 81 t-97 224zM254 299q0 -180 235 -180q107 0 269 39l123 28v310h-340q-141 0 -214 -47t-73 -150zM336 1454q0 53 27.5 84t74.5 31t75 -31t28 -84t-28 -84t-75 -31t-74.5 31t-27.5 84zM723 1454q0 53 27.5 84t74.5 31t75 -31t28 -84t-28 -84t-75 -31t-74.5 31t-27.5 84z" />
<glyph unicode="&#xe5;" horiz-adv-x="1224" d="M102 291q0 90 35.5 157t98.5 104.5t139 55t168 17.5h338v127q0 233 -263 233q-125 0 -354 -63l-88 -25l-29 137l86 25q237 67 388 67q87 0 158.5 -21t128 -65t87.5 -117t31 -171v-576l137 -82l-59 -114l-100 59q-73 36 -146 16l-80 -20q-181 -49 -309 -49q-173 0 -270 81 t-97 224zM254 299q0 -180 235 -180q107 0 269 39l123 28v310h-340q-141 0 -214 -47t-73 -150zM379 1421q0 94 64 152.5t161 58.5t162 -58.5t65 -152.5q0 -92 -66 -152.5t-161 -60.5t-160 60t-65 153zM481 1421q0 -53 34 -87t89 -34t90 34t35 87q0 51 -34.5 85t-90.5 34 t-89.5 -34t-33.5 -85z" />
<glyph unicode="&#xe6;" horiz-adv-x="1976" d="M102 291q0 90 35.5 157t98.5 104.5t139 55t168 17.5h338v127q0 233 -263 233q-125 0 -354 -63l-88 -25l-29 137l86 25q237 67 388 67q128 0 223 -47t141 -143q69 97 172 145.5t227 48.5q230 0 365 -138.5t135 -407.5q0 -43 -22 -67.5t-64 -24.5h-762q5 -120 57.5 -203 t136 -120.5t191.5 -37.5q118 0 305 57l113 35l31 -135l-109 -35q-202 -65 -346 -65q-169 0 -291 69q-60 34 -145 17l-199 -41q-8 -2 -60 -12t-70.5 -13.5t-58.5 -10t-68 -9t-54 -2.5q-173 0 -270 81t-97 224zM254 299q0 -180 235 -180q107 0 269 39l213 45q-77 120 -86 293 h-344q-141 0 -214 -47t-73 -150zM1036 625h693q0 79 -20.5 145.5t-61 119t-108.5 82t-157 29.5q-153 0 -245 -101t-101 -275z" />
<glyph unicode="&#xe7;" horiz-adv-x="1077" d="M102 557q0 274 136 421.5t364 147.5q100 0 313 -57l91 -25l-29 -139l-92 25q-201 53 -277 53q-348 0 -348 -426t350 -426q74 0 275 53l92 25l29 -139l-91 -25q-183 -48 -272 -55l-45 -94q81 0 129.5 -37.5t48.5 -106.5q0 -73 -57 -114t-144 -41q-84 0 -178 41l27 88 q83 -33 143 -33q48 0 75.5 16t27.5 47q0 24 -14 39t-38.5 20.5t-58 7t-72.5 -0.5l-8 14l78 154q-212 11 -333.5 152.5t-121.5 414.5z" />
<glyph unicode="&#xe8;" horiz-adv-x="1198" d="M102 555q0 117 27 213.5t73.5 162.5t110.5 111.5t137.5 66.5t155.5 21q230 0 365 -138.5t135 -407.5q0 -43 -22 -67.5t-64 -24.5h-762q5 -120 57.5 -203t136 -120.5t191.5 -37.5q118 0 305 57l113 35l31 -135l-109 -35q-202 -65 -346 -65q-245 0 -390 145t-145 422z M258 625h692q0 165 -86.5 270.5t-259.5 105.5q-153 0 -245 -101t-101 -275zM356 1563h224l165 -160q27 -27 27 -57q0 -26 -19 -47t-51 -21q-29 0 -59 27z" />
<glyph unicode="&#xe9;" horiz-adv-x="1198" d="M102 555q0 117 27 213.5t73.5 162.5t110.5 111.5t137.5 66.5t155.5 21q230 0 365 -138.5t135 -407.5q0 -43 -22 -67.5t-64 -24.5h-762q5 -120 57.5 -203t136 -120.5t191.5 -37.5q118 0 305 57l113 35l31 -135l-109 -35q-202 -65 -346 -65q-245 0 -390 145t-145 422z M258 625h692q0 165 -86.5 270.5t-259.5 105.5q-153 0 -245 -101t-101 -275zM506 1346q0 31 26 57l166 160h224l-287 -258q-30 -27 -60 -27q-31 0 -50 21.5t-19 46.5z" />
<glyph unicode="&#xea;" horiz-adv-x="1198" d="M102 555q0 117 27 213.5t73.5 162.5t110.5 111.5t137.5 66.5t155.5 21q230 0 365 -138.5t135 -407.5q0 -43 -22 -67.5t-64 -24.5h-762q5 -120 57.5 -203t136 -120.5t191.5 -37.5q118 0 305 57l113 35l31 -135l-109 -35q-202 -65 -346 -65q-245 0 -390 145t-145 422z M252 1266l268 262q45 39 94 39q57 0 93 -39l270 -262h-211l-152 174l-151 -174h-211zM258 625h692q0 165 -86.5 270.5t-259.5 105.5q-153 0 -245 -101t-101 -275z" />
<glyph unicode="&#xeb;" horiz-adv-x="1198" d="M102 555q0 117 27 213.5t73.5 162.5t110.5 111.5t137.5 66.5t155.5 21q230 0 365 -138.5t135 -407.5q0 -43 -22 -67.5t-64 -24.5h-762q5 -120 57.5 -203t136 -120.5t191.5 -37.5q118 0 305 57l113 35l31 -135l-109 -35q-202 -65 -346 -65q-245 0 -390 145t-145 422z M258 625h692q0 165 -86.5 270.5t-259.5 105.5q-153 0 -245 -101t-101 -275zM317 1454q0 53 28 84t75 31t74.5 -31t27.5 -84t-27.5 -84t-74.5 -31t-75 31t-28 84zM705 1454q0 53 27.5 84t74.5 31t74.5 -31t27.5 -84t-27.5 -84t-74.5 -31t-74.5 31t-27.5 84z" />
<glyph unicode="&#xec;" horiz-adv-x="491" d="M-43 1563h223l166 -160q27 -27 27 -57q0 -26 -19 -47t-51 -21q-29 0 -59 27zM170 0v1114h154v-1114h-154z" />
<glyph unicode="&#xed;" horiz-adv-x="491" d="M109 1346q0 31 26 57l166 160h223l-286 -258q-30 -27 -60 -27q-31 0 -50 21.5t-19 46.5zM170 0v1114h154v-1114h-154z" />
<glyph unicode="&#xee;" horiz-adv-x="491" d="M-113 1266l269 262q45 39 94 39q56 0 92 -39l270 -262h-211l-151 174l-152 -174h-211zM170 0v1114h154v-1114h-154z" />
<glyph unicode="&#xef;" horiz-adv-x="491" d="M-47 1454q0 53 27.5 84t74.5 31t75 -31t28 -84t-28 -84t-75 -31t-74.5 31t-27.5 84zM170 0v1114h154v-1114h-154zM340 1454q0 53 27.5 84t74.5 31t75 -31t28 -84t-28 -84t-75 -31t-74.5 31t-27.5 84z" />
<glyph unicode="&#xf0;" horiz-adv-x="1277" d="M123 532q0 107 30 200t89.5 168.5t160 119t230.5 43.5q118 0 352 -66v80q0 137 -49 219l-307 -170v150l207 115q-68 39 -181 39h-143v133h154q196 0 315 -90l184 102v-150l-96 -55q68 -115 68 -293v-571q0 -234 -132 -376t-376 -142q-122 0 -219.5 43t-159.5 118 t-94.5 172.5t-32.5 210.5zM274 532q0 -184 94 -295.5t265 -111.5q178 0 265 103.5t87 285.5v350q-206 54 -342 58q-369 0 -369 -390z" />
<glyph unicode="&#xf1;" horiz-adv-x="1193" d="M154 0v926q0 119 118 147q192 49 353 49q110 0 191.5 -30.5t129.5 -86t71 -126.5t23 -158v-721h-149v707q0 130 -65 203t-218 73q-123 0 -305 -45v-938h-149zM178 1350q38 111 111.5 164t150.5 53q88 0 150 -51l102 -74q44 -33 86 -33t77.5 29.5t66.5 109.5l114 -63 q-37 -110 -110 -163.5t-150 -53.5q-86 0 -151 51l-101 74q-43 32 -86 32q-91 0 -145 -139z" />
<glyph unicode="&#xf2;" horiz-adv-x="1249" d="M102 557q0 270 142.5 419.5t384.5 149.5q241 0 379.5 -149t138.5 -420q0 -270 -142 -419.5t-384 -149.5q-240 0 -379.5 150.5t-139.5 418.5zM258 557q0 -210 97 -324t274 -114t270.5 113.5t93.5 324.5q0 207 -97.5 322.5t-274.5 115.5q-176 0 -269.5 -114.5t-93.5 -323.5 zM397 1563h224l165 -160q27 -27 27 -57q0 -26 -19 -47t-51 -21q-29 0 -59 27z" />
<glyph unicode="&#xf3;" horiz-adv-x="1249" d="M102 557q0 270 142.5 419.5t384.5 149.5q241 0 379.5 -149t138.5 -420q0 -270 -142 -419.5t-384 -149.5q-240 0 -379.5 150.5t-139.5 418.5zM258 557q0 -210 97 -324t274 -114t270.5 113.5t93.5 324.5q0 207 -97.5 322.5t-274.5 115.5q-176 0 -269.5 -114.5t-93.5 -323.5 zM461 1346q0 31 26 57l166 160h224l-287 -258q-30 -27 -60 -27q-31 0 -50 21.5t-19 46.5z" />
<glyph unicode="&#xf4;" horiz-adv-x="1249" d="M102 557q0 270 142.5 419.5t384.5 149.5q241 0 379.5 -149t138.5 -420q0 -270 -142 -419.5t-384 -149.5q-240 0 -379.5 150.5t-139.5 418.5zM258 557q0 -210 97 -324t274 -114t270.5 113.5t93.5 324.5q0 207 -97.5 322.5t-274.5 115.5q-176 0 -269.5 -114.5t-93.5 -323.5 zM270 1266l269 262q45 39 94 39q56 0 92 -39l270 -262h-211l-151 174l-152 -174h-211z" />
<glyph unicode="&#xf5;" horiz-adv-x="1249" d="M102 557q0 270 142.5 419.5t384.5 149.5q241 0 379.5 -149t138.5 -420q0 -270 -142 -419.5t-384 -149.5q-240 0 -379.5 150.5t-139.5 418.5zM207 1350q38 111 111.5 164t150.5 53q87 0 149 -51l103 -74q44 -33 86 -33t77 29.5t66 109.5l115 -63q-37 -110 -110 -163.5 t-150 -53.5q-87 0 -152 51l-100 74q-43 32 -86 32q-91 0 -145 -139zM258 557q0 -210 97 -324t274 -114t270.5 113.5t93.5 324.5q0 207 -97.5 322.5t-274.5 115.5q-176 0 -269.5 -114.5t-93.5 -323.5z" />
<glyph unicode="&#xf6;" horiz-adv-x="1249" d="M102 557q0 270 142.5 419.5t384.5 149.5q241 0 379.5 -149t138.5 -420q0 -270 -142 -419.5t-384 -149.5q-240 0 -379.5 150.5t-139.5 418.5zM258 557q0 -210 97 -324t274 -114t270.5 113.5t93.5 324.5q0 207 -97.5 322.5t-274.5 115.5q-176 0 -269.5 -114.5t-93.5 -323.5 zM330 1454q0 53 27.5 84t74.5 31t75 -31t28 -84t-28 -84t-75 -31t-74.5 31t-27.5 84zM717 1454q0 53 27.5 84t74.5 31t75 -31t28 -84t-28 -84t-75 -31t-74.5 31t-27.5 84z" />
<glyph unicode="&#xf7;" d="M119 530v146h968v-146h-968zM502 182q0 50 26.5 80.5t71.5 30.5t71.5 -30.5t26.5 -80.5t-26.5 -80t-71.5 -30t-71.5 30t-26.5 80zM502 1022q0 50 26.5 80.5t71.5 30.5t71.5 -30.5t26.5 -80.5t-26.5 -80.5t-71.5 -30.5t-71.5 30.5t-26.5 80.5z" />
<glyph unicode="&#xf8;" horiz-adv-x="1249" d="M102 557q0 270 142.5 419.5t384.5 149.5q119 0 217 -39l63 121h127l-92 -176q98 -70 150.5 -191t52.5 -284q0 -270 -142 -419.5t-384 -149.5q-107 0 -205 32l-68 -126h-127l94 180q-103 70 -158 193t-55 290zM258 557q0 -241 125 -354l397 762q-70 30 -159 30 q-176 0 -269.5 -114.5t-93.5 -323.5zM479 143q67 -24 150 -24q177 0 270.5 113.5t93.5 324.5q0 228 -119 344z" />
<glyph unicode="&#xf9;" horiz-adv-x="1193" d="M154 393v721h149v-706q0 -131 65 -204t218 -73q123 0 305 45v938h149v-926q0 -119 -118 -147q-192 -49 -353 -49q-110 0 -191.5 30.5t-129.5 86t-71 126.5t-23 158zM332 1563h223l166 -160q27 -27 27 -57q0 -26 -19 -47t-51 -21q-30 0 -60 27z" />
<glyph unicode="&#xfa;" horiz-adv-x="1193" d="M154 393v721h149v-706q0 -131 65 -204t218 -73q123 0 305 45v938h149v-926q0 -119 -118 -147q-192 -49 -353 -49q-110 0 -191.5 30.5t-129.5 86t-71 126.5t-23 158zM453 1346q0 31 26 57l166 160h223l-286 -258q-30 -27 -60 -27q-31 0 -50 21.5t-19 46.5z" />
<glyph unicode="&#xfb;" horiz-adv-x="1193" d="M154 393v721h149v-706q0 -131 65 -204t218 -73q123 0 305 45v938h149v-926q0 -119 -118 -147q-192 -49 -353 -49q-110 0 -191.5 30.5t-129.5 86t-71 126.5t-23 158zM246 1266l268 262q45 39 94 39q56 0 92 -39l271 -262h-211l-152 174l-151 -174h-211z" />
<glyph unicode="&#xfc;" horiz-adv-x="1193" d="M154 393v721h149v-706q0 -131 65 -204t218 -73q123 0 305 45v938h149v-926q0 -119 -118 -147q-192 -49 -353 -49q-110 0 -191.5 30.5t-129.5 86t-71 126.5t-23 158zM307 1454q0 53 28 84t75 31t74.5 -31t27.5 -84t-27.5 -84t-74.5 -31t-75 31t-28 84zM694 1454 q0 53 28 84t75 31t74.5 -31t27.5 -84t-27.5 -84t-74.5 -31t-75 31t-28 84z" />
<glyph unicode="&#xfd;" horiz-adv-x="1085" d="M49 1114h172l359 -979l305 979h168l-426 -1266q-38 -113 -112.5 -167t-192.5 -54q-83 0 -222 37l23 139q145 -36 201 -36q72 0 108 33t51 94l15 55zM471 1346q0 30 27 57l166 160h223l-287 -258q-30 -27 -59 -27q-31 0 -50.5 22t-19.5 46z" />
<glyph unicode="&#xfe;" horiz-adv-x="1222" d="M154 -381v1927l147 31v-500q199 45 317 45q239 0 370.5 -147t131.5 -414q0 -271 -130.5 -420t-371.5 -149q-107 0 -317 63v-405zM301 188q204 -52 309 -55q359 0 359 426q0 95 -20.5 170.5t-63.5 133.5t-114 89t-167 31q-112 0 -303 -45v-750z" />
<glyph unicode="&#xff;" horiz-adv-x="1085" d="M49 1114h172l359 -979l305 979h168l-426 -1266q-38 -113 -112.5 -167t-192.5 -54q-83 0 -222 37l23 139q145 -36 201 -36q72 0 108 33t51 94l15 55zM270 1454q0 53 28 84t75 31t74.5 -31t27.5 -84t-27.5 -84t-74.5 -31t-75 31t-28 84zM657 1454q0 53 28 84t75 31 t74.5 -31t27.5 -84t-27.5 -84t-74.5 -31t-75 31t-28 84z" />
<glyph unicode="&#x100;" horiz-adv-x="1402" d="M31 0l553 1452q30 86 123 86q91 0 122 -84l543 -1454h-168l-131 344h-747l-131 -344h-164zM371 477h657l-323 897zM389 1663v145h623v-145h-623z" />
<glyph unicode="&#x101;" horiz-adv-x="1224" d="M102 291q0 90 35.5 157t98.5 104.5t139 55t168 17.5h338v127q0 233 -263 233q-125 0 -354 -63l-88 -25l-29 137l86 25q237 67 388 67q87 0 158.5 -21t128 -65t87.5 -117t31 -171v-576l137 -82l-59 -114l-100 59q-73 36 -146 16l-80 -20q-181 -49 -309 -49q-173 0 -270 81 t-97 224zM254 299q0 -180 235 -180q107 0 269 39l123 28v310h-340q-141 0 -214 -47t-73 -150zM285 1350v145h622v-145h-622z" />
<glyph unicode="&#x102;" horiz-adv-x="1402" d="M31 0l553 1452q30 86 123 86q91 0 122 -84l543 -1454h-168l-131 344h-747l-131 -344h-164zM350 1874h144q0 -54 56 -84.5t150 -30.5t150.5 31.5t56.5 83.5h144q0 -79 -50.5 -135.5t-128.5 -82.5t-172 -26q-95 0 -172.5 26t-127.5 82.5t-50 135.5zM371 477h657l-323 897z " />
<glyph unicode="&#x103;" horiz-adv-x="1224" d="M102 291q0 90 35.5 157t98.5 104.5t139 55t168 17.5h338v127q0 233 -263 233q-125 0 -354 -63l-88 -25l-29 137l86 25q237 67 388 67q87 0 158.5 -21t128 -65t87.5 -117t31 -171v-576l137 -82l-59 -114l-100 59q-73 36 -146 16l-80 -20q-181 -49 -309 -49q-173 0 -270 81 t-97 224zM229 1563h144q0 -81 57 -126.5t150 -45.5q92 0 149 46t57 126h144q0 -136 -100.5 -221t-249.5 -85q-150 0 -250.5 85t-100.5 221zM254 299q0 -180 235 -180q107 0 269 39l123 28v310h-340q-141 0 -214 -47t-73 -150z" />
<glyph unicode="&#x104;" horiz-adv-x="1402" d="M31 0l553 1452q30 86 123 86q91 0 122 -84l543 -1454q-96 -58 -96 -145q0 -91 123 -91q86 0 186 37l25 -102q-114 -47 -217 -47q-110 0 -178 44t-68 126q0 108 113 178h-56l-131 344h-747l-131 -344h-164zM371 477h657l-323 897z" />
<glyph unicode="&#x105;" horiz-adv-x="1224" d="M102 291q0 90 35.5 157t98.5 104.5t139 55t168 17.5h338v127q0 233 -263 233q-125 0 -354 -63l-88 -25l-29 137l86 25q237 67 388 67q87 0 158.5 -21t128 -65t87.5 -117t31 -171v-576l137 -82l-59 -114q-84 -48 -84 -125q0 -91 123 -91q86 0 186 37l25 -102 q-114 -47 -217 -47q-110 0 -178 44t-68 126q0 63 34.5 119t100.5 84l-22 14q-73 36 -146 16l-80 -20q-181 -49 -309 -49q-173 0 -270 81t-97 224zM254 299q0 -180 235 -180q107 0 269 39l123 28v310h-340q-141 0 -214 -47t-73 -150z" />
<glyph unicode="&#x106;" horiz-adv-x="1374" d="M113 758q0 155 34 283t94.5 218t145.5 152t186.5 91.5t217.5 29.5q87 0 177.5 -19t221.5 -59l106 -33l-30 -141l-113 35q-242 74 -360 74q-247 0 -384 -156t-137 -475t138 -475t385 -156q116 0 358 74l113 35l30 -142l-106 -33q-252 -77 -399 -77q-150 0 -271.5 45.5 t-213.5 137t-142.5 242t-50.5 349.5zM592 1696q0 38 31 57l159 109h242l-303 -209q-33 -23 -62 -23q-32 0 -49.5 20t-17.5 46z" />
<glyph unicode="&#x107;" horiz-adv-x="1077" d="M102 557q0 274 136 421.5t364 147.5q100 0 313 -57l91 -25l-29 -139l-92 25q-201 53 -277 53q-348 0 -348 -426t350 -426q74 0 275 53l92 25l29 -139l-91 -25q-213 -57 -313 -57q-233 0 -366.5 141t-133.5 428zM434 1346q0 30 27 57l166 160h223l-287 -258 q-30 -27 -59 -27q-31 0 -50.5 22t-19.5 46z" />
<glyph unicode="&#x108;" horiz-adv-x="1374" d="M113 758q0 155 34 283t94.5 218t145.5 152t186.5 91.5t217.5 29.5q87 0 177.5 -19t221.5 -59l106 -33l-30 -141l-113 35q-242 74 -360 74q-247 0 -384 -156t-137 -475t138 -475t385 -156q116 0 358 74l113 35l30 -142l-106 -33q-252 -77 -399 -77q-150 0 -271.5 45.5 t-213.5 137t-142.5 242t-50.5 349.5zM422 1630l264 197q47 35 98 35q52 0 101 -35l262 -197h-219l-144 107l-143 -107h-219z" />
<glyph unicode="&#x109;" horiz-adv-x="1077" d="M102 557q0 274 136 421.5t364 147.5q100 0 313 -57l91 -25l-29 -139l-92 25q-201 53 -277 53q-348 0 -348 -426t350 -426q74 0 275 53l92 25l29 -139l-91 -25q-213 -57 -313 -57q-233 0 -366.5 141t-133.5 428zM236 1266l268 262q45 39 94 39q56 0 92 -39l271 -262h-211 l-152 174l-152 -174h-210z" />
<glyph unicode="&#x10a;" horiz-adv-x="1374" d="M113 758q0 155 34 283t94.5 218t145.5 152t186.5 91.5t217.5 29.5q87 0 177.5 -19t221.5 -59l106 -33l-30 -141l-113 35q-242 74 -360 74q-247 0 -384 -156t-137 -475t138 -475t385 -156q116 0 358 74l113 35l30 -142l-106 -33q-252 -77 -399 -77q-150 0 -271.5 45.5 t-213.5 137t-142.5 242t-50.5 349.5zM668 1745q0 53 27.5 84t74.5 31t74.5 -31t27.5 -84t-27.5 -84t-74.5 -31t-74.5 31t-27.5 84z" />
<glyph unicode="&#x10b;" horiz-adv-x="1077" d="M102 557q0 274 136 421.5t364 147.5q100 0 313 -57l91 -25l-29 -139l-92 25q-201 53 -277 53q-348 0 -348 -426t350 -426q74 0 275 53l92 25l29 -139l-91 -25q-213 -57 -313 -57q-233 0 -366.5 141t-133.5 428zM487 1454q0 53 28 84t75 31t74.5 -31t27.5 -84t-27.5 -84 t-74.5 -31t-75 31t-28 84z" />
<glyph unicode="&#x10c;" horiz-adv-x="1374" d="M113 758q0 155 34 283t94.5 218t145.5 152t186.5 91.5t217.5 29.5q87 0 177.5 -19t221.5 -59l106 -33l-30 -141l-113 35q-242 74 -360 74q-247 0 -384 -156t-137 -475t138 -475t385 -156q116 0 358 74l113 35l30 -142l-106 -33q-252 -77 -399 -77q-150 0 -271.5 45.5 t-213.5 137t-142.5 242t-50.5 349.5zM424 1862h219l143 -107l144 107h219l-262 -197q-49 -35 -101 -35q-51 0 -98 35z" />
<glyph unicode="&#x10d;" horiz-adv-x="1077" d="M102 557q0 274 136 421.5t364 147.5q100 0 313 -57l91 -25l-29 -139l-92 25q-201 53 -277 53q-348 0 -348 -426t350 -426q74 0 275 53l92 25l29 -139l-91 -25q-213 -57 -313 -57q-233 0 -366.5 141t-133.5 428zM252 1563h211l151 -174l152 174h211l-268 -263 q-44 -38 -95 -38q-57 0 -92 38z" />
<glyph unicode="&#x10e;" horiz-adv-x="1495" d="M164 139v1245q0 63 40 101.5t109 38.5h392q309 0 493 -204.5t184 -561.5q0 -178 -50 -321.5t-140.5 -239t-216.5 -146.5t-277 -51h-385q-69 0 -109 38t-40 101zM317 1862h220l143 -107l143 107h219l-262 -197q-49 -35 -100 -35t-98 35zM322 139h370q254 0 393.5 162 t139.5 457q0 290 -145 460.5t-402 170.5h-356v-1250z" />
<glyph unicode="&#x10f;" horiz-adv-x="1462" d="M102 553q0 271 130.5 420t371.5 149q108 0 318 -63v487l147 31v-1389q0 -119 -121 -147q-210 -49 -344 -49q-239 0 -370.5 147t-131.5 414zM254 555q0 -95 20.5 -170.5t63 -133.5t113.5 -89t167 -31q113 0 304 45v750q-204 52 -310 55q-358 0 -358 -426zM1227 1204 l94 359h162l-111 -398q-18 -63 -76 -63q-44 0 -62 29.5t-7 72.5z" />
<glyph unicode="&#x110;" horiz-adv-x="1495" d="M20 713v135h144v536q0 63 40 101.5t109 38.5h392q309 0 493 -204.5t184 -561.5q0 -178 -50 -321.5t-140.5 -239t-216.5 -146.5t-277 -51h-385q-69 0 -109 38t-40 101v574h-144zM322 139h370q254 0 393.5 162t139.5 457q0 290 -145 460.5t-402 170.5h-356v-541h469v-135 h-469v-574z" />
<glyph unicode="&#x111;" horiz-adv-x="1222" d="M102 553q0 271 130.5 420t371.5 149q108 0 318 -63v198h-299v132h299v157l147 31v-188h154v-132h-154v-1069q0 -119 -121 -147q-210 -49 -344 -49q-239 0 -370.5 147t-131.5 414zM254 555q0 -95 20.5 -170.5t63 -133.5t113.5 -89t167 -31q113 0 304 45v750 q-204 52 -310 55q-358 0 -358 -426z" />
<glyph unicode="&#x112;" horiz-adv-x="1261" d="M164 139v1245q0 63 40 101.5t109 38.5h830v-140h-821v-536h722v-137h-722v-572h827v-139h-836q-69 0 -109 38t-40 101zM340 1663v145h623v-145h-623z" />
<glyph unicode="&#x113;" horiz-adv-x="1198" d="M102 555q0 117 27 213.5t73.5 162.5t110.5 111.5t137.5 66.5t155.5 21q230 0 365 -138.5t135 -407.5q0 -43 -22 -67.5t-64 -24.5h-762q5 -120 57.5 -203t136 -120.5t191.5 -37.5q118 0 305 57l113 35l31 -135l-109 -35q-202 -65 -346 -65q-245 0 -390 145t-145 422z M258 625h692q0 165 -86.5 270.5t-259.5 105.5q-153 0 -245 -101t-101 -275zM311 1350v145h623v-145h-623z" />
<glyph unicode="&#x114;" horiz-adv-x="1261" d="M164 139v1245q0 63 40 101.5t109 38.5h830v-140h-821v-536h722v-137h-722v-572h827v-139h-836q-69 0 -109 38t-40 101zM307 1874h144q0 -54 56 -84.5t150 -30.5t150.5 31.5t56.5 83.5h144q0 -79 -50.5 -135.5t-128.5 -82.5t-172 -26q-95 0 -172.5 26t-127.5 82.5 t-50 135.5z" />
<glyph unicode="&#x115;" horiz-adv-x="1198" d="M102 555q0 117 27 213.5t73.5 162.5t110.5 111.5t137.5 66.5t155.5 21q230 0 365 -138.5t135 -407.5q0 -43 -22 -67.5t-64 -24.5h-762q5 -120 57.5 -203t136 -120.5t191.5 -37.5q118 0 305 57l113 35l31 -135l-109 -35q-202 -65 -346 -65q-245 0 -390 145t-145 422z M258 625h692q0 165 -86.5 270.5t-259.5 105.5q-153 0 -245 -101t-101 -275zM258 1563h143q0 -81 57 -126.5t150 -45.5t150 46t57 126h143q0 -136 -100.5 -221t-249.5 -85q-150 0 -250 85t-100 221z" />
<glyph unicode="&#x116;" horiz-adv-x="1261" d="M164 139v1245q0 63 40 101.5t109 38.5h830v-140h-821v-536h722v-137h-722v-572h827v-139h-836q-69 0 -109 38t-40 101zM569 1745q0 53 28 84t75 31t74.5 -31t27.5 -84t-27.5 -84t-74.5 -31t-75 31t-28 84z" />
<glyph unicode="&#x117;" horiz-adv-x="1198" d="M102 555q0 117 27 213.5t73.5 162.5t110.5 111.5t137.5 66.5t155.5 21q230 0 365 -138.5t135 -407.5q0 -43 -22 -67.5t-64 -24.5h-762q5 -120 57.5 -203t136 -120.5t191.5 -37.5q118 0 305 57l113 35l31 -135l-109 -35q-202 -65 -346 -65q-245 0 -390 145t-145 422z M258 625h692q0 165 -86.5 270.5t-259.5 105.5q-153 0 -245 -101t-101 -275zM504 1454q0 53 27.5 84t74.5 31t75 -31t28 -84t-28 -84t-75 -31t-74.5 31t-27.5 84z" />
<glyph unicode="&#x118;" horiz-adv-x="1261" d="M164 139v1245q0 63 40 101.5t109 38.5h830v-140h-821v-536h722v-137h-722v-572h827v-139h-145q-97 -59 -97 -145q0 -91 123 -91q87 0 187 37l24 -102q-114 -47 -217 -47q-110 0 -178 44t-68 126q0 108 113 178h-578q-69 0 -109 38t-40 101z" />
<glyph unicode="&#x119;" horiz-adv-x="1198" d="M102 555q0 117 27 213.5t73.5 162.5t110.5 111.5t137.5 66.5t155.5 21q230 0 365 -138.5t135 -407.5q0 -43 -22 -67.5t-64 -24.5h-762q5 -120 57.5 -203t136 -120.5t191.5 -37.5q118 0 305 57l113 35l31 -135l-109 -35q-54 -18 -115 -35h2q-96 -58 -96 -145 q0 -90 123 -90q86 0 186 37l25 -103q-114 -47 -217 -47q-110 0 -178 44t-68 126q0 91 74 152q-54 -4 -82 -4q-245 0 -390 145t-145 422zM258 625h692q0 165 -86.5 270.5t-259.5 105.5q-153 0 -245 -101t-101 -275z" />
<glyph unicode="&#x11a;" horiz-adv-x="1261" d="M164 139v1245q0 63 40 101.5t109 38.5h830v-140h-821v-536h722v-137h-722v-572h827v-139h-836q-69 0 -109 38t-40 101zM307 1862h219l144 -107l143 107h219l-262 -197q-49 -35 -100 -35q-52 0 -99 35z" />
<glyph unicode="&#x11b;" horiz-adv-x="1198" d="M102 555q0 117 27 213.5t73.5 162.5t110.5 111.5t137.5 66.5t155.5 21q230 0 365 -138.5t135 -407.5q0 -43 -22 -67.5t-64 -24.5h-762q5 -120 57.5 -203t136 -120.5t191.5 -37.5q118 0 305 57l113 35l31 -135l-109 -35q-202 -65 -346 -65q-245 0 -390 145t-145 422z M246 1563h211l151 -174l152 174h211l-269 -263q-44 -38 -94 -38q-57 0 -92 38zM258 625h692q0 165 -86.5 270.5t-259.5 105.5q-153 0 -245 -101t-101 -275z" />
<glyph unicode="&#x11c;" horiz-adv-x="1482" d="M113 756q0 193 54 343t150 243t223.5 140.5t280.5 47.5q91 0 185.5 -19t232.5 -59l111 -33l-33 -143l-117 35q-253 73 -381 73q-259 0 -402 -154.5t-143 -473.5q0 -160 41 -282t116.5 -198.5t177 -114.5t227.5 -38q154 0 362 41v424h-379v135h383q69 0 108.5 -38 t39.5 -101v-398q0 -63 -29.5 -96t-95.5 -51q-205 -55 -389 -55q-157 0 -286 45.5t-228 137t-154 241.5t-55 348zM446 1630l265 197q47 35 98 35t100 -35l262 -197h-219l-143 107l-143 -107h-220z" />
<glyph unicode="&#x11d;" horiz-adv-x="1224" d="M102 762q0 171 124.5 260.5t340.5 89.5h119q149 0 215 18l238 66l35 -129l-242 -70q4 -3 11.5 -8.5t26 -26.5t33 -45.5t26 -65.5t11.5 -87q0 -172 -122.5 -260t-344.5 -88q-38 0 -70.5 3t-45.5 6l-13 3q27 -30 27 -80q0 -60 -51 -123h389q168 0 257 -70t89 -188 q0 -338 -573 -338q-74 0 -140 9t-127 31t-104.5 54.5t-69.5 83t-26 113.5q0 115 80 213l106 129q39 47 39 96q0 37 -17.5 63.5t-60.5 55.5q-33 22 -56.5 43.5t-49.5 55.5t-40 81t-14 105zM238 1266l268 262q45 39 94 39q56 0 92 -39l271 -262h-211l-152 174l-151 -174h-211z M248 762q0 -234 323 -234q148 0 236 56.5t88 177.5q0 227 -324 227q-323 0 -323 -227zM258 -74q0 -90 93 -132t247 -42q414 0 414 211q0 61 -50 97t-157 36h-477q-70 -75 -70 -170z" />
<glyph unicode="&#x11e;" horiz-adv-x="1482" d="M113 756q0 193 54 343t150 243t223.5 140.5t280.5 47.5q91 0 185.5 -19t232.5 -59l111 -33l-33 -143l-117 35q-253 73 -381 73q-259 0 -402 -154.5t-143 -473.5q0 -160 41 -282t116.5 -198.5t177 -114.5t227.5 -38q154 0 362 41v424h-379v135h383q69 0 108.5 -38 t39.5 -101v-398q0 -63 -29.5 -96t-95.5 -51q-205 -55 -389 -55q-157 0 -286 45.5t-228 137t-154 241.5t-55 348zM455 1874h143q0 -54 56 -84.5t151 -30.5q94 0 150.5 31.5t56.5 83.5h143q0 -79 -50.5 -135.5t-128 -82.5t-171.5 -26q-95 0 -172.5 26t-127.5 82.5t-50 135.5z " />
<glyph unicode="&#x11f;" horiz-adv-x="1224" d="M102 762q0 171 124.5 260.5t340.5 89.5h119q149 0 215 18l238 66l35 -129l-242 -70q4 -3 11.5 -8.5t26 -26.5t33 -45.5t26 -65.5t11.5 -87q0 -172 -122.5 -260t-344.5 -88q-38 0 -70.5 3t-45.5 6l-13 3q27 -30 27 -80q0 -60 -51 -123h389q168 0 257 -70t89 -188 q0 -338 -573 -338q-74 0 -140 9t-127 31t-104.5 54.5t-69.5 83t-26 113.5q0 115 80 213l106 129q39 47 39 96q0 37 -17.5 63.5t-60.5 55.5q-33 22 -56.5 43.5t-49.5 55.5t-40 81t-14 105zM248 762q0 -234 323 -234q148 0 236 56.5t88 177.5q0 227 -324 227q-323 0 -323 -227 zM250 1563h143q0 -81 57 -126.5t150 -45.5t150 46t57 126h143q0 -136 -100.5 -221t-249.5 -85q-150 0 -250 85t-100 221zM258 -74q0 -90 93 -132t247 -42q414 0 414 211q0 61 -50 97t-157 36h-477q-70 -75 -70 -170z" />
<glyph unicode="&#x120;" horiz-adv-x="1482" d="M113 756q0 193 54 343t150 243t223.5 140.5t280.5 47.5q91 0 185.5 -19t232.5 -59l111 -33l-33 -143l-117 35q-253 73 -381 73q-259 0 -402 -154.5t-143 -473.5q0 -160 41 -282t116.5 -198.5t177 -114.5t227.5 -38q154 0 362 41v424h-379v135h383q69 0 108.5 -38 t39.5 -101v-398q0 -63 -29.5 -96t-95.5 -51q-205 -55 -389 -55q-157 0 -286 45.5t-228 137t-154 241.5t-55 348zM717 1745q0 53 27.5 84t74.5 31t75 -31t28 -84t-28 -84t-75 -31t-74.5 31t-27.5 84z" />
<glyph unicode="&#x121;" horiz-adv-x="1224" d="M102 762q0 171 124.5 260.5t340.5 89.5h119q149 0 215 18l238 66l35 -129l-242 -70q4 -3 11.5 -8.5t26 -26.5t33 -45.5t26 -65.5t11.5 -87q0 -172 -122.5 -260t-344.5 -88q-38 0 -70.5 3t-45.5 6l-13 3q27 -30 27 -80q0 -60 -51 -123h389q168 0 257 -70t89 -188 q0 -338 -573 -338q-74 0 -140 9t-127 31t-104.5 54.5t-69.5 83t-26 113.5q0 115 80 213l106 129q39 47 39 96q0 37 -17.5 63.5t-60.5 55.5q-33 22 -56.5 43.5t-49.5 55.5t-40 81t-14 105zM248 762q0 -234 323 -234q148 0 236 56.5t88 177.5q0 227 -324 227q-323 0 -323 -227 zM258 -74q0 -90 93 -132t247 -42q414 0 414 211q0 61 -50 97t-157 36h-477q-70 -75 -70 -170zM492 1454q0 53 27.5 84t74.5 31t74.5 -31t27.5 -84t-27.5 -84t-74.5 -31t-74.5 31t-27.5 84z" />
<glyph unicode="&#x122;" horiz-adv-x="1482" d="M113 756q0 193 54 343t150 243t223.5 140.5t280.5 47.5q91 0 185.5 -19t232.5 -59l111 -33l-33 -143l-117 35q-253 73 -381 73q-259 0 -402 -154.5t-143 -473.5q0 -160 41 -282t116.5 -198.5t177 -114.5t227.5 -38q154 0 362 41v424h-379v135h383q69 0 108.5 -38 t39.5 -101v-398q0 -63 -29.5 -96t-95.5 -51q-205 -55 -389 -55q-157 0 -286 45.5t-228 137t-154 241.5t-55 348zM678 -317l55 213h168l-70 -252q-16 -64 -86 -64q-39 0 -59 29t-8 74z" />
<glyph unicode="&#x123;" horiz-adv-x="1224" d="M102 762q0 171 124.5 260.5t340.5 89.5h119q149 0 215 18l238 66l35 -129l-242 -70q4 -3 11.5 -8.5t26 -26.5t33 -45.5t26 -65.5t11.5 -87q0 -172 -122.5 -260t-344.5 -88q-38 0 -70.5 3t-45.5 6l-13 3q27 -30 27 -80q0 -60 -51 -123h389q168 0 257 -70t89 -188 q0 -338 -573 -338q-74 0 -140 9t-127 31t-104.5 54.5t-69.5 83t-26 113.5q0 115 80 213l106 129q39 47 39 96q0 37 -17.5 63.5t-60.5 55.5q-33 22 -56.5 43.5t-49.5 55.5t-40 81t-14 105zM248 762q0 -234 323 -234q148 0 236 56.5t88 177.5q0 227 -324 227q-323 0 -323 -227 zM258 -74q0 -90 93 -132t247 -42q414 0 414 211q0 61 -50 97t-157 36h-477q-70 -75 -70 -170zM483 1268l92 325q19 64 80 64q44 0 64.5 -30t9.5 -73l-76 -286h-170z" />
<glyph unicode="&#x124;" horiz-adv-x="1464" d="M164 0v1524h155v-682h826v682h155v-1524h-155v707h-826v-707h-155zM369 1630l264 197q47 35 98 35t100 -35l263 -197h-220l-143 107l-143 -107h-219z" />
<glyph unicode="&#x125;" horiz-adv-x="1167" d="M154 0v1546l147 31v-520q211 65 328 65q109 0 189 -31t125 -88t66 -126.5t21 -155.5v-721h-147v715q0 124 -62.5 194t-210.5 70q-106 0 -309 -53v-926h-147zM229 1630l265 197q47 35 98 35t100 -35l262 -197h-219l-143 107l-143 -107h-220z" />
<glyph unicode="&#x126;" horiz-adv-x="1464" d="M0 1077v133h164v314h155v-314h826v314h155v-314h164v-133h-164v-1077h-155v707h-826v-707h-155v1077h-164zM319 842h826v235h-826v-235z" />
<glyph unicode="&#x127;" horiz-adv-x="1167" d="M0 1257v132h154v157l147 31v-188h299v-132h-299v-200q211 65 328 65q109 0 189 -31t125 -88t66 -126.5t21 -155.5v-721h-147v715q0 124 -62.5 194t-210.5 70q-106 0 -309 -53v-926h-147v1257h-154z" />
<glyph unicode="&#x128;" horiz-adv-x="485" d="M-154 1698q37 94 104.5 138t141.5 44q90 0 150 -41l94 -55q43 -25 84 -25q40 0 71.5 24.5t61.5 90.5l113 -64q-36 -93 -103 -137.5t-141 -44.5q-83 0 -152 41l-92 55q-43 25 -84 25t-73 -24.5t-62 -90.5zM164 0v1524h158v-1524h-158z" />
<glyph unicode="&#x129;" horiz-adv-x="491" d="M-182 1350q38 111 111.5 164t150.5 53q87 0 149 -51l103 -74q44 -33 86 -33t77 29.5t66 109.5l115 -63q-37 -110 -110 -163.5t-150 -53.5q-87 0 -152 51l-100 74q-43 32 -86 32q-92 0 -146 -139zM170 0v1114h154v-1114h-154z" />
<glyph unicode="&#x12a;" horiz-adv-x="485" d="M-68 1663v145h623v-145h-623zM164 0v1524h158v-1524h-158z" />
<glyph unicode="&#x12b;" horiz-adv-x="491" d="M-66 1350v145h623v-145h-623zM170 0v1114h154v-1114h-154z" />
<glyph unicode="&#x12c;" horiz-adv-x="485" d="M-106 1874h143q0 -54 56 -84.5t151 -30.5q94 0 150.5 31.5t56.5 83.5h143q0 -79 -50.5 -135.5t-128 -82.5t-171.5 -26q-95 0 -172.5 26t-127.5 82.5t-50 135.5zM164 0v1524h158v-1524h-158z" />
<glyph unicode="&#x12d;" horiz-adv-x="491" d="M-104 1563h143q0 -81 57 -126.5t150 -45.5t150 46t57 126h143q0 -136 -100.5 -221t-249.5 -85q-150 0 -250 85t-100 221zM170 0v1114h154v-1114h-154z" />
<glyph unicode="&#x12e;" horiz-adv-x="485" d="M96 -178q0 108 113 178h-45v1524h158v-1524q-97 -59 -97 -145q0 -91 123 -91q87 0 187 37l24 -102q-114 -47 -217 -47q-110 0 -178 44t-68 126z" />
<glyph unicode="&#x12f;" horiz-adv-x="491" d="M98 -178q0 108 113 178h-41v1114h154v-1114q-97 -59 -97 -145q0 -91 123 -91q87 0 187 37l24 -102q-114 -47 -217 -47q-110 0 -178 44t-68 126zM143 1454q0 53 28 84t75 31t74.5 -31t27.5 -84t-27.5 -84t-74.5 -31t-75 31t-28 84z" />
<glyph unicode="&#x130;" horiz-adv-x="485" d="M141 1745q0 53 28 84t75 31t74.5 -31t27.5 -84t-27.5 -84t-74.5 -31t-75 31t-28 84zM164 0v1524h158v-1524h-158z" />
<glyph unicode="&#x131;" horiz-adv-x="491" d="M170 0v1114h154v-1114h-154z" />
<glyph unicode="&#x134;" horiz-adv-x="745" d="M16 27l23 143q146 -35 213 -35q100 0 142 56t42 178v1155h156v-1166q0 -178 -89.5 -272t-252.5 -94q-76 0 -234 35zM152 1630l264 197q47 35 98 35t100 -35l263 -197h-220l-143 107l-143 -107h-219z" />
<glyph unicode="&#x135;" horiz-adv-x="505" d="M-104 1266l268 262q45 39 94 39q56 0 92 -39l271 -262h-211l-152 174l-152 -174h-210zM0 -240q100 3 142 58t42 172v1124h154v-1130q0 -172 -88.5 -263.5t-249.5 -91.5v131z" />
<glyph unicode="&#x136;" horiz-adv-x="1339" d="M164 0v1524h153v-901l746 901h203l-457 -531l479 -993h-168l-428 872l-221 -258q-45 -53 -62.5 -74.5t-44.5 -64.5t-37 -84t-10 -92v-299h-153zM561 -317l55 213h168l-69 -252q-16 -64 -86 -64q-39 0 -59.5 29t-8.5 74z" />
<glyph unicode="&#x137;" horiz-adv-x="1128" d="M154 0v1546l147 31v-1079l567 616h197l-371 -389l393 -725h-176l-333 616l-132 -129q-75 -71 -110 -133t-35 -161v-193h-147zM449 -317l55 213h168l-70 -252q-16 -64 -86 -64q-39 0 -59 29t-8 74z" />
<glyph unicode="&#x138;" horiz-adv-x="1128" d="M154 0v1114h147v-616q53 14 100.5 56.5t85 99.5t76.5 122.5t85 128t100 114t132.5 83t172.5 31.5v-134q-51 0 -97 -16t-80 -39t-69.5 -63t-59 -74.5t-55.5 -85.5l393 -721h-174l-315 575q-134 -195 -295 -227v-348h-147z" />
<glyph unicode="&#x139;" horiz-adv-x="1179" d="M164 139v1385h160v-1383h763v-141h-774q-69 0 -109 38t-40 101zM432 1696q0 38 31 57l160 109h241l-303 -209q-33 -23 -61 -23q-32 0 -50 20t-18 46z" />
<glyph unicode="&#x13a;" horiz-adv-x="460" d="M84 1696q0 38 31 57l159 109h242l-303 -209q-33 -23 -61 -23q-32 0 -50 20t-18 46zM154 0v1544l153 33v-1577h-153z" />
<glyph unicode="&#x13b;" horiz-adv-x="1179" d="M164 139v1385h160v-1383h763v-141h-774q-69 0 -109 38t-40 101zM496 -317l55 213h168l-70 -252q-16 -64 -86 -64q-39 0 -59 29t-8 74z" />
<glyph unicode="&#x13c;" horiz-adv-x="460" d="M86 -317l55 213h168l-69 -252q-16 -64 -86 -64q-39 0 -59.5 29t-8.5 74zM154 0v1544l153 33v-1577h-153z" />
<glyph unicode="&#x13d;" horiz-adv-x="1179" d="M164 139v1385h160v-1383h763v-141h-774q-69 0 -109 38t-40 101zM522 1204l94 359h162l-110 -398q-18 -63 -76 -63q-44 0 -62.5 29.5t-7.5 72.5z" />
<glyph unicode="&#x13e;" horiz-adv-x="702" d="M154 0v1544l153 33v-1577h-153zM467 1204l94 359h162l-111 -398q-18 -63 -75 -63q-44 0 -62.5 29.5t-7.5 72.5z" />
<glyph unicode="&#x13f;" horiz-adv-x="1179" d="M164 139v1385h160v-1383h763v-141h-774q-69 0 -109 38t-40 101zM647 752q0 54 27.5 84t75.5 30t75 -30t27 -84t-27.5 -84.5t-74.5 -30.5q-48 0 -75.5 30.5t-27.5 84.5z" />
<glyph unicode="&#x140;" horiz-adv-x="704" d="M154 0v1544l153 33v-1577h-153zM479 752q0 54 27.5 84t75.5 30t75 -30t27 -84t-27.5 -84.5t-74.5 -30.5q-48 0 -75.5 30.5t-27.5 84.5z" />
<glyph unicode="&#x141;" horiz-adv-x="1179" d="M20 688v154l144 67v615h160v-539l344 164v-154l-344 -164v-690h763v-141h-774q-69 0 -109 38t-40 101v617z" />
<glyph unicode="&#x142;" horiz-adv-x="481" d="M31 717v166l139 88v575l154 33v-510l137 88v-168l-137 -88v-901h-154v805z" />
<glyph unicode="&#x143;" horiz-adv-x="1509" d="M164 0v1427q0 55 28.5 83t77.5 28q73 0 117 -65l813 -1258v1309h146v-1424q0 -55 -29 -82.5t-78 -27.5q-73 0 -117 65l-813 1258v-1313h-145zM614 1696q0 38 31 57l160 109h242l-304 -209q-33 -23 -61 -23q-32 0 -50 20t-18 46z" />
<glyph unicode="&#x144;" horiz-adv-x="1193" d="M154 0v926q0 119 118 147q192 49 353 49q110 0 191.5 -30.5t129.5 -86t71 -126.5t23 -158v-721h-149v707q0 130 -65 203t-218 73q-123 0 -305 -45v-938h-149zM399 1346q0 30 27 57l166 160h223l-287 -258q-30 -27 -59 -27q-31 0 -50.5 22t-19.5 46z" />
<glyph unicode="&#x145;" horiz-adv-x="1509" d="M164 0v1427q0 55 28.5 83t77.5 28q73 0 117 -65l813 -1258v1309h146v-1424q0 -55 -29 -82.5t-78 -27.5q-73 0 -117 65l-813 1258v-1313h-145zM643 -317l55 213h168l-69 -252q-16 -64 -86 -64q-39 0 -59.5 29t-8.5 74z" />
<glyph unicode="&#x146;" horiz-adv-x="1193" d="M154 0v926q0 119 118 147q192 49 353 49q110 0 191.5 -30.5t129.5 -86t71 -126.5t23 -158v-721h-149v707q0 130 -65 203t-218 73q-123 0 -305 -45v-938h-149zM475 -317l55 213h168l-69 -252q-16 -64 -86 -64q-39 0 -59.5 29t-8.5 74z" />
<glyph unicode="&#x147;" horiz-adv-x="1509" d="M164 0v1427q0 55 28.5 83t77.5 28q73 0 117 -65l813 -1258v1309h146v-1424q0 -55 -29 -82.5t-78 -27.5q-73 0 -117 65l-813 1258v-1313h-145zM399 1862h219l144 -107l143 107h219l-262 -197q-49 -35 -100 -35t-98 35z" />
<glyph unicode="&#x148;" horiz-adv-x="1193" d="M154 0v926q0 119 118 147q192 49 353 49q110 0 191.5 -30.5t129.5 -86t71 -126.5t23 -158v-721h-149v707q0 130 -65 203t-218 73q-123 0 -305 -45v-938h-149zM217 1563h211l152 -174l151 174h211l-268 -263q-44 -38 -94 -38q-58 0 -93 38z" />
<glyph unicode="&#x14a;" horiz-adv-x="1509" d="M164 0v1427q0 55 28.5 83t77.5 28q73 0 117 -65l813 -1205v1256h146v-1540q0 -172 -86.5 -263.5t-247.5 -91.5v131q101 3 144.5 58.5t43.5 171.5v14l-891 1309v-1313h-145z" />
<glyph unicode="&#x14b;" horiz-adv-x="1193" d="M154 0v926q0 119 118 147q192 49 353 49q110 0 191.5 -30.5t129.5 -86t71 -126.5t23 -158v-737q0 -173 -86.5 -264t-246.5 -91v131q100 3 142 58t42 172v717q0 130 -65 203t-218 73q-123 0 -305 -45v-938h-149z" />
<glyph unicode="&#x14c;" horiz-adv-x="1624" d="M113 758q0 182 51.5 328.5t144.5 244t222.5 149.5t285.5 52q316 0 505 -204t189 -570q0 -185 -51.5 -332t-144.5 -243.5t-222.5 -147.5t-285.5 -51q-316 0 -505 204t-189 570zM270 758q0 -305 146.5 -473t400.5 -168q253 0 394 166.5t141 474.5q0 303 -146 470t-399 167 t-395 -166.5t-142 -470.5zM504 1663v145h622v-145h-622z" />
<glyph unicode="&#x14d;" horiz-adv-x="1249" d="M102 557q0 270 142.5 419.5t384.5 149.5q241 0 379.5 -149t138.5 -420q0 -270 -142 -419.5t-384 -149.5q-240 0 -379.5 150.5t-139.5 418.5zM258 557q0 -210 97 -324t274 -114t270.5 113.5t93.5 324.5q0 207 -97.5 322.5t-274.5 115.5q-176 0 -269.5 -114.5t-93.5 -323.5 zM317 1350v145h623v-145h-623z" />
<glyph unicode="&#x14e;" horiz-adv-x="1624" d="M113 758q0 182 51.5 328.5t144.5 244t222.5 149.5t285.5 52q316 0 505 -204t189 -570q0 -185 -51.5 -332t-144.5 -243.5t-222.5 -147.5t-285.5 -51q-316 0 -505 204t-189 570zM270 758q0 -305 146.5 -473t400.5 -168q253 0 394 166.5t141 474.5q0 303 -146 470t-399 167 t-395 -166.5t-142 -470.5zM463 1874h143q0 -54 56 -84.5t151 -30.5q94 0 150.5 31.5t56.5 83.5h143q0 -79 -50.5 -135.5t-128 -82.5t-171.5 -26q-95 0 -172.5 26t-127.5 82.5t-50 135.5z" />
<glyph unicode="&#x14f;" horiz-adv-x="1249" d="M102 557q0 270 142.5 419.5t384.5 149.5q241 0 379.5 -149t138.5 -420q0 -270 -142 -419.5t-384 -149.5q-240 0 -379.5 150.5t-139.5 418.5zM258 557q0 -210 97 -324t274 -114t270.5 113.5t93.5 324.5q0 207 -97.5 322.5t-274.5 115.5q-176 0 -269.5 -114.5t-93.5 -323.5 zM279 1563h143q0 -81 57 -126.5t150 -45.5t150 46t57 126h143q0 -136 -100.5 -221t-249.5 -85q-150 0 -250 85t-100 221z" />
<glyph unicode="&#x150;" horiz-adv-x="1624" d="M113 758q0 182 51.5 328.5t144.5 244t222.5 149.5t285.5 52q316 0 505 -204t189 -570q0 -185 -51.5 -332t-144.5 -243.5t-222.5 -147.5t-285.5 -51q-316 0 -505 204t-189 570zM270 758q0 -305 146.5 -473t400.5 -168q253 0 394 166.5t141 474.5q0 303 -146 470t-399 167 t-395 -166.5t-142 -470.5zM487 1688q0 28 27 49l166 125h223l-291 -215q-27 -21 -61 -21q-29 0 -46.5 18.5t-17.5 43.5zM846 1683q0 28 26 48l170 131h232l-307 -222q-23 -18 -60 -18q-30 0 -45.5 17.5t-15.5 43.5z" />
<glyph unicode="&#x151;" horiz-adv-x="1249" d="M102 557q0 270 142.5 419.5t384.5 149.5q241 0 379.5 -149t138.5 -420q0 -270 -142 -419.5t-384 -149.5q-240 0 -379.5 150.5t-139.5 418.5zM258 557q0 -210 97 -324t274 -114t270.5 113.5t93.5 324.5q0 207 -97.5 322.5t-274.5 115.5q-176 0 -269.5 -114.5t-93.5 -323.5 zM365 1335q0 29 26 58l166 170h221l-289 -269q-27 -24 -59 -24q-33 0 -49 19.5t-16 45.5zM717 1321q0 28 26 57l181 185h221l-303 -285q-26 -23 -60 -23q-33 0 -49 19.5t-16 46.5z" />
<glyph unicode="&#x152;" horiz-adv-x="2271" d="M113 758q0 357 184.5 561.5t493.5 204.5h1361v-140h-821v-536h723v-137h-723v-572h828v-139h-1362q-151 0 -277 51t-216.5 146.5t-140.5 239t-50 321.5zM270 758q0 -295 139.5 -457t393.5 -162h371v1250h-357q-257 0 -402 -170.5t-145 -460.5z" />
<glyph unicode="&#x153;" horiz-adv-x="2086" d="M102 557q0 270 142.5 419.5t384.5 149.5q154 0 266.5 -63t173.5 -184q62 126 173.5 188.5t252.5 62.5q230 0 365 -138.5t135 -407.5q0 -43 -22 -67.5t-64 -24.5h-762q5 -120 57.5 -203t136 -120.5t191.5 -37.5q118 0 305 57l113 35l30 -135l-108 -35q-202 -65 -346 -65 q-160 0 -277.5 62.5t-181.5 185.5q-63 -121 -177 -184.5t-269 -63.5q-240 0 -379.5 150.5t-139.5 418.5zM258 557q0 -210 97 -324t274 -114t270.5 113.5t93.5 324.5q0 207 -97.5 322.5t-274.5 115.5q-176 0 -269.5 -114.5t-93.5 -323.5zM1147 625h692q0 165 -86.5 270.5 t-259.5 105.5q-153 0 -245 -101t-101 -275z" />
<glyph unicode="&#x154;" horiz-adv-x="1349" d="M164 0v1389q0 63 38 99t107 36h490q198 0 308 -105t110 -303q0 -145 -115 -295l-121 -155l317 -666h-170l-290 621h-519v-621h-155zM319 752h560l86 118q100 141 100 244q0 279 -268 279h-478v-641zM477 1696q0 38 31 57l160 109h241l-303 -209q-33 -23 -61 -23 q-32 0 -50 20t-18 46z" />
<glyph unicode="&#x155;" horiz-adv-x="729" d="M154 0v926q0 116 118 147q111 31 199.5 40t237.5 9v-145q-242 0 -404 -43v-934h-151zM326 1346q0 31 26 57l166 160h223l-286 -258q-30 -27 -60 -27q-31 0 -50 21.5t-19 46.5z" />
<glyph unicode="&#x156;" horiz-adv-x="1349" d="M164 0v1389q0 63 38 99t107 36h490q198 0 308 -105t110 -303q0 -145 -115 -295l-121 -155l317 -666h-170l-290 621h-519v-621h-155zM319 752h560l86 118q100 141 100 244q0 279 -268 279h-478v-641zM563 -317l55 213h168l-69 -252q-16 -64 -86 -64q-39 0 -59.5 29 t-8.5 74z" />
<glyph unicode="&#x157;" horiz-adv-x="729" d="M102 -317l56 213h168l-70 -252q-16 -64 -86 -64q-39 0 -59.5 29t-8.5 74zM154 0v926q0 116 118 147q111 31 199.5 40t237.5 9v-145q-242 0 -404 -43v-934h-151z" />
<glyph unicode="&#x158;" horiz-adv-x="1349" d="M164 0v1389q0 63 38 99t107 36h490q198 0 308 -105t110 -303q0 -145 -115 -295l-121 -155l317 -666h-170l-290 621h-519v-621h-155zM309 1862h219l144 -107l143 107h219l-262 -197q-49 -35 -100 -35q-52 0 -99 35zM319 752h560l86 118q100 141 100 244q0 279 -268 279 h-478v-641z" />
<glyph unicode="&#x159;" horiz-adv-x="729" d="M98 1563h211l152 -174l151 174h211l-268 -263q-44 -38 -94 -38q-57 0 -92 38zM154 0v926q0 116 118 147q111 31 199.5 40t237.5 9v-145q-242 0 -404 -43v-934h-151z" />
<glyph unicode="&#x15a;" horiz-adv-x="1306" d="M123 106l37 146l104 -35q272 -92 453 -92q62 0 117 15.5t101.5 47t73.5 85.5t27 124q0 103 -57 164t-184 90l-295 68q-178 39 -273.5 137.5t-95.5 257.5q0 105 39.5 187.5t107 132t150 75t174.5 25.5q124 0 231 -22.5t254 -69.5l103 -33l-37 -145l-104 34 q-133 45 -236.5 69t-206.5 24q-87 0 -156 -26t-115 -89t-46 -156q0 -102 56 -162.5t183 -89.5l295 -67q371 -81 371 -398q0 -85 -26 -155t-71 -118.5t-106 -81.5t-128.5 -48.5t-141.5 -15.5q-126 0 -239.5 22t-256.5 68zM500 1696q0 39 30 57l160 109h242l-303 -209 q-33 -23 -62 -23q-32 0 -49.5 20t-17.5 46z" />
<glyph unicode="&#x15b;" horiz-adv-x="1122" d="M123 78l29 137l88 -25q221 -63 370 -63q102 0 168 44t66 132q0 66 -46 106.5t-149 57.5l-221 39q-142 25 -220.5 101.5t-78.5 193.5q0 107 56 182.5t140.5 109t188.5 33.5q105 0 193 -16t208 -51l84 -25l-28 -139l-88 25q-228 65 -371 65q-102 0 -167.5 -43.5 t-65.5 -132.5q0 -66 45.5 -107t148.5 -59l221 -39q143 -25 221 -100.5t78 -192.5q0 -107 -56 -182.5t-140.5 -109t-188.5 -33.5q-105 0 -193 16t-208 51zM449 1346q0 31 26 57l166 160h223l-286 -258q-30 -27 -60 -27q-31 0 -50 21.5t-19 46.5z" />
<glyph unicode="&#x15c;" horiz-adv-x="1306" d="M123 106l37 146l104 -35q272 -92 453 -92q62 0 117 15.5t101.5 47t73.5 85.5t27 124q0 103 -57 164t-184 90l-295 68q-178 39 -273.5 137.5t-95.5 257.5q0 105 39.5 187.5t107 132t150 75t174.5 25.5q124 0 231 -22.5t254 -69.5l103 -33l-37 -145l-104 34 q-133 45 -236.5 69t-206.5 24q-87 0 -156 -26t-115 -89t-46 -156q0 -102 56 -162.5t183 -89.5l295 -67q371 -81 371 -398q0 -85 -26 -155t-71 -118.5t-106 -81.5t-128.5 -48.5t-141.5 -15.5q-126 0 -239.5 22t-256.5 68zM303 1630l264 197q47 35 99 35q51 0 100 -35 l262 -197h-219l-143 107l-144 -107h-219z" />
<glyph unicode="&#x15d;" horiz-adv-x="1122" d="M123 78l29 137l88 -25q221 -63 370 -63q102 0 168 44t66 132q0 66 -46 106.5t-149 57.5l-221 39q-142 25 -220.5 101.5t-78.5 193.5q0 107 56 182.5t140.5 109t188.5 33.5q105 0 193 -16t208 -51l84 -25l-28 -139l-88 25q-228 65 -371 65q-102 0 -167.5 -43.5 t-65.5 -132.5q0 -66 45.5 -107t148.5 -59l221 -39q143 -25 221 -100.5t78 -192.5q0 -107 -56 -182.5t-140.5 -109t-188.5 -33.5q-105 0 -193 16t-208 51zM201 1266l268 262q45 39 94 39q56 0 92 -39l271 -262h-211l-152 174l-151 -174h-211z" />
<glyph unicode="&#x15e;" horiz-adv-x="1306" d="M123 106l37 146l104 -35q272 -92 453 -92q62 0 117 15.5t101.5 47t73.5 85.5t27 124q0 103 -57 164t-184 90l-295 68q-178 39 -273.5 137.5t-95.5 257.5q0 105 39.5 187.5t107 132t150 75t174.5 25.5q124 0 231 -22.5t254 -69.5l103 -33l-37 -145l-104 34 q-133 45 -236.5 69t-206.5 24q-87 0 -156 -26t-115 -89t-46 -156q0 -102 56 -162.5t183 -89.5l295 -67q371 -81 371 -398q0 -85 -26 -155t-71 -118.5t-106 -81.5t-128.5 -48.5t-141.5 -15.5h-10l-43 -88q81 0 129.5 -37.5t48.5 -106.5q0 -73 -57 -114t-144 -41 q-84 0 -178 41l27 88q82 -33 143 -33q102 0 102 63q0 24 -14 39t-38 20.5t-57.5 7t-72.5 -0.5l-8 14l76 152q-173 13 -400 86z" />
<glyph unicode="&#x15f;" horiz-adv-x="1122" d="M123 78l29 137l88 -25q221 -63 370 -63q102 0 168 44t66 132q0 66 -46 106.5t-149 57.5l-221 39q-142 25 -220.5 101.5t-78.5 193.5q0 107 56 182.5t140.5 109t188.5 33.5q105 0 193 -16t208 -51l84 -25l-28 -139l-88 25q-228 65 -371 65q-102 0 -167.5 -43.5 t-65.5 -132.5q0 -66 45.5 -107t148.5 -59l221 -39q143 -25 221 -100.5t78 -192.5q0 -81 -31.5 -144t-85.5 -101.5t-121.5 -58.5t-144.5 -21l-43 -90q81 0 129.5 -37.5t48.5 -106.5q0 -73 -56.5 -114t-143.5 -41q-84 0 -178 41l26 88q83 -33 144 -33q102 0 102 63 q0 24 -14 39t-38 20.5t-57.5 7t-72.5 -0.5l-8 14l77 154q-132 9 -319 63z" />
<glyph unicode="&#x160;" horiz-adv-x="1298" d="M123 106l37 146l104 -35q272 -92 453 -92q62 0 117 15.5t101.5 47t73.5 85.5t27 124q0 103 -57 164t-184 90l-295 68q-178 39 -273.5 137.5t-95.5 257.5q0 105 39.5 187.5t107 132t150 75t174.5 25.5q124 0 231 -22.5t254 -69.5l103 -33l-37 -145l-104 34 q-133 45 -236.5 69t-206.5 24q-87 0 -156 -26t-115 -89t-46 -156q0 -102 56 -162.5t183 -89.5l295 -67q371 -81 371 -398q0 -85 -26 -155t-71 -118.5t-106 -81.5t-128.5 -48.5t-141.5 -15.5q-126 0 -239.5 22t-256.5 68zM313 1862h219l144 -107l143 107h219l-262 -197 q-49 -35 -100 -35t-98 35z" />
<glyph unicode="&#x161;" horiz-adv-x="1122" d="M123 78l29 137l88 -25q221 -63 370 -63q102 0 168 44t66 132q0 66 -46 106.5t-149 57.5l-221 39q-142 25 -220.5 101.5t-78.5 193.5q0 107 56 182.5t140.5 109t188.5 33.5q105 0 193 -16t208 -51l84 -25l-28 -139l-88 25q-228 65 -371 65q-102 0 -167.5 -43.5 t-65.5 -132.5q0 -66 45.5 -107t148.5 -59l221 -39q143 -25 221 -100.5t78 -192.5q0 -107 -56 -182.5t-140.5 -109t-188.5 -33.5q-105 0 -193 16t-208 51zM223 1563h211l152 -174l151 174h211l-268 -263q-44 -38 -94 -38q-57 0 -92 38z" />
<glyph unicode="&#x162;" horiz-adv-x="1261" d="M68 1384v140h1134v-140h-487v-1384h-160v1384h-487zM498 -317l55 213h168l-70 -252q-16 -64 -86 -64q-39 0 -59 29t-8 74z" />
<glyph unicode="&#x163;" horiz-adv-x="835" d="M41 956v138h178v280l150 31v-311h379v-138h-379v-604q0 -119 40.5 -172t135.5 -53q67 0 207 33l22 -140q-157 -32 -235 -32q-320 0 -320 352v616h-178zM342 -317l55 213h168l-69 -252q-16 -64 -86 -64q-39 0 -59.5 29t-8.5 74z" />
<glyph unicode="&#x164;" horiz-adv-x="1261" d="M68 1384v140h1134v-140h-487v-1384h-160v1384h-487zM270 1862h219l144 -107l143 107h219l-262 -197q-49 -35 -100 -35t-98 35z" />
<glyph unicode="&#x165;" horiz-adv-x="1261" d="M41 956v138h178v280l150 31v-311h379v-138h-379v-604q0 -119 40.5 -172t135.5 -53q67 0 207 33l22 -140q-157 -32 -235 -32q-320 0 -320 352v616h-178zM483 1296l78 267h162l-94 -306q-18 -63 -76 -63q-44 0 -62.5 29.5t-7.5 72.5z" />
<glyph unicode="&#x166;" horiz-adv-x="1261" d="M61 1384v140h1135v-140h-487v-536h356v-137h-356v-711h-160v711h-340v137h340v536h-488z" />
<glyph unicode="&#x167;" horiz-adv-x="835" d="M37 586v135h182v235h-178v138h178v280l150 31v-311h379v-138h-379v-235h379v-135h-379v-234q0 -119 40.5 -172t135.5 -53q67 0 207 33l22 -140q-157 -32 -235 -32q-320 0 -320 352v246h-182z" />
<glyph unicode="&#x168;" horiz-adv-x="1478" d="M154 541v983h155v-983q0 -207 108 -317.5t322 -110.5q430 0 430 428v983h156v-983q0 -267 -153 -418.5t-433 -151.5t-432.5 151.5t-152.5 418.5zM342 1698q37 94 104.5 138t141.5 44q89 0 149 -41l94 -55q43 -25 84 -25q40 0 72 24.5t62 90.5l112 -64 q-36 -93 -102.5 -137.5t-140.5 -44.5q-83 0 -152 41l-92 55q-43 25 -84 25t-73 -24.5t-62 -90.5z" />
<glyph unicode="&#x169;" horiz-adv-x="1193" d="M154 393v721h149v-706q0 -131 65 -204t218 -73q123 0 305 45v938h149v-926q0 -119 -118 -147q-192 -49 -353 -49q-110 0 -191.5 30.5t-129.5 86t-71 126.5t-23 158zM174 1350q38 111 111.5 164t150.5 53q88 0 150 -51l102 -74q44 -33 86 -33t77.5 29.5t66.5 109.5 l114 -63q-37 -110 -110 -163.5t-150 -53.5q-86 0 -151 51l-101 74q-43 32 -86 32q-91 0 -145 -139z" />
<glyph unicode="&#x16a;" horiz-adv-x="1478" d="M154 541v983h155v-983q0 -207 108 -317.5t322 -110.5q430 0 430 428v983h156v-983q0 -267 -153 -418.5t-433 -151.5t-432.5 151.5t-152.5 418.5zM428 1663v145h623v-145h-623z" />
<glyph unicode="&#x16b;" horiz-adv-x="1193" d="M154 393v721h149v-706q0 -131 65 -204t218 -73q123 0 305 45v938h149v-926q0 -119 -118 -147q-192 -49 -353 -49q-110 0 -191.5 30.5t-129.5 86t-71 126.5t-23 158zM291 1350v145h622v-145h-622z" />
<glyph unicode="&#x16c;" horiz-adv-x="1478" d="M154 541v983h155v-983q0 -207 108 -317.5t322 -110.5q430 0 430 428v983h156v-983q0 -267 -153 -418.5t-433 -151.5t-432.5 151.5t-152.5 418.5zM393 1874h144q0 -54 56 -84.5t150 -30.5t150.5 31.5t56.5 83.5h144q0 -79 -50.5 -135.5t-128.5 -82.5t-172 -26 q-95 0 -172.5 26t-127.5 82.5t-50 135.5z" />
<glyph unicode="&#x16d;" horiz-adv-x="1193" d="M154 393v721h149v-706q0 -131 65 -204t218 -73q123 0 305 45v938h149v-926q0 -119 -118 -147q-192 -49 -353 -49q-110 0 -191.5 30.5t-129.5 86t-71 126.5t-23 158zM254 1563h143q0 -81 57 -126.5t150 -45.5t150 46t57 126h143q0 -136 -100.5 -221t-249.5 -85 q-150 0 -250 85t-100 221z" />
<glyph unicode="&#x16e;" horiz-adv-x="1478" d="M154 541v983h155v-983q0 -207 108 -317.5t322 -110.5q430 0 430 428v983h156v-983q0 -267 -153 -418.5t-433 -151.5t-432.5 151.5t-152.5 418.5zM530 1806q0 84 59.5 135.5t147.5 51.5q89 0 149 -51.5t60 -135.5q0 -83 -61 -135.5t-148 -52.5t-147 52.5t-60 135.5z M631 1806q0 -44 30 -70t76 -26q47 0 78 26.5t31 69.5q0 41 -31 68t-78 27t-76.5 -26.5t-29.5 -68.5z" />
<glyph unicode="&#x16f;" horiz-adv-x="1193" d="M154 393v721h149v-706q0 -131 65 -204t218 -73q123 0 305 45v938h149v-926q0 -119 -118 -147q-192 -49 -353 -49q-110 0 -191.5 30.5t-129.5 86t-71 126.5t-23 158zM373 1421q0 94 64 152.5t161 58.5t162 -58.5t65 -152.5q0 -92 -66 -152.5t-161 -60.5t-160 60t-65 153z M475 1421q0 -53 34 -87t89 -34t90 34t35 87q0 51 -34.5 85t-90.5 34t-89.5 -34t-33.5 -85z" />
<glyph unicode="&#x170;" horiz-adv-x="1478" d="M154 541v983h155v-983q0 -207 108 -317.5t322 -110.5q430 0 430 428v983h156v-983q0 -267 -153 -418.5t-433 -151.5t-432.5 151.5t-152.5 418.5zM461 1688q0 29 26 49l166 125h224l-291 -215q-27 -21 -62 -21q-29 0 -46 18.5t-17 43.5zM819 1683q0 27 27 48l170 131h231 l-307 -222q-23 -18 -59 -18q-30 0 -46 18t-16 43z" />
<glyph unicode="&#x171;" horiz-adv-x="1193" d="M154 393v721h149v-706q0 -131 65 -204t218 -73q123 0 305 45v938h149v-926q0 -119 -118 -147q-192 -49 -353 -49q-110 0 -191.5 30.5t-129.5 86t-71 126.5t-23 158zM317 1335q0 28 27 58l166 170h221l-289 -269q-27 -24 -59 -24q-33 0 -49.5 19.5t-16.5 45.5zM670 1321 q0 28 26 57l181 185h221l-303 -285q-26 -23 -60 -23q-33 0 -49 19.5t-16 46.5z" />
<glyph unicode="&#x172;" horiz-adv-x="1478" d="M154 541v983h155v-983q0 -207 108 -317.5t322 -110.5q430 0 430 428v983h156v-983q0 -177 -68.5 -304.5t-197.5 -195.5l-4 -2q-2 -2 -4 -2q-88 -57 -88 -141q0 -91 122 -91q87 0 187 37l24 -102q-114 -47 -217 -47q-110 0 -177.5 44t-67.5 126q0 68 43 121 q-70 -13 -138 -13q-280 0 -432.5 151.5t-152.5 418.5z" />
<glyph unicode="&#x173;" horiz-adv-x="1193" d="M154 393v721h149v-706q0 -131 65 -204t218 -73q123 0 305 45v938h149v-926q0 -119 -118 -147q-69 -18 -119 -27q-96 -58 -96 -145q0 -90 122 -90q87 0 187 37l24 -103q-114 -47 -217 -47q-110 0 -177.5 44t-67.5 126q0 96 84 160q-37 -4 -93 -4q-110 0 -191.5 30.5 t-129.5 86t-71 126.5t-23 158z" />
<glyph unicode="&#x174;" horiz-adv-x="1865" d="M51 1524h150l245 -1342l379 1264q21 78 111 78t111 -78l370 -1266l250 1344h148l-273 -1446q-9 -45 -40 -69.5t-79 -24.5q-96 0 -120 86l-371 1292l-381 -1292q-12 -41 -43 -62.5t-76 -21.5q-47 0 -76 24.5t-37 69.5zM569 1630l265 197q47 35 98 35t100 -35l262 -197 h-219l-143 107l-144 -107h-219z" />
<glyph unicode="&#x175;" horiz-adv-x="1617" d="M72 1114h157l179 -958l305 899q21 67 94 67q74 0 96 -67l303 -903l187 962h153l-227 -1042q-9 -44 -39.5 -68t-75.5 -24q-87 0 -114 83l-283 869l-297 -871q-26 -79 -115 -79q-46 0 -76.5 23t-39.5 67zM451 1266l268 262q45 39 94 39q56 0 92 -39l271 -262h-211l-152 174 l-151 -174h-211z" />
<glyph unicode="&#x176;" horiz-adv-x="1327" d="M20 1524h181l473 -723l456 723h177l-557 -862v-662h-160v657zM301 1630l264 197q47 35 99 35q51 0 100 -35l262 -197h-219l-143 107l-144 -107h-219z" />
<glyph unicode="&#x177;" horiz-adv-x="1085" d="M49 1114h172l359 -979l305 979h168l-426 -1266q-38 -113 -112.5 -167t-192.5 -54q-83 0 -222 37l23 139q145 -36 201 -36q72 0 108 33t51 94l15 55zM193 1266l268 262q45 39 94 39q56 0 92 -39l271 -262h-211l-152 174l-152 -174h-210z" />
<glyph unicode="&#x178;" horiz-adv-x="1327" d="M20 1524h181l473 -723l456 723h177l-557 -862v-662h-160v657zM381 1745q0 53 27.5 84t74.5 31t75 -31t28 -84t-28 -84t-75 -31t-74.5 31t-27.5 84zM768 1745q0 53 27.5 84t74.5 31t75 -31t28 -84t-28 -84t-75 -31t-74.5 31t-27.5 84z" />
<glyph unicode="&#x179;" horiz-adv-x="1323" d="M113 104q0 40 30 84l885 1201h-893v135h963q51 0 76.5 -28.5t25.5 -76.5q0 -39 -31 -84l-880 -1200h921v-135h-995q-51 0 -76.5 28t-25.5 76zM520 1696q0 38 31 57l160 109h241l-303 -209q-33 -23 -61 -23q-32 0 -50 20t-18 46z" />
<glyph unicode="&#x17a;" horiz-adv-x="1093" d="M102 98q0 44 35 88l686 799h-694v129h774q48 0 72 -26.5t24 -71.5t-34 -88l-686 -799h722v-129h-802q-48 0 -72.5 26.5t-24.5 71.5zM410 1346q0 31 26 57l166 160h223l-286 -258q-30 -27 -60 -27q-31 0 -50 21.5t-19 46.5z" />
<glyph unicode="&#x17b;" horiz-adv-x="1323" d="M113 104q0 40 30 84l885 1201h-893v135h963q51 0 76.5 -28.5t25.5 -76.5q0 -39 -31 -84l-880 -1200h921v-135h-995q-51 0 -76.5 28t-25.5 76zM573 1745q0 53 28 84t75 31t74.5 -31t27.5 -84t-27.5 -84t-74.5 -31t-75 31t-28 84z" />
<glyph unicode="&#x17c;" horiz-adv-x="1093" d="M102 98q0 44 35 88l686 799h-694v129h774q48 0 72 -26.5t24 -71.5t-34 -88l-686 -799h722v-129h-802q-48 0 -72.5 26.5t-24.5 71.5zM457 1454q0 53 27.5 84t74.5 31t75 -31t28 -84t-28 -84t-75 -31t-74.5 31t-27.5 84z" />
<glyph unicode="&#x17d;" horiz-adv-x="1323" d="M113 104q0 40 30 84l885 1201h-893v135h963q51 0 76.5 -28.5t25.5 -76.5q0 -39 -31 -84l-880 -1200h921v-135h-995q-51 0 -76.5 28t-25.5 76zM307 1862h219l144 -107l143 107h219l-262 -197q-49 -35 -100 -35q-52 0 -99 35z" />
<glyph unicode="&#x17e;" horiz-adv-x="1093" d="M102 98q0 44 35 88l686 799h-694v129h774q48 0 72 -26.5t24 -71.5t-34 -88l-686 -799h722v-129h-802q-48 0 -72.5 26.5t-24.5 71.5zM219 1563h211l152 -174l151 174h211l-268 -263q-44 -38 -94 -38q-58 0 -93 38z" />
<glyph unicode="&#x192;" d="M260 -240q101 3 145 58.5t44 171.5v966h-183v138h183v118q0 172 85.5 263.5t241.5 91.5q68 0 230 -33l-23 -139q-142 32 -209 32q-95 0 -135.5 -53t-40.5 -172v-108h354v-138h-354v-972q0 -172 -88.5 -263.5t-249.5 -91.5v131z" />
<glyph unicode="&#x218;" horiz-adv-x="1306" d="M123 106l37 146l104 -35q272 -92 453 -92q62 0 117 15.5t101.5 47t73.5 85.5t27 124q0 103 -57 164t-184 90l-295 68q-178 39 -273.5 137.5t-95.5 257.5q0 105 39.5 187.5t107 132t150 75t174.5 25.5q124 0 231 -22.5t254 -69.5l103 -33l-37 -145l-104 34 q-133 45 -236.5 69t-206.5 24q-87 0 -156 -26t-115 -89t-46 -156q0 -102 56 -162.5t183 -89.5l295 -67q371 -81 371 -398q0 -85 -26 -155t-71 -118.5t-106 -81.5t-128.5 -48.5t-141.5 -15.5q-126 0 -239.5 22t-256.5 68zM530 -317l56 213h168l-70 -252q-16 -64 -86 -64 q-39 0 -59.5 29t-8.5 74z" />
<glyph unicode="&#x219;" horiz-adv-x="1122" d="M123 78l29 137l88 -25q221 -63 370 -63q102 0 168 44t66 132q0 66 -46 106.5t-149 57.5l-221 39q-142 25 -220.5 101.5t-78.5 193.5q0 107 56 182.5t140.5 109t188.5 33.5q105 0 193 -16t208 -51l84 -25l-28 -139l-88 25q-228 65 -371 65q-102 0 -167.5 -43.5 t-65.5 -132.5q0 -66 45.5 -107t148.5 -59l221 -39q143 -25 221 -100.5t78 -192.5q0 -107 -56 -182.5t-140.5 -109t-188.5 -33.5q-105 0 -193 16t-208 51zM442 -317l56 213h168l-70 -252q-16 -64 -86 -64q-39 0 -59.5 29t-8.5 74z" />
<glyph unicode="&#x237;" horiz-adv-x="505" d="M0 -240q100 3 142 58t42 172v1124h154v-1130q0 -172 -88.5 -263.5t-249.5 -91.5v131z" />
<glyph unicode="&#x2c6;" horiz-adv-x="1085" d="M213 1266l268 262q45 39 94 39q57 0 93 -39l270 -262h-211l-152 174l-151 -174h-211z" />
<glyph unicode="&#x2c7;" horiz-adv-x="1085" d="M213 1563h211l151 -174l152 174h211l-268 -263q-44 -38 -95 -38q-57 0 -92 38z" />
<glyph unicode="&#x2d8;" horiz-adv-x="1085" d="M219 1563h143q0 -81 57 -126.5t150 -45.5t150 46t57 126h144q0 -136 -101 -221t-250 -85q-150 0 -250 85t-100 221z" />
<glyph unicode="&#x2d9;" horiz-adv-x="1085" d="M442 1454q0 53 28 84t75 31t74.5 -31t27.5 -84t-27.5 -84t-74.5 -31t-75 31t-28 84z" />
<glyph unicode="&#x2da;" horiz-adv-x="1085" d="M344 1421q0 94 64 152.5t161 58.5t162.5 -58.5t65.5 -152.5q0 -92 -66.5 -152.5t-161.5 -60.5t-160 60t-65 153zM446 1421q0 -53 34 -87t89 -34t90 34t35 87q0 51 -34.5 85t-90.5 34t-89.5 -34t-33.5 -85z" />
<glyph unicode="&#x2db;" horiz-adv-x="1085" d="M315 -178q0 108 113 178l107 10l6 -10q-97 -59 -97 -145q0 -91 123 -91q87 0 187 37l24 -102q-114 -47 -217 -47q-110 0 -178 44t-68 126z" />
<glyph unicode="&#x2dc;" horiz-adv-x="1085" d="M119 1350q38 111 111.5 164t150.5 53q87 0 149 -51l103 -74q44 -33 86 -33t77 29.5t66 109.5l115 -63q-37 -110 -110 -163.5t-150 -53.5q-87 0 -152 51l-100 74q-43 32 -86 32q-92 0 -146 -139z" />
<glyph unicode="&#x2dd;" horiz-adv-x="1085" d="M195 1335q0 29 26 58l166 170h221l-289 -269q-27 -24 -59 -24q-33 0 -49 19.5t-16 45.5zM547 1321q0 28 26 57l181 185h221l-303 -285q-26 -23 -60 -23q-33 0 -49 19.5t-16 46.5z" />
<glyph unicode="&#x3c0;" horiz-adv-x="1425" d="M70 983v131h1292v-131h-381v-631q0 -119 40.5 -172t135.5 -53q60 0 207 33l22 -140q-157 -32 -235 -32q-320 0 -320 352v643h-428v-983h-151v983h-182z" />
<glyph unicode="&#x1e80;" horiz-adv-x="1865" d="M51 1524h150l245 -1342l379 1264q21 78 111 78t111 -78l370 -1266l250 1344h148l-273 -1446q-9 -45 -40 -69.5t-79 -24.5q-96 0 -120 86l-371 1292l-381 -1292q-12 -41 -43 -62.5t-76 -21.5q-47 0 -76 24.5t-37 69.5zM698 1862h242l160 -109q30 -18 30 -57 q0 -26 -17.5 -46t-49.5 -20q-29 0 -62 23z" />
<glyph unicode="&#x1e81;" horiz-adv-x="1617" d="M72 1114h157l179 -958l305 899q21 67 94 67q74 0 96 -67l303 -903l187 962h153l-227 -1042q-9 -44 -39.5 -68t-75.5 -24q-87 0 -114 83l-283 869l-297 -871q-26 -79 -115 -79q-46 0 -76.5 23t-39.5 67zM561 1563h223l166 -160q27 -27 27 -57q0 -26 -19 -47t-51 -21 q-29 0 -59 27z" />
<glyph unicode="&#x1e82;" horiz-adv-x="1865" d="M51 1524h150l245 -1342l379 1264q21 78 111 78t111 -78l370 -1266l250 1344h148l-273 -1446q-9 -45 -40 -69.5t-79 -24.5q-96 0 -120 86l-371 1292l-381 -1292q-12 -41 -43 -62.5t-76 -21.5q-47 0 -76 24.5t-37 69.5zM764 1696q0 38 31 57l159 109h242l-303 -209 q-33 -23 -62 -23q-32 0 -49.5 20t-17.5 46z" />
<glyph unicode="&#x1e83;" horiz-adv-x="1617" d="M72 1114h157l179 -958l305 899q21 67 94 67q74 0 96 -67l303 -903l187 962h153l-227 -1042q-9 -44 -39.5 -68t-75.5 -24q-87 0 -114 83l-283 869l-297 -871q-26 -79 -115 -79q-46 0 -76.5 23t-39.5 67zM666 1346q0 31 26 57l166 160h223l-286 -258q-30 -27 -60 -27 q-31 0 -50 21.5t-19 46.5z" />
<glyph unicode="&#x1e84;" horiz-adv-x="1865" d="M51 1524h150l245 -1342l379 1264q21 78 111 78t111 -78l370 -1266l250 1344h148l-273 -1446q-9 -45 -40 -69.5t-79 -24.5q-96 0 -120 86l-371 1292l-381 -1292q-12 -41 -43 -62.5t-76 -21.5q-47 0 -76 24.5t-37 69.5zM637 1745q0 53 27.5 84t74.5 31t75 -31t28 -84 t-28 -84t-75 -31t-74.5 31t-27.5 84zM1024 1745q0 53 27.5 84t74.5 31t75 -31t28 -84t-28 -84t-75 -31t-74.5 31t-27.5 84z" />
<glyph unicode="&#x1e85;" horiz-adv-x="1617" d="M72 1114h157l179 -958l305 899q21 67 94 67q74 0 96 -67l303 -903l187 962h153l-227 -1042q-9 -44 -39.5 -68t-75.5 -24q-87 0 -114 83l-283 869l-297 -871q-26 -79 -115 -79q-46 0 -76.5 23t-39.5 67zM512 1454q0 53 27.5 84t74.5 31t75 -31t28 -84t-28 -84t-75 -31 t-74.5 31t-27.5 84zM899 1454q0 53 27.5 84t74.5 31t75 -31t28 -84t-28 -84t-75 -31t-74.5 31t-27.5 84z" />
<glyph unicode="&#x1ef2;" horiz-adv-x="1327" d="M20 1524h181l473 -723l456 723h177l-557 -862v-662h-160v657zM401 1862h242l160 -109q31 -19 31 -57q0 -26 -18 -46t-50 -20q-28 0 -61 23z" />
<glyph unicode="&#x1ef3;" horiz-adv-x="1085" d="M49 1114h172l359 -979l305 979h168l-426 -1266q-38 -113 -112.5 -167t-192.5 -54q-83 0 -222 37l23 139q145 -36 201 -36q72 0 108 33t51 94l15 55zM264 1563h223l166 -160q27 -27 27 -57q0 -26 -19 -47t-51 -21q-29 0 -59 27z" />
<glyph unicode="&#x2000;" horiz-adv-x="996" />
<glyph unicode="&#x2001;" horiz-adv-x="1993" />
<glyph unicode="&#x2002;" horiz-adv-x="996" />
<glyph unicode="&#x2003;" horiz-adv-x="1993" />
<glyph unicode="&#x2004;" horiz-adv-x="664" />
<glyph unicode="&#x2005;" horiz-adv-x="498" />
<glyph unicode="&#x2006;" horiz-adv-x="332" />
<glyph unicode="&#x2007;" horiz-adv-x="332" />
<glyph unicode="&#x2008;" horiz-adv-x="249" />
<glyph unicode="&#x2009;" horiz-adv-x="398" />
<glyph unicode="&#x200a;" horiz-adv-x="110" />
<glyph unicode="&#x2010;" horiz-adv-x="845" d="M123 559v150h600v-150h-600z" />
<glyph unicode="&#x2011;" horiz-adv-x="845" d="M123 559v150h600v-150h-600z" />
<glyph unicode="&#x2012;" d="M123 553v147h962v-147h-962z" />
<glyph unicode="&#x2013;" d="M123 553v147h962v-147h-962z" />
<glyph unicode="&#x2014;" horiz-adv-x="2048" d="M123 553v145h1802v-145h-1802z" />
<glyph unicode="&#x2018;" horiz-adv-x="425" d="M66 1114l108 385q19 64 80 64q44 0 64.5 -30t9.5 -73l-92 -346h-170z" />
<glyph unicode="&#x2019;" horiz-adv-x="425" d="M78 1204l94 359h170l-111 -398q-18 -63 -79 -63q-45 0 -65 29.5t-9 72.5z" />
<glyph unicode="&#x201a;" horiz-adv-x="425" d="M74 -154l98 367h170l-115 -406q-18 -63 -80 -63q-44 0 -64 29.5t-9 72.5z" />
<glyph unicode="&#x201c;" horiz-adv-x="784" d="M66 1114l108 385q19 64 80 64q44 0 64.5 -30t9.5 -73l-92 -346h-170zM424 1114l108 385q19 64 80 64q44 0 64.5 -30t9.5 -73l-92 -346h-170z" />
<glyph unicode="&#x201d;" horiz-adv-x="784" d="M78 1204l94 359h170l-111 -398q-18 -63 -79 -63q-45 0 -65 29.5t-9 72.5zM436 1204l94 359h170l-110 -398q-18 -63 -80 -63q-45 0 -65 29.5t-9 72.5z" />
<glyph unicode="&#x201e;" horiz-adv-x="784" d="M74 -160l98 373h170l-115 -412q-18 -63 -80 -63q-44 0 -64 29.5t-9 72.5zM432 -160l98 373h170l-114 -412q-18 -63 -80 -63q-45 0 -65 29.5t-9 72.5z" />
<glyph unicode="&#x2020;" d="M129 852v192l420 -34l-39 514h195l-37 -514l413 34v-192l-417 37l41 -1270h-195l41 1270z" />
<glyph unicode="&#x2021;" d="M129 100v193l434 -35l-53 313l53 318l-434 -37v192l420 -34l-39 514h195l-37 -514l413 34v-192l-430 37l54 -318l-54 -313l430 35v-193l-413 37l37 -518h-195l39 518z" />
<glyph unicode="&#x2022;" horiz-adv-x="886" d="M199 682q0 130 65.5 202t181.5 72q118 0 184 -72t66 -202t-66 -202t-184 -72q-116 0 -181.5 72t-65.5 202z" />
<glyph unicode="&#x2026;" horiz-adv-x="1277" d="M113 96q0 54 27.5 84.5t74.5 30.5t74.5 -30.5t27.5 -84.5t-27 -84t-75 -30t-75 30t-27 84zM539 96q0 54 27.5 84.5t74.5 30.5t74.5 -30.5t27.5 -84.5t-27 -84t-75 -30t-75 30t-27 84zM965 96q0 54 27.5 84.5t74.5 30.5t74.5 -30.5t27.5 -84.5t-27 -84t-75 -30t-75 30 t-27 84z" />
<glyph unicode="&#x202f;" horiz-adv-x="398" />
<glyph unicode="&#x2030;" horiz-adv-x="1787" d="M68 1057v237q0 114 60 178t173 64q112 0 169.5 -64t57.5 -180v-231q0 -119 -57 -182.5t-170 -63.5t-173 64t-60 178zM143 0l783 1524h137l-780 -1524h-140zM188 1061q0 -139 111 -139t111 139v229q0 140 -111 140t-111 -140v-229zM680 231v238q0 114 60 178t173 64 q112 0 170 -64t58 -180v-231q0 -118 -57.5 -182t-170.5 -64t-173 63.5t-60 177.5zM801 236q0 -140 110 -140q111 0 111 140v229q0 139 -111 139q-110 0 -110 -139v-229zM1260 231v238q0 114 60 178t173 64q112 0 169.5 -64t57.5 -180v-231q0 -119 -57 -182.5t-170 -63.5 t-173 63.5t-60 177.5zM1380 236q0 -140 111 -140t111 140v229q0 139 -111 139t-111 -139v-229z" />
<glyph unicode="&#x2039;" horiz-adv-x="716" d="M109 575q0 52 45 97l297 289h194l-391 -386l391 -385h-194l-297 289q-45 45 -45 96z" />
<glyph unicode="&#x203a;" horiz-adv-x="716" d="M72 190l391 385l-391 386h194l297 -289q45 -45 45 -97q0 -51 -45 -96l-297 -289h-194z" />
<glyph unicode="&#x2044;" horiz-adv-x="40" d="M-440 0l784 1524h137l-782 -1524h-139z" />
<glyph unicode="&#x205f;" horiz-adv-x="498" />
<glyph unicode="&#x2070;" horiz-adv-x="604" d="M68 1255v238q0 114 60 178t173 64q112 0 169.5 -64t57.5 -180v-231q0 -119 -57 -182.5t-170 -63.5t-173 63.5t-60 177.5zM188 1260q0 -140 111 -140t111 140v229q0 139 -111 139t-111 -139v-229z" />
<glyph unicode="&#x2074;" horiz-adv-x="604" d="M41 1214q0 27 18 52l281 426q25 41 78 41q71 0 71 -70v-410h78v-106h-78v-123h-118v123h-262q-33 0 -50.5 18.5t-17.5 48.5zM193 1253h178v273z" />
<glyph unicode="&#x2075;" horiz-adv-x="604" d="M57 1069l25 107l68 -21q92 -29 145 -29q63 0 96 35.5t33 95.5q0 125 -131 125q-45 0 -105 -16l-96 -27v385h422v-110h-307v-135q49 12 96 12q113 0 176.5 -58.5t63.5 -175.5q0 -110 -66 -175.5t-180 -65.5q-93 0 -178 31z" />
<glyph unicode="&#x2076;" horiz-adv-x="604" d="M70 1260v241q0 102 61.5 167t167.5 65q67 0 178 -29l62 -16l-21 -109l-76 20q-91 25 -141 25q-108 0 -108 -123v-31q77 21 114 21q120 0 181 -60t61 -174q0 -106 -61.5 -172.5t-174.5 -66.5q-114 0 -178.5 66.5t-64.5 175.5zM193 1266q0 -66 31.5 -104t90.5 -38 q55 0 85 36t30 97q0 123 -131 123q-39 0 -106 -16v-98z" />
<glyph unicode="&#x2077;" horiz-adv-x="604" d="M68 1616v108h405q35 0 55.5 -18t20.5 -47q0 -18 -10 -45l-250 -590h-129l252 592h-344z" />
<glyph unicode="&#x2078;" horiz-adv-x="604" d="M55 1210q0 76 54 133l34 37l-28 39q-41 56 -41 127q0 87 60.5 138t166.5 51q109 0 170 -51t61 -138q0 -72 -40 -127l-27 -39l33 -37q55 -64 55 -133q0 -90 -66.5 -143t-181.5 -53q-114 0 -182 53.5t-68 142.5zM176 1210q0 -41 32.5 -64.5t94.5 -23.5q63 0 95 23.5 t32 64.5q0 33 -31 72l-37 43h-118l-39 -43q-29 -32 -29 -72zM195 1546q0 -39 24 -78l27 -41h114l27 39q27 39 27 80q0 35 -28 57.5t-83 22.5q-54 0 -81 -22.5t-27 -57.5z" />
<glyph unicode="&#x2079;" horiz-adv-x="604" d="M59 1493q0 106 61.5 173t174.5 67q114 0 179 -66.5t65 -175.5v-242q0 -102 -61.5 -166.5t-168.5 -64.5q-67 0 -178 29l-61 16l20 108l76 -20q91 -25 141 -25q109 0 109 123v31q-73 -20 -115 -20q-120 0 -181 59.5t-61 173.5zM178 1493q0 -123 131 -123q40 0 107 16v99 q0 66 -32 103.5t-91 37.5q-55 0 -85 -36t-30 -97z" />
<glyph unicode="&#x207a;" horiz-adv-x="604" d="M59 1280v109h177v186h118v-186h178v-109h-178v-188h-118v188h-177z" />
<glyph unicode="&#x207b;" horiz-adv-x="604" d="M61 1280v111h469v-111h-469z" />
<glyph unicode="&#x207c;" horiz-adv-x="604" d="M59 1194v106h473v-106h-473zM59 1364v111h473v-111h-473z" />
<glyph unicode="&#x207d;" horiz-adv-x="317" d="M37 1348q0 95 15.5 165.5t39.5 111t59.5 64.5t68 32t71.5 8v-103q-18 -2 -32 -6.5t-34 -21.5t-33 -45t-22.5 -81t-9.5 -124q0 -74 9.5 -129t22.5 -83.5t33 -46t34 -22t32 -6.5v-103q-29 0 -56 6t-57 21t-54 44t-44.5 70t-31.5 105t-11 144z" />
<glyph unicode="&#x207e;" horiz-adv-x="317" d="M25 958v103q17 2 31 6.5t34 22t33.5 46t23 83.5t9.5 129q0 71 -9.5 124t-23 81t-33.5 45t-34 21.5t-31 6.5v103q39 0 71.5 -8t67 -32t58 -64.5t39 -111t15.5 -165.5q0 -80 -11 -144t-31.5 -105t-44.5 -70t-54 -44t-56 -21t-54 -6z" />
<glyph unicode="&#x207f;" horiz-adv-x="798" d="M117 844v555q0 39 23 66t61 36q124 29 209 29q134 0 198 -69t64 -181v-436h-125v428q0 69 -33.5 107t-114.5 38q-65 0 -157 -22v-551h-125z" />
<glyph unicode="&#x2080;" horiz-adv-x="604" d="M68 27v237q0 114 60 178t173 64q112 0 169.5 -64t57.5 -180v-231q0 -119 -57 -182.5t-170 -63.5t-173 64t-60 178zM188 31q0 -140 111 -140t111 140v229q0 139 -111 139t-111 -139v-229z" />
<glyph unicode="&#x2081;" horiz-adv-x="604" d="M61 -96h203v481h-22q-60 0 -115 -27l-33 107q64 31 144 31h61q44 0 67 -22t23 -62v-508h162v-109h-490v109z" />
<glyph unicode="&#x2082;" horiz-adv-x="604" d="M63 -137q0 32 31 59l232 217q50 48 69 81t19 81q0 94 -107 94q-71 0 -153 -28l-66 -23l-25 107l62 20q101 35 184 35q96 0 159.5 -50.5t63.5 -156.5q0 -123 -124 -236l-175 -161h302v-107h-400q-33 0 -52.5 18.5t-19.5 49.5z" />
<glyph unicode="&#x2083;" horiz-adv-x="604" d="M53 -162l25 111l65 -21q107 -32 170 -32q113 0 113 88q0 44 -31 75l-37 37h-141v105h141l27 39q25 36 25 75q0 80 -101 80q-69 0 -151 -26l-68 -23l-22 107l61 20q100 33 182 33q106 0 161.5 -49t55.5 -138q0 -71 -41 -126l-28 -39l35 -37q55 -61 55 -131 q0 -90 -65 -144.5t-171 -54.5q-81 0 -196 33z" />
<glyph unicode="&#x2084;" horiz-adv-x="604" d="M41 -14q0 26 18 51l281 426q25 41 78 41q71 0 71 -70v-409h78v-107h-78v-123h-118v123h-262q-33 0 -50.5 19t-17.5 49zM193 25h178v272z" />
<glyph unicode="&#x2085;" horiz-adv-x="604" d="M57 -160l25 107l68 -21q89 -28 145 -28q63 0 96 35.5t33 95.5q0 125 -131 125q-41 0 -105 -17l-96 -26v385h422v-111h-307v-135q49 12 96 12q114 0 177 -58t63 -175q0 -110 -66 -176t-180 -66q-93 0 -178 31z" />
<glyph unicode="&#x2086;" horiz-adv-x="604" d="M70 31v241q0 102 61.5 167t167.5 65q67 0 178 -29l62 -16l-21 -109l-76 21q-87 24 -141 24q-108 0 -108 -123v-30q73 20 114 20q120 0 181 -59.5t61 -173.5q0 -106 -61.5 -173t-174.5 -67q-114 0 -178.5 66.5t-64.5 175.5zM193 37q0 -66 31.5 -103.5t90.5 -37.5 q55 0 85 36t30 97q0 123 -131 123q-34 0 -106 -17v-98z" />
<glyph unicode="&#x2087;" horiz-adv-x="604" d="M68 387v109h405q35 0 55.5 -18t20.5 -48q0 -18 -10 -45l-250 -590h-129l252 592h-344z" />
<glyph unicode="&#x2088;" horiz-adv-x="604" d="M55 -18q0 76 54 133l34 37l-28 38q-41 56 -41 127q0 87 60.5 138t166.5 51q109 0 170 -51t61 -138q0 -72 -40 -127l-27 -38l33 -37q55 -64 55 -133q0 -90 -66.5 -143.5t-181.5 -53.5q-114 0 -182 54t-68 143zM176 -18q0 -41 32.5 -64.5t94.5 -23.5q63 0 95 23.5t32 64.5 q0 32 -31 71l-37 43h-118l-39 -43q-29 -32 -29 -71zM195 317q0 -38 24 -77l27 -41h114l27 39q27 39 27 79q0 35 -28 57.5t-83 22.5q-54 0 -81 -22.5t-27 -57.5z" />
<glyph unicode="&#x2089;" horiz-adv-x="604" d="M59 264q0 106 61.5 173t174.5 67q114 0 179 -66.5t65 -175.5v-242q0 -102 -61.5 -166.5t-168.5 -64.5q-67 0 -178 29l-61 16l20 109l76 -21q87 -24 141 -24q109 0 109 122v31q-73 -20 -115 -20q-120 0 -181 59.5t-61 173.5zM178 264q0 -123 131 -123q35 0 107 17v98 q0 66 -32 103.5t-91 37.5q-55 0 -85 -36t-30 -97z" />
<glyph unicode="&#x208d;" horiz-adv-x="317" d="M37 119q0 95 15.5 165.5t39.5 111t59.5 64.5t68 32t71.5 8v-103q-18 -2 -32 -6.5t-34 -21.5t-33 -45t-22.5 -81t-9.5 -124q0 -74 9.5 -129t22.5 -83.5t33 -46t34 -22t32 -6.5v-102q-36 0 -67.5 8t-67 33.5t-61 66.5t-42 113.5t-16.5 167.5z" />
<glyph unicode="&#x208e;" horiz-adv-x="317" d="M25 -168q17 2 31 6.5t34 22t33.5 46t23 83.5t9.5 129q0 71 -9.5 124t-23 81t-33.5 45t-34 21.5t-31 6.5v103q39 0 71.5 -8t67 -32t58 -64.5t39 -111t15.5 -165.5t-16.5 -167.5t-42 -113.5t-60.5 -66.5t-66 -33.5t-66 -8v102z" />
<glyph unicode="&#x20ac;" d="M61 555v135h156v146h-156v135h156q0 274 142 422.5t376 148.5q101 0 314 -57l90 -25l-29 -143l-92 24q-197 52 -279 52q-178 0 -269 -102t-91 -320h508v-135h-510v-146h510v-135h-508q0 -218 91 -320t269 -102q86 0 279 51l92 25l29 -143l-90 -25q-213 -57 -314 -57 q-234 0 -376 148.5t-142 422.5h-156z" />
<glyph unicode="&#x2113;" horiz-adv-x="800" d="M31 434l151 115v244q0 127 16 234t49 192.5t88.5 133.5t129.5 48q91 0 138.5 -75t47.5 -181q0 -108 -41.5 -210.5t-105 -184t-160.5 -172.5v-168q0 -185 46.5 -257.5t141.5 -72.5q130 0 230 149l39 -34q-128 -220 -342 -220q-70 0 -118.5 16t-85.5 55.5t-55 110 t-18 175.5v147l-125 -92zM344 662q91 106 146 229t55 248q0 86 -26 143t-73 57q-57 0 -79.5 -98t-22.5 -330v-249z" />
<glyph unicode="&#x2122;" horiz-adv-x="1779" d="M121 1415v109h624v-109h-249v-731h-127v731h-248zM889 684v774q0 35 24.5 55.5t59.5 20.5q74 0 94 -61l199 -627l200 622q18 60 93 60q40 0 61.5 -18t21.5 -52v-774h-112v625l-197 -580q-15 -45 -69 -45q-55 0 -70 45l-195 574v-619h-110z" />
<glyph unicode="&#x2126;" horiz-adv-x="1624" d="M113 0v129h407q-9 4 -23.5 12t-56.5 37.5t-80.5 64.5t-85.5 94t-81 124.5t-57 157.5t-23 192q0 167 54.5 304.5t149 228t222 139.5t274.5 49t274 -48.5t221.5 -138.5t148.5 -227.5t54 -306.5q0 -78 -14 -152t-37.5 -131.5t-54 -110.5t-64 -92t-67.5 -72.5t-64.5 -55.5 t-54 -38t-37.5 -23l-14 -7h407v-129h-491q-96 0 -96 92q0 28 14.5 53.5t38.5 38.5q168 95 271.5 255t103.5 372q0 273 -150.5 428.5t-388.5 155.5t-389.5 -155.5t-151.5 -428.5q0 -212 103.5 -372t271.5 -255q24 -13 38.5 -38.5t14.5 -53.5q0 -92 -96 -92h-491z" />
<glyph unicode="&#x212e;" horiz-adv-x="1560" d="M59 627q0 175 96.5 324t262.5 236t360 87q149 0 283.5 -53t230 -142.5t151.5 -212.5t56 -258h-1165q-10 0 -10 -8v-352q0 -23 16 -39q156 -162 440 -162q304 0 463 184h105q-98 -116 -248.5 -182.5t-321.5 -66.5q-194 0 -360 86.5t-262.5 235t-96.5 323.5zM324 686 q0 -12 10 -12h893q8 0 8 12v324q0 23 -18 41q-166 163 -437 163t-438 -170q-18 -15 -18 -43v-315z" />
<glyph unicode="&#x2153;" d="M51 823v109h203v481h-23q-59 0 -114 -27l-33 107q64 31 143 31h62q44 0 67 -22t23 -62v-508h162v-109h-490zM152 0l784 1524h137l-782 -1524h-139zM657 43l25 111l66 -21q111 -33 170 -33q112 0 112 88q0 45 -31 76l-36 37h-142v105h142l26 38q25 36 25 76q0 80 -101 80 q-65 0 -151 -27l-68 -22l-22 106l61 21q100 33 182 33q106 0 162 -49t56 -138q0 -72 -41 -127l-29 -39l35 -36q55 -61 55 -132q0 -90 -64.5 -144t-170.5 -54q-82 0 -197 33z" />
<glyph unicode="&#x2154;" d="M53 891q0 32 31 59l231 217q50 48 69 81t19 81q0 94 -106 94q-72 0 -154 -28l-65 -23l-25 107l62 20q101 35 184 35q96 0 159.5 -50.5t63.5 -156.5q0 -121 -125 -235l-174 -162h301v-107h-399q-33 0 -52.5 18.5t-19.5 49.5zM147 0l785 1524h137l-782 -1524h-140zM657 43 l25 111l66 -21q111 -33 170 -33q112 0 112 88q0 45 -31 76l-36 37h-142v105h142l26 38q25 36 25 76q0 80 -101 80q-65 0 -151 -27l-68 -22l-22 106l61 21q100 33 182 33q106 0 162 -49t56 -138q0 -72 -41 -127l-29 -39l35 -36q55 -61 55 -132q0 -90 -64.5 -144t-170.5 -54 q-82 0 -197 33z" />
<glyph unicode="&#x2155;" d="M51 823v109h203v481h-23q-59 0 -114 -27l-33 107q64 31 143 31h62q44 0 67 -22t23 -62v-508h162v-109h-490zM152 0l784 1524h137l-782 -1524h-139zM662 45l24 107l68 -21q92 -29 145 -29q63 0 96 35.5t33 95.5q0 125 -131 125q-44 0 -104 -16l-97 -27v385h422v-110h-307 v-135q49 12 96 12q113 0 176.5 -58.5t63.5 -175.5q0 -110 -66 -175.5t-180 -65.5q-93 0 -178 31z" />
<glyph unicode="&#x2156;" d="M53 891q0 32 31 59l231 217q50 48 69 81t19 81q0 94 -106 94q-72 0 -154 -28l-65 -23l-25 107l62 20q101 35 184 35q96 0 159.5 -50.5t63.5 -156.5q0 -121 -125 -235l-174 -162h301v-107h-399q-33 0 -52.5 18.5t-19.5 49.5zM150 0l784 1524h137l-782 -1524h-139zM662 45 l24 107l68 -21q92 -29 145 -29q63 0 96 35.5t33 95.5q0 125 -131 125q-44 0 -104 -16l-97 -27v385h422v-110h-307v-135q49 12 96 12q113 0 176.5 -58.5t63.5 -175.5q0 -110 -66 -175.5t-180 -65.5q-93 0 -178 31z" />
<glyph unicode="&#x2157;" d="M43 866l25 111l65 -21q107 -32 170 -32q113 0 113 88q0 44 -31 75l-37 37h-141v105h141l27 39q24 34 24 75q0 80 -100 80q-70 0 -152 -26l-67 -23l-23 107l62 20q100 33 182 33q106 0 161.5 -48.5t55.5 -137.5q0 -72 -41 -127l-28 -39l34 -37q56 -62 56 -131 q0 -90 -65 -144.5t-171 -54.5q-81 0 -197 33zM135 0l785 1524h137l-783 -1524h-139zM662 45l24 107l68 -21q92 -29 145 -29q63 0 96 35.5t33 95.5q0 125 -131 125q-44 0 -104 -16l-97 -27v385h422v-110h-307v-135q49 12 96 12q113 0 176.5 -58.5t63.5 -175.5 q0 -110 -66 -175.5t-180 -65.5q-93 0 -178 31z" />
<glyph unicode="&#x2158;" d="M31 1014q0 26 18 51l281 426q25 41 78 41q71 0 71 -70v-409h78v-107h-78v-123h-119v123h-262q-33 0 -50 18.5t-17 49.5zM147 0l785 1524h137l-782 -1524h-140zM182 1053h178v272zM662 45l24 107l68 -21q92 -29 145 -29q63 0 96 35.5t33 95.5q0 125 -131 125 q-44 0 -104 -16l-97 -27v385h422v-110h-307v-135q49 12 96 12q113 0 176.5 -58.5t63.5 -175.5q0 -110 -66 -175.5t-180 -65.5q-93 0 -178 31z" />
<glyph unicode="&#x2159;" d="M51 823v109h203v481h-23q-59 0 -114 -27l-33 107q64 31 143 31h62q44 0 67 -22t23 -62v-508h162v-109h-490zM162 0l784 1524h137l-782 -1524h-139zM674 236v241q0 102 61.5 167t167.5 65q67 0 178 -29l62 -16l-21 -109l-75 20q-91 25 -142 25q-108 0 -108 -123v-31 q77 21 114 21q120 0 181 -60t61 -174q0 -106 -61 -172.5t-174 -66.5q-114 0 -179 66.5t-65 175.5zM797 242q0 -66 32 -104t91 -38q55 0 84.5 36t29.5 97q0 123 -131 123q-39 0 -106 -16v-98z" />
<glyph unicode="&#x215a;" d="M47 868l25 107l67 -21q89 -28 146 -28q63 0 96 35.5t33 95.5q0 125 -131 125q-41 0 -105 -17l-96 -26v385h422v-111h-307v-135q49 12 96 12q114 0 176.5 -58t62.5 -175q0 -110 -65.5 -176t-179.5 -66q-93 0 -178 31zM141 0l785 1524h137l-782 -1524h-140zM674 236v241 q0 102 61.5 167t167.5 65q67 0 178 -29l62 -16l-21 -109l-75 20q-91 25 -142 25q-108 0 -108 -123v-31q77 21 114 21q120 0 181 -60t61 -174q0 -106 -61 -172.5t-174 -66.5q-114 0 -179 66.5t-65 175.5zM797 242q0 -66 32 -104t91 -38q55 0 84.5 36t29.5 97q0 123 -131 123 q-39 0 -106 -16v-98z" />
<glyph unicode="&#x215b;" d="M51 823v109h203v481h-23q-59 0 -114 -27l-33 107q64 31 143 31h62q44 0 67 -22t23 -62v-508h162v-109h-490zM172 0l784 1524h138l-783 -1524h-139zM659 186q0 76 54 133l35 37l-29 39q-41 56 -41 127q0 87 60.5 138t166.5 51q109 0 170.5 -51t61.5 -138q0 -71 -41 -127 l-27 -39l33 -37q55 -64 55 -133q0 -90 -66.5 -143t-181.5 -53q-114 0 -182 53.5t-68 142.5zM780 186q0 -41 32.5 -64.5t94.5 -23.5q63 0 95 23.5t32 64.5q0 34 -30 72l-37 43h-119l-39 -43q-29 -32 -29 -72zM799 522q0 -39 24 -78l27 -41h115l26 39q27 39 27 80 q0 35 -28 57.5t-83 22.5q-54 0 -81 -22.5t-27 -57.5z" />
<glyph unicode="&#x215c;" d="M43 866l25 111l65 -21q107 -32 170 -32q113 0 113 88q0 44 -31 75l-37 37h-141v105h141l27 39q24 34 24 75q0 80 -100 80q-70 0 -152 -26l-67 -23l-23 107l62 20q100 33 182 33q106 0 161.5 -48.5t55.5 -137.5q0 -72 -41 -127l-28 -39l34 -37q56 -62 56 -131 q0 -90 -65 -144.5t-171 -54.5q-81 0 -197 33zM143 0l785 1524h137l-782 -1524h-140zM659 186q0 76 54 133l35 37l-29 39q-41 56 -41 127q0 87 60.5 138t166.5 51q109 0 170.5 -51t61.5 -138q0 -71 -41 -127l-27 -39l33 -37q55 -64 55 -133q0 -90 -66.5 -143t-181.5 -53 q-114 0 -182 53.5t-68 142.5zM780 186q0 -41 32.5 -64.5t94.5 -23.5q63 0 95 23.5t32 64.5q0 34 -30 72l-37 43h-119l-39 -43q-29 -32 -29 -72zM799 522q0 -39 24 -78l27 -41h115l26 39q27 39 27 80q0 35 -28 57.5t-83 22.5q-54 0 -81 -22.5t-27 -57.5z" />
<glyph unicode="&#x215d;" d="M47 868l25 107l67 -21q89 -28 146 -28q63 0 96 35.5t33 95.5q0 125 -131 125q-41 0 -105 -17l-96 -26v385h422v-111h-307v-135q49 12 96 12q114 0 176.5 -58t62.5 -175q0 -110 -65.5 -176t-179.5 -66q-93 0 -178 31zM143 0l785 1524h137l-782 -1524h-140zM659 186 q0 76 54 133l35 37l-29 39q-41 56 -41 127q0 87 60.5 138t166.5 51q109 0 170.5 -51t61.5 -138q0 -71 -41 -127l-27 -39l33 -37q55 -64 55 -133q0 -90 -66.5 -143t-181.5 -53q-114 0 -182 53.5t-68 142.5zM780 186q0 -41 32.5 -64.5t94.5 -23.5q63 0 95 23.5t32 64.5 q0 34 -30 72l-37 43h-119l-39 -43q-29 -32 -29 -72zM799 522q0 -39 24 -78l27 -41h115l26 39q27 39 27 80q0 35 -28 57.5t-83 22.5q-54 0 -81 -22.5t-27 -57.5z" />
<glyph unicode="&#x215e;" d="M57 1415v109h406q35 0 55.5 -18t20.5 -48q0 -16 -11 -45l-249 -590h-129l251 592h-344zM117 0l784 1524h137l-782 -1524h-139zM659 186q0 76 54 133l35 37l-29 39q-41 56 -41 127q0 87 60.5 138t166.5 51q109 0 170.5 -51t61.5 -138q0 -71 -41 -127l-27 -39l33 -37 q55 -64 55 -133q0 -90 -66.5 -143t-181.5 -53q-114 0 -182 53.5t-68 142.5zM780 186q0 -41 32.5 -64.5t94.5 -23.5q63 0 95 23.5t32 64.5q0 34 -30 72l-37 43h-119l-39 -43q-29 -32 -29 -72zM799 522q0 -39 24 -78l27 -41h115l26 39q27 39 27 80q0 35 -28 57.5t-83 22.5 q-54 0 -81 -22.5t-27 -57.5z" />
<glyph unicode="&#x215f;" horiz-adv-x="604" d="M51 823v109h203v481h-23q-59 0 -114 -27l-33 107q64 31 143 31h62q44 0 67 -22t23 -62v-508h162v-109h-490zM143 0l785 1524h137l-782 -1524h-140z" />
<glyph unicode="&#x2202;" d="M111 485q0 229 130 358.5t369 129.5q132 0 332 -64v142q0 162 -79 252t-240 90q-108 0 -363 -68l-90 -25l-31 142l88 24q256 70 400 70q218 0 342.5 -135t124.5 -350v-553q0 -230 -133 -370t-363 -140q-233 0 -360 136t-127 361zM264 485q0 -165 89 -262.5t249 -97.5 q166 0 253 101.5t87 279.5v268q-221 57 -319 57q-359 0 -359 -346z" />
<glyph unicode="&#x2206;" d="M31 0l444 1452q30 86 123 86q92 0 123 -84l457 -1454h-1147zM240 131h731l-375 1217z" />
<glyph unicode="&#x220f;" horiz-adv-x="1359" d="M66 1382v142h1228v-142h-241v-1382h-166v1382h-414v-1382h-166v1382h-241z" />
<glyph unicode="&#x2211;" d="M80 -268q0 47 31 90l548 756l-548 757q-31 43 -31 90q0 43 28.5 71t73.5 28h932v-342h-147v194h-695l584 -796l-584 -799h715v217h148v-365h-953q-45 0 -73.5 28t-28.5 71z" />
<glyph unicode="&#x2212;" d="M123 532v148h962v-148h-962z" />
<glyph unicode="&#x2215;" horiz-adv-x="40" d="M-440 0l784 1524h137l-782 -1524h-139z" />
<glyph unicode="&#x2219;" horiz-adv-x="765" d="M285 752q0 54 27 84t75 30t75 -30t27 -84t-27.5 -84.5t-74.5 -30.5t-74.5 30.5t-27.5 84.5z" />
<glyph unicode="&#x221a;" d="M20 977v137h283l262 -903l314 1313h333v-138h-213l-333 -1327q-24 -82 -103 -82t-104 82l-285 918h-154z" />
<glyph unicode="&#x221e;" horiz-adv-x="1640" d="M98 608q0 197 94.5 315.5t270.5 118.5q121 0 213 -47l147 -75l150 75q92 47 213 47q174 0 269 -118.5t95 -315.5q0 -193 -96.5 -313.5t-267.5 -120.5q-123 0 -213 47l-146 78l-151 -78q-90 -47 -213 -47q-172 0 -268.5 120.5t-96.5 313.5zM231 608q0 -150 64 -225.5 t168 -75.5q85 0 176 39l121 51v422l-121 51q-89 39 -176 39q-107 0 -169.5 -74.5t-62.5 -226.5zM889 397l121 -51q91 -39 176 -39q104 0 167.5 75.5t63.5 225.5q0 152 -62.5 226.5t-168.5 74.5q-87 0 -176 -39l-121 -51v-422z" />
<glyph unicode="&#x222b;" d="M250 -240q101 3 144.5 58.5t43.5 171.5v1222q0 172 86 263.5t242 91.5q67 0 229 -33l-22 -139q-142 32 -209 32q-95 0 -135.5 -53t-40.5 -172v-1218q0 -172 -88.5 -263.5t-249.5 -91.5v131z" />
<glyph unicode="&#x2248;" d="M94 719q49 122 128.5 177.5t172.5 55.5q99 0 187 -61l127 -90q53 -39 104 -39q53 0 96.5 35.5t83.5 130.5l117 -78q-25 -63 -59.5 -109.5t-74 -73t-80.5 -39t-85 -12.5q-97 0 -186 62l-127 90q-53 39 -105 39q-54 0 -98 -35.5t-84 -130.5zM113 377q49 122 128.5 177.5 t172.5 55.5q98 0 186 -61l127 -90q53 -39 104 -39q54 0 97.5 35.5t83.5 130.5l116 -78q-25 -63 -59.5 -109.5t-74 -73t-80.5 -39t-85 -12.5q-97 0 -186 62l-127 90q-53 39 -104 39q-54 0 -98.5 -35.5t-84.5 -130.5z" />
<glyph unicode="&#x2260;" d="M121 369v145h395l90 197h-485v145h543l147 318h109l-148 -318h318v-145h-375l-88 -197h463v-145h-527l-135 -285h-111l136 285h-332z" />
<glyph unicode="&#x2264;" d="M104 657q0 77 76 105l924 321v-170l-825 -260l825 -258v-164l-924 320q-76 25 -76 106zM131 0v137h969v-137h-969z" />
<glyph unicode="&#x2265;" d="M104 231v164l826 258l-826 260v170l924 -321q76 -28 76 -105q0 -81 -76 -106zM109 0v137h968v-137h-968z" />
<glyph unicode="&#x25ca;" d="M41 762l453 729q42 57 112 57t109 -57l452 -729l-452 -729q-42 -60 -113 -60q-68 0 -108 60zM213 762l397 -643l391 643l-391 645z" />
<glyph unicode="&#xe000;" horiz-adv-x="1116" d="M0 0v1116h1116v-1116h-1116z" />
<glyph unicode="&#xf6c3;" horiz-adv-x="1085" d="M455 -317l55 213h168l-70 -252q-16 -64 -86 -64q-39 0 -59 29t-8 74z" />
<glyph unicode="&#xfb04;" horiz-adv-x="1896" d="M41 956v138h182v118q0 175 89.5 265t254.5 90q103 0 196 -21t232 -69q87 90 242 90q97 0 352 -37l154 45v-1575h-152v1393q-237 34 -356 34q-95 0 -135.5 -53t-40.5 -172v-108h354v-138h-354v-956h-150v956h-536v-956h-150v956h-182zM373 1094h536v118q0 86 21 150 q-116 40 -197 57t-166 17q-103 0 -148.5 -56.5t-45.5 -177.5v-108z" />
<glyph horiz-adv-x="604" d="M68 231v238q0 114 60 178t173 64q112 0 169.5 -64t57.5 -180v-231q0 -119 -57 -182.5t-170 -63.5t-173 63.5t-60 177.5zM188 236q0 -140 111 -140t111 140v229q0 139 -111 139t-111 -139v-229z" />
<glyph horiz-adv-x="604" d="M61 0v109h203v481h-22q-60 0 -115 -27l-33 107q62 30 144 30h61q44 0 67 -22t23 -62v-507h162v-109h-490z" />
<glyph horiz-adv-x="604" d="M63 68q0 32 31 59l232 217q50 48 69 81t19 81q0 94 -107 94q-68 0 -153 -29l-66 -22l-25 106l62 21q101 35 184 35q96 0 159.5 -50.5t63.5 -156.5q0 -123 -124 -236l-175 -162h302v-106h-400q-33 0 -52.5 18.5t-19.5 49.5z" />
<glyph horiz-adv-x="604" d="M53 43l25 111l65 -21q111 -33 170 -33q113 0 113 88q0 45 -31 76l-37 37h-141v105h141l27 38q25 36 25 76q0 80 -101 80q-65 0 -151 -27l-68 -22l-22 106l61 21q100 33 182 33q106 0 161.5 -49t55.5 -138q0 -72 -41 -127l-28 -39l35 -36q55 -61 55 -132q0 -90 -65 -144 t-171 -54q-81 0 -196 33z" />
<glyph horiz-adv-x="604" d="M41 190q0 27 18 52l281 426q25 41 78 41q71 0 71 -70v-410h78v-106h-78v-123h-118v123h-262q-33 0 -50.5 18.5t-17.5 48.5zM193 229h178v273z" />
<glyph horiz-adv-x="604" d="M57 45l25 107l68 -21q92 -29 145 -29q63 0 96 35.5t33 95.5q0 125 -131 125q-45 0 -105 -16l-96 -27v385h422v-110h-307v-135q49 12 96 12q113 0 176.5 -58.5t63.5 -175.5q0 -110 -66 -175.5t-180 -65.5q-93 0 -178 31z" />
<glyph horiz-adv-x="604" d="M70 236v241q0 102 61.5 167t167.5 65q67 0 178 -29l62 -16l-21 -109l-76 20q-91 25 -141 25q-108 0 -108 -123v-31q77 21 114 21q120 0 181 -60t61 -174q0 -106 -61.5 -172.5t-174.5 -66.5q-114 0 -178.5 66.5t-64.5 175.5zM193 242q0 -66 31.5 -104t90.5 -38q55 0 85 36 t30 97q0 123 -131 123q-39 0 -106 -16v-98z" />
<glyph horiz-adv-x="604" d="M68 592v108h405q35 0 55.5 -18t20.5 -47q0 -18 -10 -45l-250 -590h-129l252 592h-344z" />
<glyph horiz-adv-x="604" d="M55 186q0 76 54 133l34 37l-28 39q-41 56 -41 127q0 87 60.5 138t166.5 51q109 0 170 -51t61 -138q0 -72 -40 -127l-27 -39l33 -37q55 -64 55 -133q0 -90 -66.5 -143t-181.5 -53q-114 0 -182 53.5t-68 142.5zM176 186q0 -41 32.5 -64.5t94.5 -23.5q63 0 95 23.5t32 64.5 q0 33 -31 72l-37 43h-118l-39 -43q-29 -32 -29 -72zM195 522q0 -39 24 -78l27 -41h114l27 39q27 39 27 80q0 35 -28 57.5t-83 22.5q-54 0 -81 -22.5t-27 -57.5z" />
<glyph horiz-adv-x="604" d="M59 469q0 106 61.5 173t174.5 67q114 0 179 -66.5t65 -175.5v-242q0 -102 -61.5 -166.5t-168.5 -64.5q-67 0 -178 29l-61 16l20 108l76 -20q91 -25 141 -25q109 0 109 123v31q-73 -20 -115 -20q-120 0 -181 59.5t-61 173.5zM178 469q0 -123 131 -123q40 0 107 16v99 q0 66 -32 103.5t-91 37.5q-55 0 -85 -36t-30 -97z" />
<glyph horiz-adv-x="604" d="M66 262q0 108 48 176t130 86v117h118v-113q32 -5 91 -20l61 -16l-22 -109l-70 20q-76 21 -111 21q-125 0 -125 -162q0 -158 127 -158q42 0 103 15l78 20l20 -98l-61 -21q-49 -17 -91 -20v-117h-118v119q-83 18 -130.5 82.5t-47.5 177.5z" />
<glyph horiz-adv-x="604" d="M49 53l25 111l69 -27q92 -37 170 -37q46 0 79.5 24t33.5 71q0 69 -78 86l-119 28q-82 21 -128 70t-46 123q0 87 53.5 138.5t133.5 61.5v111h118v-111q53 -8 123 -32l66 -23l-27 -112l-71 26q-98 37 -160 37q-51 0 -83 -22.5t-32 -69.5q0 -68 76 -86l121 -29 q174 -43 174 -192q0 -87 -55 -140t-132 -61v-113h-118v113q-47 7 -127 33z" />
<glyph horiz-adv-x="604" d="M35 229v99h67v51h-67v96h67q4 122 71.5 180t180.5 58q54 0 144 -23l61 -18l-22 -113l-68 21q-66 20 -115 20q-62 0 -93 -26.5t-34 -98.5h219v-96h-219v-51h219v-99h-219q11 -125 127 -125q40 0 113 21l70 20l22 -110l-63 -21q-73 -22 -142 -22q-113 0 -180.5 57.5 t-71.5 179.5h-67z" />
<glyph horiz-adv-x="442" d="M59 256v111h316v-111h-316z" />
<glyph horiz-adv-x="604" d="M59 256v109h177v186h118v-186h178v-109h-178v-188h-118v188h-177z" />
<glyph horiz-adv-x="604" d="M61 256v111h469v-111h-469z" />
<glyph horiz-adv-x="604" d="M59 170v106h473v-106h-473zM59 340v111h473v-111h-473z" />
<glyph horiz-adv-x="317" d="M37 324q0 95 15.5 165.5t39.5 111t59.5 64.5t68 32t71.5 8v-103q-18 -2 -32 -6.5t-34 -21.5t-33 -45t-22.5 -81t-9.5 -124q0 -74 9.5 -129t22.5 -83.5t33 -46t34 -22t32 -6.5v-103q-29 0 -56 6t-57 21t-54 44t-44.5 70t-31.5 105t-11 144z" />
<glyph horiz-adv-x="317" d="M25 37q17 2 31 6.5t34 22t33.5 46t23 83.5t9.5 129q0 71 -9.5 124t-23 81t-33.5 45t-34 21.5t-31 6.5v103q39 0 71.5 -8t67 -32t58 -64.5t39 -111t15.5 -165.5q0 -80 -11 -144t-31.5 -105t-44.5 -70t-54 -44t-56 -21t-54 -6v103z" />
<glyph horiz-adv-x="253" d="M35 -55l49 194h129l-59 -225q-12 -45 -60 -45q-37 0 -52 21t-7 55z" />
<glyph horiz-adv-x="253" d="M55 66q0 71 70 71q72 0 72 -71q0 -35 -19 -54.5t-53 -19.5t-52 19.5t-18 54.5z" />
<glyph d="M61 350v135h154q-2 23 -2 72q0 47 2 70h-154v135h177q45 178 169.5 271t305.5 93q100 0 313 -57l90 -25l-29 -139l-92 25q-201 53 -276 53q-251 0 -322 -221h490v-135h-514q-2 -23 -2 -70q0 -49 2 -72h514v-135h-488q70 -219 322 -219q73 0 274 53l92 25l29 -139l-90 -25 q-213 -57 -313 -57q-186 0 -310 89t-167 273h-175z" />
<glyph d="M137 483v551q0 237 124 371.5t353 134.5t346 -134t117 -378v-539q0 -244 -117 -378t-346 -134t-353 134.5t-124 371.5zM287 492q0 -124 32 -201l494 1052q-78 60 -205 60q-321 0 -321 -377v-534zM403 174q74 -59 205 -59q322 0 322 377v534q0 123 -33 205z" />
<glyph d="M137 483v551q0 237 124 371.5t353 134.5t346 -134t117 -378v-539q0 -244 -117 -378t-346 -134t-353 134.5t-124 371.5zM287 492q0 -377 321 -377q322 0 322 377v534q0 377 -322 377q-321 0 -321 -377v-534z" />
<glyph d="M139 0v141h455v1239h-98q-158 0 -232 -37l-39 138q38 21 114.5 32t147.5 11h121q73 0 111.5 -36.5t38.5 -103.5v-1243h368v-141h-987z" />
<glyph d="M125 100q0 56 45 101l528 501q125 117 179.5 210t54.5 206q0 74 -24 128t-68 85t-97.5 45.5t-119.5 14.5q-137 0 -371 -70l-90 -27l-31 142l88 26q249 76 408 76q92 0 171.5 -23t144.5 -71.5t102.5 -133t37.5 -196.5q0 -125 -61 -247t-209 -259l-510 -473h784v-135h-866 q-45 0 -70.5 27.5t-25.5 72.5z" />
<glyph d="M102 86l33 141l94 -26q275 -76 402 -76q162 0 247 68t85 188q0 113 -89 205l-108 112h-291v136h293l84 116q68 93 68 209q0 109 -71 171.5t-224 62.5q-114 0 -369 -70l-90 -25l-31 142l88 24q265 74 404 74q217 0 330.5 -99t113.5 -278q0 -146 -84 -260l-94 -127 l115 -121q106 -115 106 -264q0 -184 -131 -294.5t-348 -110.5q-163 0 -440 77z" />
<glyph d="M74 385q0 35 35 88l651 993q46 70 123 70q106 0 106 -109v-1005h182v-135h-182v-287h-149v287h-670q-48 0 -72 26.5t-24 71.5zM252 422h588v901z" />
<glyph d="M123 80l31 141l90 -24q90 -25 134.5 -36t109.5 -22.5t114 -11.5q177 0 268 97t91 261q0 346 -363 346q-123 0 -264 -40l-144 -41v774h852v-148h-710v-450q168 47 286 47q232 0 362 -121.5t130 -366.5q0 -227 -136.5 -364t-369.5 -137q-85 0 -173 17t-220 54z" />
<glyph d="M129 498v553q0 215 124.5 350t342.5 135q143 0 399 -70l88 -24l-30 -142l-90 25q-255 68 -363 68q-161 0 -240 -90t-79 -252v-142q200 64 331 64q247 0 373.5 -126.5t126.5 -361.5q0 -221 -126 -359t-359 -138q-231 0 -364.5 140t-133.5 370zM281 506q0 -177 91.5 -279 t258.5 -102q159 0 243 96.5t84 263.5q0 344 -360 344q-104 0 -317 -55v-268z" />
<glyph d="M135 1384v140h881q51 0 78.5 -25t27.5 -69q0 -36 -22 -91l-557 -1339h-166l581 1384h-823z" />
<glyph d="M92 379q0 154 107 270l110 121l-90 127q-84 117 -84 258q0 178 125 281.5t342 103.5q223 0 348 -103.5t125 -281.5q0 -141 -84 -258l-90 -127l111 -121q106 -115 106 -270q0 -185 -136 -293.5t-372 -108.5q-237 0 -377.5 109t-140.5 293zM244 377q0 -119 94 -188.5 t268 -69.5q177 0 269 69t92 189q0 108 -88 205l-105 112h-338l-104 -112q-88 -97 -88 -205zM287 1155q0 -113 67 -209l80 -117h342l80 117q68 98 68 209q0 108 -80 175t-240 67q-159 0 -238 -67t-79 -175z" />
<glyph d="M102 1036q0 221 126.5 360.5t359.5 139.5q230 0 363.5 -140t133.5 -370v-553q0 -215 -124.5 -350t-342.5 -135q-147 0 -399 69l-88 25l31 141l90 -24q255 -68 362 -68q161 0 240.5 90t79.5 252v141q-197 -63 -332 -63q-248 0 -374 125t-126 360zM256 1036 q0 -342 360 -342q101 0 318 56v268q0 177 -91.5 279t-258.5 102q-159 0 -243.5 -98t-84.5 -265z" />
<glyph d="M133 557q0 245 110.5 388.5t301.5 172.5v260h147v-260q91 -8 254 -51l90 -25l-28 -139l-93 25q-201 53 -276 53q-348 0 -348 -424t350 -424q73 0 274 53l93 25l28 -139l-90 -25q-163 -43 -254 -51v-266h-147v266q-194 24 -303 163.5t-109 397.5z" />
<glyph d="M102 106l35 146l99 -35q261 -92 423 -92q59 0 112.5 15.5t98.5 47t72 85.5t27 124q0 103 -54.5 164t-175.5 90l-280 68q-348 83 -348 393q0 101 37 182.5t98.5 131t137 76t157.5 28.5v246h147v-252q121 -13 330 -84l96 -33l-35 -145l-98 34q-86 30 -140.5 47t-130.5 31.5 t-143 14.5q-61 0 -114.5 -15.5t-97.5 -46.5t-69.5 -85t-25.5 -124q0 -102 53 -162.5t174 -89.5l279 -67q352 -84 352 -396q0 -100 -36.5 -179.5t-98 -129t-136.5 -77t-159 -31.5v-250h-147v254q-130 13 -342 84z" />
<glyph d="M61 555v135h156v146h-156v135h156q0 274 142 422.5t376 148.5q101 0 314 -57l90 -25l-29 -143l-92 24q-197 52 -279 52q-178 0 -269 -102t-91 -320h508v-135h-510v-146h510v-135h-508q0 -218 91 -320t269 -102q86 0 279 51l92 25l29 -143l-90 -25q-213 -57 -314 -57 q-234 0 -376 148.5t-142 422.5h-156z" />
<glyph d="M137 483v144q0 237 124 371.5t353 134.5t346 -134t117 -378v-132q0 -244 -117 -378t-346 -134t-353 134.5t-124 371.5zM287 492q0 -377 321 -377q322 0 322 377v126q0 377 -322 377q-321 0 -321 -377v-126z" />
<glyph d="M139 0v141h455v830h-98q-158 0 -232 -37l-39 137q38 21 114.5 32t147.5 11h121q73 0 111.5 -36t38.5 -103v-834h368v-141h-987z" />
<glyph d="M125 100q0 75 72 115l493 266q221 119 221 279q0 112 -75.5 167.5t-217.5 55.5q-132 0 -366 -70l-90 -26l-31 141l88 27q246 75 404 75q210 0 325 -96t115 -270q0 -127 -79 -230t-220 -176l-430 -223h753v-135h-866q-45 0 -70.5 27.5t-25.5 72.5z" />
<glyph d="M102 -276l33 141l94 -27q275 -76 402 -76q161 0 246.5 66.5t85.5 185.5q0 60 -21 106t-68 93l-106 106h-293v136h295l82 110q68 93 68 201q0 107 -72 165t-223 58q-117 0 -369 -69l-90 -25l-31 141l88 25q265 74 404 74q215 0 329.5 -95t114.5 -272q0 -138 -84 -252 l-92 -121l113 -114q55 -60 80.5 -120.5t25.5 -137.5q0 -184 -131 -293t-348 -109q-159 0 -440 78z" />
<glyph d="M74 98q0 44 35 88l651 871q46 69 123 69q106 0 106 -108v-883h182v-135h-182v-365h-149v365h-670q-48 0 -72 26.5t-24 71.5zM252 135h588v783z" />
<glyph d="M123 -285l31 142l90 -25q90 -25 134.5 -36t109.5 -22.5t114 -11.5q178 0 268.5 94t90.5 257q0 176 -92.5 257t-270.5 81q-120 0 -264 -41l-144 -41v745h852v-147h-710v-422q168 47 286 47q233 0 362.5 -117.5t129.5 -361.5q0 -227 -136 -360.5t-370 -133.5 q-85 0 -172 17.5t-221 54.5z" />
<glyph d="M129 498v553q0 215 124.5 350t342.5 135q143 0 399 -70l88 -24l-30 -142l-90 25q-255 68 -363 68q-161 0 -240 -90t-79 -252v-142q200 64 331 64q247 0 373.5 -126.5t126.5 -361.5q0 -221 -126 -359t-359 -138q-231 0 -364.5 140t-133.5 370zM281 506q0 -177 91.5 -279 t258.5 -102q159 0 243 96.5t84 263.5q0 344 -360 344q-104 0 -317 -55v-268z" />
<glyph d="M135 975v139h881q51 0 78.5 -25t27.5 -69q0 -35 -22 -90l-557 -1295h-166l581 1340h-823z" />
<glyph d="M92 379q0 154 107 270l110 121l-90 127q-84 130 -84 258q0 178 125 281.5t342 103.5q223 0 348 -103.5t125 -281.5q0 -128 -84 -258l-90 -127l111 -121q106 -115 106 -270q0 -185 -136 -293.5t-372 -108.5q-237 0 -377.5 109t-140.5 293zM244 377q0 -119 94 -188.5 t268 -69.5q177 0 269 69t92 189q0 108 -88 205l-105 112h-338l-104 -112q-88 -97 -88 -205zM287 1155q0 -104 67 -209l80 -117h342l80 117q68 106 68 209q0 108 -80 175t-240 67q-159 0 -238 -67t-79 -175z" />
<glyph d="M102 639q0 220 126 355.5t360 135.5q231 0 364 -136t133 -365v-531q0 -214 -124 -345.5t-343 -131.5q-143 0 -399 70l-88 24l31 142l90 -25q255 -68 362 -68q162 0 241 86.5t79 247.5v127q-197 -63 -332 -63q-249 0 -374.5 121.5t-125.5 355.5zM256 639q0 -162 85 -248 t275 -86q105 0 318 55v261q0 176 -91 274t-259 98q-160 0 -244 -94t-84 -260z" />
<glyph d="M133 557q0 245 110.5 388.5t301.5 172.5v260h147v-260q91 -8 254 -51l90 -25l-28 -139l-93 25q-201 53 -276 53q-348 0 -348 -424t350 -424q73 0 274 53l93 25l28 -139l-90 -25q-163 -43 -254 -51v-266h-147v266q-194 24 -303 163.5t-109 397.5z" />
<glyph d="M170 78l29 137l88 -25q221 -63 370 -63q102 0 168 44t66 132q0 66 -46 106.5t-149 57.5l-221 39q-142 25 -220.5 101.5t-78.5 193.5q0 103 52.5 177t133 109t179.5 39v252h147v-260q114 -12 275 -59l84 -25l-29 -139l-88 25q-228 65 -371 65q-102 0 -167.5 -43.5 t-65.5 -132.5q0 -66 45.5 -107t148.5 -59l221 -39q143 -25 221 -100.5t78 -192.5q0 -77 -28.5 -138t-78 -99.5t-111.5 -60t-134 -25.5v-252h-147v256q-130 13 -287 61z" />
<glyph d="M61 350v135h154q-2 23 -2 72q0 47 2 70h-154v135h177q45 178 169.5 271t305.5 93q100 0 313 -57l90 -25l-29 -139l-92 25q-201 53 -276 53q-251 0 -322 -221h490v-135h-514q-2 -23 -2 -70q0 -49 2 -72h514v-135h-488q70 -219 322 -219q73 0 274 53l92 25l29 -139l-90 -25 q-213 -57 -313 -57q-186 0 -310 89t-167 273h-175z" />
<glyph d="M137 483v144q0 237 124 371.5t353 134.5t346 -134t117 -378v-132q0 -244 -117 -378t-346 -134t-353 134.5t-124 371.5zM287 492q0 -173 63 -261l424 730q-67 34 -166 34q-321 0 -321 -377v-126zM440 150q68 -35 168 -35q322 0 322 377v126q0 169 -64 263z" />
<glyph d="M137 483v144q0 237 124 371.5t353 134.5t346 -134t117 -378v-132q0 -244 -117 -378t-346 -134t-353 134.5t-124 371.5zM287 492q0 -377 321 -377q322 0 322 377v126q0 377 -322 377q-321 0 -321 -377v-126z" />
<glyph d="M139 0v141h455v830h-98q-158 0 -232 -37l-39 137q38 21 114.5 32t147.5 11h121q73 0 111.5 -36t38.5 -103v-834h368v-141h-987z" />
<glyph d="M125 100q0 75 72 115l493 266q221 119 221 279q0 112 -75.5 167.5t-217.5 55.5q-132 0 -366 -70l-90 -26l-31 141l88 27q246 75 404 75q210 0 325 -96t115 -270q0 -127 -79 -230t-220 -176l-430 -223h753v-135h-866q-45 0 -70.5 27.5t-25.5 72.5z" />
<glyph d="M102 -276l33 141l94 -27q275 -76 402 -76q161 0 246.5 66.5t85.5 185.5q0 60 -21 106t-68 93l-106 106h-293v136h295l82 110q68 93 68 201q0 107 -72 165t-223 58q-117 0 -369 -69l-90 -25l-31 141l88 25q265 74 404 74q215 0 329.5 -95t114.5 -272q0 -138 -84 -252 l-92 -121l113 -114q55 -60 80.5 -120.5t25.5 -137.5q0 -184 -131 -293t-348 -109q-159 0 -440 78z" />
<glyph d="M74 98q0 44 35 88l651 871q46 69 123 69q106 0 106 -108v-883h182v-135h-182v-365h-149v365h-670q-48 0 -72 26.5t-24 71.5zM252 135h588v783z" />
<glyph d="M123 -285l31 142l90 -25q90 -25 134.5 -36t109.5 -22.5t114 -11.5q178 0 268.5 94t90.5 257q0 176 -92.5 257t-270.5 81q-120 0 -264 -41l-144 -41v745h852v-147h-710v-422q168 47 286 47q233 0 362.5 -117.5t129.5 -361.5q0 -227 -136 -360.5t-370 -133.5 q-85 0 -172 17.5t-221 54.5z" />
<glyph d="M129 498v553q0 215 124.5 350t342.5 135q143 0 399 -70l88 -24l-30 -142l-90 25q-255 68 -363 68q-161 0 -240 -90t-79 -252v-142q200 64 331 64q247 0 373.5 -126.5t126.5 -361.5q0 -221 -126 -359t-359 -138q-231 0 -364.5 140t-133.5 370zM281 506q0 -177 91.5 -279 t258.5 -102q159 0 243 96.5t84 263.5q0 344 -360 344q-104 0 -317 -55v-268z" />
<glyph d="M135 975v139h881q51 0 78.5 -25t27.5 -69q0 -35 -22 -90l-557 -1295h-166l581 1340h-823z" />
<glyph d="M92 379q0 154 107 270l110 121l-90 127q-84 130 -84 258q0 178 125 281.5t342 103.5q223 0 348 -103.5t125 -281.5q0 -128 -84 -258l-90 -127l111 -121q106 -115 106 -270q0 -185 -136 -293.5t-372 -108.5q-237 0 -377.5 109t-140.5 293zM244 377q0 -119 94 -188.5 t268 -69.5q177 0 269 69t92 189q0 108 -88 205l-105 112h-338l-104 -112q-88 -97 -88 -205zM287 1155q0 -104 67 -209l80 -117h342l80 117q68 106 68 209q0 108 -80 175t-240 67q-159 0 -238 -67t-79 -175z" />
<glyph d="M102 639q0 220 126 355.5t360 135.5q231 0 364 -136t133 -365v-531q0 -214 -124 -345.5t-343 -131.5q-143 0 -399 70l-88 24l31 142l90 -25q255 -68 362 -68q162 0 241 86.5t79 247.5v127q-197 -63 -332 -63q-249 0 -374.5 121.5t-125.5 355.5zM256 639q0 -162 85 -248 t275 -86q105 0 318 55v261q0 176 -91 274t-259 98q-160 0 -244 -94t-84 -260z" />
<glyph d="M133 557q0 245 110.5 388.5t301.5 172.5v260h147v-260q91 -8 254 -51l90 -25l-28 -139l-93 25q-201 53 -276 53q-348 0 -348 -424t350 -424q73 0 274 53l93 25l28 -139l-90 -25q-163 -43 -254 -51v-266h-147v266q-194 24 -303 163.5t-109 397.5z" />
<glyph d="M170 78l29 137l88 -25q221 -63 370 -63q102 0 168 44t66 132q0 66 -46 106.5t-149 57.5l-221 39q-142 25 -220.5 101.5t-78.5 193.5q0 103 52.5 177t133 109t179.5 39v252h147v-260q114 -12 275 -59l84 -25l-29 -139l-88 25q-228 65 -371 65q-102 0 -167.5 -43.5 t-65.5 -132.5q0 -66 45.5 -107t148.5 -59l221 -39q143 -25 221 -100.5t78 -192.5q0 -77 -28.5 -138t-78 -99.5t-111.5 -60t-134 -25.5v-252h-147v256q-130 13 -287 61z" />
<glyph horiz-adv-x="604" d="M66 57q0 108 48 176t130 86v117h118v-112q23 -3 91 -21l61 -16l-22 -109l-70 21q-73 20 -111 20q-125 0 -125 -162q0 -157 127 -157q46 0 103 14l78 20l20 -98l-61 -20q-53 -18 -91 -21v-117h-118v119q-83 18 -130.5 82.5t-47.5 177.5z" />
<glyph horiz-adv-x="604" d="M49 -152l25 111l69 -27q89 -36 170 -36q46 0 79.5 23.5t33.5 70.5q0 69 -78 86l-119 28q-82 21 -128 70t-46 123q0 87 54 139t133 62v110h118v-110q48 -7 123 -33l66 -23l-27 -112l-71 26q-98 37 -160 37q-51 0 -83 -22.5t-32 -69.5q0 -68 76 -86l121 -29 q174 -43 174 -192q0 -87 -55 -140t-132 -61v-112h-118v112q-47 7 -127 33z" />
<glyph horiz-adv-x="604" d="M35 25v98h67v51h-67v96h67q4 122 71.5 180t180.5 58q54 0 144 -23l61 -18l-22 -113l-68 21q-66 20 -115 20q-62 0 -93 -26.5t-34 -98.5h219v-96h-219v-51h219v-98h-219q11 -125 127 -125q43 0 113 20l70 21l22 -111l-63 -20q-76 -23 -142 -23q-113 0 -180.5 58t-71.5 180 h-67z" />
<glyph horiz-adv-x="442" d="M59 51v111h316v-111h-316z" />
<glyph horiz-adv-x="604" d="M59 51v109h177v186h118v-186h178v-109h-178v-188h-118v188h-177z" />
<glyph horiz-adv-x="604" d="M61 51v111h469v-111h-469z" />
<glyph horiz-adv-x="604" d="M59 -35v107h473v-107h-473zM59 135v111h473v-111h-473z" />
<glyph horiz-adv-x="253" d="M35 -260l49 194h129l-59 -225q-12 -45 -60 -45q-37 0 -52 21t-7 55z" />
<glyph horiz-adv-x="253" d="M55 -139q0 71 70 71q72 0 72 -71q0 -35 -19 -54.5t-53 -19.5t-52 19.5t-18 54.5z" />
<glyph horiz-adv-x="604" d="M68 27v237q0 114 60 178t173 64q112 0 169.5 -64t57.5 -180v-231q0 -119 -57 -182.5t-170 -63.5t-173 64t-60 178zM188 31q0 -30 7 -62l157 418q-21 12 -53 12q-111 0 -111 -139v-229zM258 -102q21 -7 41 -7q111 0 111 140v229q0 17 -4 41z" />
<glyph horiz-adv-x="604" d="M68 231v238q0 114 60 178t173 64q112 0 169.5 -64t57.5 -180v-231q0 -119 -57 -182.5t-170 -63.5t-173 63.5t-60 177.5zM188 236q0 -34 7 -62l157 418q-21 12 -53 12q-111 0 -111 -139v-229zM258 102q18 -6 41 -6q111 0 111 140v229q0 17 -4 41z" />
<glyph horiz-adv-x="604" d="M68 1055v237q0 114 60 178t173 64q112 0 169.5 -64t57.5 -180v-231q0 -119 -57 -182.5t-170 -63.5t-173 64t-60 178zM188 1059q0 -139 111 -139t111 139v229q0 139 -111 139t-111 -139v-229z" />
<glyph horiz-adv-x="604" d="M61 823v109h203v481h-22q-60 0 -115 -27l-33 107q64 31 144 31h61q44 0 67 -22t23 -62v-508h162v-109h-490z" />
<glyph horiz-adv-x="604" d="M63 891q0 32 31 59l232 217q50 48 69 81t19 81q0 94 -107 94q-71 0 -153 -28l-66 -23l-25 107l62 20q101 35 184 35q96 0 159.5 -50.5t63.5 -156.5q0 -122 -124 -235l-175 -162h302v-107h-400q-33 0 -52.5 18.5t-19.5 49.5z" />
<glyph horiz-adv-x="604" d="M53 866l25 111l65 -21q107 -32 170 -32q113 0 113 88q0 44 -31 75l-37 37h-141v105h141l27 39q25 36 25 75q0 80 -101 80q-69 0 -151 -26l-68 -23l-22 107l61 20q100 33 182 33q106 0 161.5 -48.5t55.5 -137.5q0 -72 -41 -127l-28 -39l35 -37q55 -61 55 -131 q0 -90 -65 -144.5t-171 -54.5q-81 0 -196 33z" />
<glyph horiz-adv-x="604" d="M41 1014q0 26 18 51l281 426q25 41 78 41q71 0 71 -70v-409h78v-107h-78v-123h-118v123h-262q-33 0 -50.5 19t-17.5 49zM193 1053h178v272z" />
<glyph horiz-adv-x="604" d="M57 868l25 107l68 -21q89 -28 145 -28q63 0 96 35.5t33 95.5q0 125 -131 125q-41 0 -105 -17l-96 -26v385h422v-111h-307v-135q49 12 96 12q114 0 177 -58t63 -175q0 -110 -66 -176t-180 -66q-93 0 -178 31z" />
<glyph horiz-adv-x="604" d="M70 1059v241q0 102 61.5 167t167.5 65q67 0 178 -29l62 -16l-21 -109l-76 21q-87 24 -141 24q-108 0 -108 -123v-30q73 20 114 20q120 0 181 -59.5t61 -173.5q0 -106 -61.5 -173t-174.5 -67q-114 0 -178.5 66.5t-64.5 175.5zM193 1065q0 -66 31.5 -103.5t90.5 -37.5 q55 0 85 36t30 97q0 123 -131 123q-34 0 -106 -17v-98z" />
<glyph horiz-adv-x="604" d="M68 1415v109h405q35 0 55.5 -18t20.5 -48q0 -18 -10 -45l-250 -590h-129l252 592h-344z" />
<glyph horiz-adv-x="604" d="M55 1010q0 76 54 133l34 37l-28 39q-41 56 -41 127q0 87 60 137.5t167 50.5q109 0 170 -50.5t61 -137.5q0 -72 -40 -127l-27 -39l33 -37q55 -64 55 -133q0 -90 -66.5 -143.5t-181.5 -53.5q-114 0 -182 54t-68 143zM176 1010q0 -41 32.5 -64.5t94.5 -23.5q63 0 95 23.5 t32 64.5q0 32 -31 71l-37 43h-118l-39 -43q-29 -32 -29 -71zM195 1346q0 -39 24 -78l27 -41h114l27 39q27 39 27 80q0 35 -28 57t-83 22q-54 0 -81 -22t-27 -57z" />
<glyph horiz-adv-x="604" d="M59 1292q0 106 61.5 173t174.5 67q114 0 179 -66.5t65 -175.5v-241q0 -102 -62 -167t-168 -65q-67 0 -178 29l-61 16l20 109l76 -21q87 -24 141 -24q109 0 109 123v30q-73 -20 -115 -20q-120 0 -181 59.5t-61 173.5zM178 1292q0 -123 131 -123q35 0 107 17v98 q0 66 -32 103.5t-91 37.5q-55 0 -85 -36t-30 -97z" />
<glyph horiz-adv-x="604" d="M66 1085q0 108 48.5 176.5t129.5 86.5v116h118v-112q23 -3 91 -21l61 -16l-22 -109l-70 21q-73 20 -111 20q-125 0 -125 -162q0 -157 127 -157q46 0 103 14l78 21l20 -99l-61 -20q-53 -18 -91 -21v-116h-118v118q-83 18 -130.5 82.5t-47.5 177.5z" />
<glyph horiz-adv-x="604" d="M49 877l25 110l69 -26q92 -37 170 -37q46 0 79.5 23.5t33.5 70.5q0 69 -78 86l-119 29q-82 21 -128 69.5t-46 122.5q0 87 54 139t133 62v110h118v-110q48 -7 123 -33l66 -23l-27 -112l-71 26q-98 37 -160 37q-51 0 -83 -22.5t-32 -69.5q0 -68 76 -86l121 -29 q174 -43 174 -192q0 -87 -55 -140t-132 -61v-112h-118v112q-47 7 -127 33z" />
<glyph horiz-adv-x="604" d="M35 1053v98h67v51h-67v96h67q4 122 71.5 180t180.5 58q54 0 144 -23l61 -18l-22 -113l-68 21q-66 20 -115 20q-62 0 -93 -26.5t-34 -98.5h219v-96h-219v-51h219v-98h-219q11 -125 127 -125q43 0 113 20l70 21l22 -111l-63 -20q-76 -23 -142 -23q-113 0 -180.5 58 t-71.5 180h-67z" />
<glyph horiz-adv-x="442" d="M59 1079v111h316v-111h-316z" />
<glyph horiz-adv-x="604" d="M59 1079v109h177v186h118v-186h178v-109h-178v-188h-118v188h-177z" />
<glyph horiz-adv-x="604" d="M61 1079v111h469v-111h-469z" />
<glyph horiz-adv-x="604" d="M59 993v107h473v-107h-473zM59 1163v111h473v-111h-473z" />
<glyph horiz-adv-x="317" d="M37 1147q0 95 15.5 165.5t39.5 111t59.5 64.5t68 32t71.5 8v-103q-18 -2 -32 -6.5t-34 -21.5t-33 -45t-22.5 -81t-9.5 -124q0 -74 9.5 -129t22.5 -83.5t33 -46t34 -22t32 -6.5v-102q-36 0 -67.5 8t-67 33.5t-61 66.5t-42 113.5t-16.5 167.5z" />
<glyph horiz-adv-x="317" d="M25 758v102q17 2 31 6.5t34 22t33.5 46t23 83.5t9.5 129q0 71 -9.5 124t-23 81t-33.5 45t-34 21.5t-31 6.5v103q39 0 71.5 -8t67 -32t58 -64.5t39 -111t15.5 -165.5t-16.5 -167.5t-42 -113.5t-60.5 -66.5t-66 -33.5t-66 -8z" />
<glyph horiz-adv-x="253" d="M35 768l49 195h129l-59 -226q-12 -45 -60 -45q-37 0 -52 21t-7 55z" />
<glyph horiz-adv-x="253" d="M55 889q0 72 70 72q34 0 53 -18.5t19 -53.5t-19 -54.5t-53 -19.5t-52 19.5t-18 54.5z" />
<glyph horiz-adv-x="604" d="M68 1055v237q0 114 60 178t173 64q112 0 169.5 -64t57.5 -180v-231q0 -119 -57 -182.5t-170 -63.5t-173 64t-60 178zM188 1059q0 -34 7 -62l157 418q-21 12 -53 12q-111 0 -111 -139v-229zM258 926q18 -6 41 -6q111 0 111 139v229q0 17 -4 41z" />
<glyph horiz-adv-x="604" d="M66 1286q0 108 48 176t130 86v117h118v-113q32 -5 91 -20l61 -16l-22 -109l-70 20q-76 21 -111 21q-125 0 -125 -162q0 -158 127 -158q42 0 103 15l78 20l20 -98l-61 -21q-49 -17 -91 -20v-117h-118v119q-83 18 -130.5 82.5t-47.5 177.5z" />
<glyph horiz-adv-x="604" d="M49 1077l25 111l69 -27q92 -37 170 -37q46 0 79.5 24t33.5 71q0 69 -78 86l-119 28q-82 21 -128 70t-46 123q0 87 53.5 138.5t133.5 61.5v111h118v-111q53 -8 123 -32l66 -23l-27 -112l-71 26q-98 37 -160 37q-51 0 -83 -22.5t-32 -69.5q0 -68 76 -86l121 -29 q174 -43 174 -192q0 -87 -55 -140t-132 -61v-113h-118v113q-47 7 -127 33z" />
<glyph horiz-adv-x="604" d="M35 1253v99h67v51h-67v96h67q4 122 71.5 180t180.5 58q54 0 144 -23l61 -18l-22 -113l-68 21q-66 20 -115 20q-62 0 -93 -26.5t-34 -98.5h219v-96h-219v-51h219v-99h-219q11 -125 127 -125q40 0 113 21l70 20l22 -110l-63 -21q-73 -22 -142 -22q-113 0 -180.5 57.5 t-71.5 179.5h-67z" />
<glyph horiz-adv-x="442" d="M59 1280v111h316v-111h-316z" />
<glyph horiz-adv-x="253" d="M35 969l49 194h129l-59 -225q-12 -45 -60 -45q-37 0 -52 21t-7 55z" />
<glyph horiz-adv-x="253" d="M55 1090q0 71 70 71q72 0 72 -71q0 -35 -19 -54.5t-53 -19.5t-52 19.5t-18 54.5z" />
<glyph horiz-adv-x="604" d="M68 1255v238q0 114 60 178t173 64q112 0 169.5 -64t57.5 -180v-231q0 -119 -57 -182.5t-170 -63.5t-173 63.5t-60 177.5zM188 1260q0 -30 7 -62l155 420q-23 10 -51 10q-111 0 -111 -139v-229zM258 1126q18 -6 41 -6q111 0 111 140v229q0 15 -4 43z" />
<glyph horiz-adv-x="1087" d="M408 1696q0 39 30 57l160 109h242l-303 -209q-33 -23 -62 -23q-32 0 -49.5 20t-17.5 46z" />
<glyph horiz-adv-x="1087" d="M219 1874h143q0 -54 56 -84.5t151 -30.5q94 0 150.5 31.5t56.5 83.5h144q0 -79 -50.5 -135.5t-128.5 -82.5t-172 -26q-95 0 -172.5 26t-127.5 82.5t-50 135.5z" />
<glyph horiz-adv-x="1087" d="M213 1862h219l143 -107l144 107h219l-262 -197q-49 -35 -101 -35q-51 0 -98 35z" />
<glyph horiz-adv-x="1087" d="M213 1630l264 197q47 35 98 35q52 0 101 -35l262 -197h-219l-144 107l-143 -107h-219z" />
<glyph horiz-adv-x="1087" d="M293 1745q0 53 27.5 84t74.5 31t75 -31t28 -84t-28 -84t-75 -31t-74.5 31t-27.5 84zM680 1745q0 53 27.5 84t74.5 31t75 -31t28 -84t-28 -84t-75 -31t-74.5 31t-27.5 84z" />
<glyph horiz-adv-x="1087" d="M442 1745q0 53 28 84t75 31t74.5 -31t27.5 -84t-27.5 -84t-74.5 -31t-75 31t-28 84z" />
<glyph horiz-adv-x="1087" d="M348 1862h242l160 -109q30 -18 30 -57q0 -26 -17.5 -46t-49.5 -20q-29 0 -62 23z" />
<glyph horiz-adv-x="1087" d="M197 1688q0 29 26 49l166 125h223l-290 -215q-27 -21 -62 -21q-29 0 -46 18.5t-17 43.5zM555 1683q0 27 27 48l170 131h231l-307 -222q-23 -18 -60 -18q-30 0 -45.5 17.5t-15.5 43.5z" />
<glyph horiz-adv-x="1087" d="M236 1663v145h622v-145h-622z" />
<glyph horiz-adv-x="1087" d="M362 1806q0 84 59.5 135.5t147.5 51.5q89 0 149 -51.5t60 -135.5q0 -83 -61 -135.5t-148 -52.5t-147 52.5t-60 135.5zM463 1806q0 -44 30 -70t76 -26q47 0 78 26.5t31 69.5q0 41 -31 68t-78 27t-76.5 -26.5t-29.5 -68.5z" />
<glyph horiz-adv-x="1087" d="M152 1698q37 94 104 138t141 44q90 0 150 -41l94 -55q43 -25 84 -25q40 0 71.5 24.5t61.5 90.5l113 -64q-36 -93 -103 -137.5t-141 -44.5q-83 0 -152 41l-92 55q-43 25 -84 25t-73 -24.5t-62 -90.5z" />
<glyph horiz-adv-x="1110" d="M408 1346q0 31 26 57l166 160h223l-286 -258q-30 -27 -60 -27q-31 0 -50 21.5t-19 46.5z" />
<glyph horiz-adv-x="1087" d="M219 1563h143q0 -81 57 -126.5t150 -45.5t150 46t57 126h144q0 -136 -101 -221t-250 -85q-150 0 -250 85t-100 221z" />
<glyph horiz-adv-x="1087" d="M213 1563h211l151 -174l152 174h211l-268 -263q-44 -38 -95 -38q-57 0 -92 38z" />
<glyph horiz-adv-x="1087" d="M362 -362l27 88q83 -33 150 -33q41 0 68.5 16t27.5 47q0 24 -14 39t-38 20.5t-57.5 7t-72.5 -0.5l-9 14l84 164h86l-51 -104q81 0 129.5 -35.5t48.5 -100.5q0 -80 -56 -121.5t-144 -41.5q-85 0 -179 41z" />
<glyph horiz-adv-x="1087" d="M213 1266l268 262q45 39 94 39q57 0 93 -39l270 -262h-211l-152 174l-151 -174h-211z" />
<glyph horiz-adv-x="1110" d="M455 -317l55 213h168l-70 -252q-16 -64 -86 -64q-39 0 -59 29t-8 74z" />
<glyph horiz-adv-x="1171" d="M293 1454q0 53 27.5 84t74.5 31t75 -31t28 -84t-28 -84t-75 -31t-74.5 31t-27.5 84zM680 1454q0 53 27.5 84t74.5 31t75 -31t28 -84t-28 -84t-75 -31t-74.5 31t-27.5 84z" />
<glyph horiz-adv-x="1087" d="M442 1454q0 53 28 84t75 31t74.5 -31t27.5 -84t-27.5 -84t-74.5 -31t-75 31t-28 84z" />
<glyph horiz-adv-x="1110" d="M377 1563h223l166 -160q27 -27 27 -57q0 -26 -19 -47t-51 -21q-29 0 -59 27z" />
<glyph horiz-adv-x="1087" d="M195 1335q0 29 26 58l166 170h221l-289 -269q-27 -24 -59 -24q-33 0 -49 19.5t-16 45.5zM547 1321q0 28 26 57l181 185h221l-303 -285q-26 -23 -60 -23q-33 0 -49 19.5t-16 46.5z" />
<glyph horiz-adv-x="1087" d="M236 1350v145h622v-145h-622z" />
<glyph horiz-adv-x="1087" d="M315 -178q0 104 113 178l107 10l6 -10q-97 -59 -97 -145q0 -91 123 -91q87 0 187 37l24 -102q-114 -47 -217 -47q-110 0 -178 44t-68 126z" />
<glyph horiz-adv-x="1087" d="M344 1462q0 94 64 152.5t161 58.5t162.5 -58.5t65.5 -152.5q0 -92 -66.5 -152.5t-161.5 -60.5t-160 60t-65 153zM446 1462q0 -53 34 -87t89 -34t90 34t35 87q0 51 -34.5 85t-90.5 34t-89.5 -34t-33.5 -85z" />
<glyph horiz-adv-x="1087" d="M119 1350q38 111 111.5 164t150.5 53q87 0 149 -51l103 -74q44 -33 86 -33t77 29.5t66 109.5l115 -63q-37 -110 -110 -163.5t-150 -53.5q-87 0 -152 51l-100 74q-43 32 -86 32q-92 0 -146 -139z" />
<glyph horiz-adv-x="1202" d="M51 0l445 1108q28 74 108 74q83 0 111 -72l436 -1110h-164l-102 256h-572l-102 -256h-160zM362 387h478l-238 619z" />
<glyph horiz-adv-x="1193" d="M164 119v936q0 56 33 86t94 30h401q156 0 244 -73t88 -215q0 -114 -70 -203l-65 -84l86 -82q96 -90 96 -213q0 -139 -99.5 -220t-271.5 -81h-405q-62 0 -96.5 32t-34.5 87zM317 131h392q104 0 158.5 43.5t54.5 120.5q0 78 -70 145l-86 82h-449v-391zM317 655h447l57 80 q51 70 51 148q0 159 -182 159h-373v-387z" />
<glyph horiz-adv-x="1191" d="M123 584q0 148 41.5 263t116.5 186.5t173.5 108t217.5 36.5q130 0 317 -58l101 -30l-31 -140l-107 33q-174 53 -280 53q-185 0 -287 -111.5t-102 -340.5q0 -231 103 -343t288 -112q93 0 278 53l107 31l31 -139l-101 -29q-202 -57 -317 -57q-121 0 -219.5 35t-173 105.5 t-115.5 186.5t-41 269z" />
<glyph horiz-adv-x="1277" d="M164 119v934q0 55 33.5 86.5t95.5 31.5h311q252 0 401.5 -156.5t149.5 -430.5q0 -275 -152.5 -429.5t-404.5 -154.5h-305q-62 0 -95.5 32t-33.5 87zM319 135h277q191 0 296 117.5t105 331.5q0 209 -109 331.5t-304 122.5h-265v-903z" />
<glyph horiz-adv-x="1091" d="M164 119v934q0 55 33.5 86.5t95.5 31.5h674v-135h-648v-370h570v-136h-570v-395h650v-135h-676q-62 0 -95.5 32t-33.5 87z" />
<glyph horiz-adv-x="1052" d="M164 0v1053q0 55 33.5 86.5t95.5 31.5h657v-135h-631v-391h576v-133h-576v-512h-155z" />
<glyph horiz-adv-x="1265" d="M123 582q0 149 43.5 263.5t121 186t181 108t227.5 36.5q122 0 332 -58l105 -28l-35 -140l-107 31q-196 55 -297 55q-195 0 -303 -112t-108 -342q0 -228 114.5 -343.5t309.5 -115.5q112 0 270 29v288h-299v133h321q62 0 95.5 -32.5t33.5 -87.5v-297q0 -100 -112 -125 q-158 -43 -309 -43q-127 0 -231.5 35t-184.5 105.5t-124 186t-44 267.5z" />
<glyph horiz-adv-x="1253" d="M164 0v1171h153v-509h619v509h154v-1171h-154v528h-619v-528h-153z" />
<glyph horiz-adv-x="483" d="M164 0v1171h155v-1171h-155z" />
<glyph horiz-adv-x="692" d="M51 23l21 141q129 -31 184 -31q69 0 99 38t30 122v878h154v-886q0 -140 -75 -215.5t-210 -75.5q-67 0 -203 29z" />
<glyph horiz-adv-x="1150" d="M164 0v1171h153v-649l564 649h202l-374 -415l381 -756h-166l-332 641l-158 -176q-59 -65 -88 -118.5t-29 -121.5v-225h-153z" />
<glyph horiz-adv-x="1024" d="M164 119v1052h158v-1034h600v-137h-629q-62 0 -95.5 32t-33.5 87z" />
<glyph horiz-adv-x="1499" d="M164 0v1079q0 52 31.5 76.5t80.5 24.5q99 0 130 -84l344 -920l360 922q32 82 117 82q47 0 77.5 -25t30.5 -76v-1079h-145v932l-340 -875q-25 -63 -105 -63q-77 0 -102 63l-336 877v-934h-143z" />
<glyph horiz-adv-x="1376" d="M123 584q0 278 155.5 436t411.5 158q257 0 410 -157t153 -437q0 -285 -155 -440.5t-416 -155.5q-255 0 -407 157.5t-152 438.5zM276 584q0 -221 111 -343t303 -122t300 120.5t108 344.5q0 217 -111.5 337.5t-304.5 120.5q-192 0 -299 -119.5t-107 -338.5z" />
<glyph horiz-adv-x="1120" d="M164 0v1053q0 55 33.5 86.5t95.5 31.5h350q161 0 263 -97.5t102 -262.5q0 -167 -105 -263.5t-276 -96.5h-312v-451h-151zM315 582h312q109 0 172 60.5t63 168.5q0 106 -61.5 168.5t-163.5 62.5h-322v-460z" />
<glyph horiz-adv-x="1374" d="M123 584q0 278 155.5 436t411.5 158q257 0 409 -157t152 -437q0 -183 -76.5 -314t-216.5 -198q105 -39 203 -39h70v-131h-70q-131 0 -260 55q-114 43 -205 43q-262 0 -417.5 152t-155.5 432zM276 584q0 -220 110.5 -336.5t303.5 -116.5q194 0 301 115.5t107 337.5 q0 217 -111.5 337.5t-304.5 120.5q-192 0 -299 -119.5t-107 -338.5z" />
<glyph horiz-adv-x="1159" d="M164 0v1055q0 55 33.5 85.5t95.5 30.5h385q164 0 254 -81.5t90 -237.5q0 -117 -92 -231l-88 -109l256 -512h-170l-230 463h-383v-463h-151zM315 594h416l66 82q73 92 73 174q0 192 -194 192h-361v-448z" />
<glyph horiz-adv-x="1124" d="M123 84l35 139l98 -30q218 -70 352 -70q98 0 167 48t69 142q0 135 -178 174l-232 50q-303 65 -303 313q0 67 21.5 122t58.5 93t86.5 64.5t105 38.5t115.5 12q97 0 180.5 -17t204.5 -53l98 -29l-36 -139l-99 33q-198 67 -344 67q-64 0 -115 -18.5t-85.5 -62.5t-34.5 -107 q0 -138 178 -176l231 -49q150 -32 226.5 -107t76.5 -205q0 -83 -32.5 -147.5t-87.5 -103.5t-123 -58.5t-144 -19.5q-178 0 -395 67z" />
<glyph horiz-adv-x="1087" d="M82 1036v135h924v-135h-383v-1036h-156v1036h-385z" />
<glyph horiz-adv-x="1259" d="M154 420v751h151v-751q0 -147 81.5 -226t242.5 -79q323 0 323 305v751h154v-751q0 -206 -125 -324.5t-352 -118.5t-351 118t-124 325z" />
<glyph horiz-adv-x="1171" d="M51 1171h164l373 -987l373 987h159l-432 -1112q-25 -69 -106 -69q-75 0 -101 69z" />
<glyph horiz-adv-x="1570" d="M72 1171h149l187 -964l276 895q21 69 104 69q82 0 103 -69l272 -901l189 970h147l-217 -1101q-7 -39 -36.5 -60.5t-74.5 -21.5q-90 0 -110 73l-275 924l-284 -924q-22 -71 -111 -71t-104 82z" />
<glyph horiz-adv-x="1226" d="M92 0l426 592l-420 579h189l334 -464l327 464h182l-413 -579l418 -592h-189l-332 481l-335 -481h-187z" />
<glyph horiz-adv-x="1159" d="M41 1171h182l363 -526l352 526h180l-456 -663v-508h-158v500z" />
<glyph horiz-adv-x="1140" d="M123 94q0 40 27 74l671 870h-684v133h774q48 0 73.5 -25t25.5 -67q0 -37 -29 -73l-668 -873h705v-133h-801q-46 0 -70 25t-24 69z" />
<glyph horiz-adv-x="1224" d="M111 297q0 120 63.5 193t175.5 124q-68 71 -100.5 131t-32.5 142q0 141 97.5 218t244.5 77q146 0 236 -73t90 -206q0 -57 -18 -104.5t-44 -79t-70 -61t-80 -46.5t-91 -39l276 -288q78 113 78 270v154h149v-160q0 -222 -124 -371l172 -178h-195l-80 84 q-148 -102 -356 -102q-185 0 -288 90t-103 225zM268 299q0 -76 58.5 -130t175.5 -54q151 0 258 71l-318 330q-83 -40 -128.5 -90t-45.5 -127zM365 887q0 -53 27 -99t95 -118q50 20 78.5 32.5t66.5 34.5t58 43.5t34.5 52.5t14.5 68q0 69 -45 111.5t-135 42.5 q-98 0 -146 -46.5t-48 -121.5z" />
<glyph horiz-adv-x="1609" d="M178 555q0 183 84.5 327t234.5 224t339 80q170 0 307.5 -69.5t216 -195t78.5 -282.5q0 -177 -99.5 -291.5t-232.5 -114.5q-41 0 -91.5 20.5t-66.5 20.5q-30 0 -95 -12t-112 -12q-130 0 -200 77.5t-70 194.5q0 147 93 248.5t255 101.5q53 0 154 -8l6 51h133l-74 -542 q38 -25 76 -25q69 0 126.5 80.5t57.5 210.5q0 187 -133 302.5t-329 115.5q-231 0 -374 -141t-143 -361q0 -196 119.5 -323.5t323.5 -127.5q76 0 192 31t176 31q58 0 107 -27l90 -51l-53 -102l-88 41q-22 10 -62 10q-38 0 -158 -26.5t-214 -26.5q-131 0 -240 45t-181.5 122.5 t-112.5 181.5t-40 222zM606 520q0 -68 38.5 -110.5t111.5 -42.5q41 0 151 18l49 363q-61 8 -137 8q-104 0 -158.5 -67.5t-54.5 -168.5z" />
<glyph horiz-adv-x="1044" d="M137 379v412q0 185 102 289t289 104q189 0 285 -104t96 -294v-403q0 -191 -96 -295t-285 -104q-187 0 -289 104.5t-102 290.5zM287 383q0 -266 239 -266q236 0 236 266v401q0 265 -236 265q-239 0 -239 -265v-401z" />
<glyph horiz-adv-x="1044" d="M139 0v137h359v895h-62q-120 0 -192 -33l-41 134q38 19 104 28.5t123 9.5h96q63 0 98 -30.5t35 -87.5v-916h291v-137h-811z" />
<glyph horiz-adv-x="1044" d="M127 92q0 47 43 84l416 377q96 86 137 152t41 147q0 99 -62.5 143.5t-166.5 44.5q-115 0 -287 -49l-86 -26l-33 137l86 24q195 56 324 56q76 0 141 -18t118.5 -56t84 -104t30.5 -154q0 -200 -217 -391l-370 -326h592v-133h-699q-43 0 -67.5 24.5t-24.5 67.5z" />
<glyph horiz-adv-x="1044" d="M106 68l33 137l92 -25q211 -55 312 -55q121 0 183 47t62 129q0 76 -67 143l-80 78h-238v133h242l57 78q52 68 52 150q0 73 -52.5 116t-164.5 43q-47 0 -132 -15.5t-155 -35.5l-84 -24l-35 137l86 24q187 54 322 54q179 0 272.5 -78t93.5 -219q0 -112 -74 -207l-63 -80 l84 -82q88 -85 88 -209q0 -146 -108 -232.5t-287 -86.5q-124 0 -350 57z" />
<glyph horiz-adv-x="1044" d="M88 305q0 35 29 76l514 741q41 58 110 58q99 0 99 -97v-735h143v-133h-143v-215h-150v215h-510q-92 0 -92 90zM276 348h414v604z" />
<glyph horiz-adv-x="1044" d="M123 63l33 138l86 -25q167 -49 278 -49q132 0 199 68.5t67 183.5q0 123 -69.5 183.5t-198.5 60.5q-97 0 -205 -31l-133 -37v616h701v-143h-559v-297q130 29 210 29q191 0 297.5 -94.5t106.5 -286.5q0 -178 -111.5 -284.5t-302.5 -106.5q-139 0 -315 51z" />
<glyph horiz-adv-x="1044" d="M131 387v414q0 169 102.5 274t282.5 105q122 0 318 -52l84 -22l-33 -137l-84 24q-162 49 -283 49q-118 0 -176.5 -63.5t-58.5 -177.5v-82q152 41 245 41q202 0 306 -98.5t104 -282.5q0 -173 -104 -281t-295 -108q-188 0 -298 109t-110 288zM283 393q0 -125 67.5 -196.5 t190.5 -71.5q119 0 181 68.5t62 185.5q0 242 -266 242q-79 0 -235 -37v-191z" />
<glyph horiz-adv-x="1044" d="M135 1036v135h715q96 0 96 -86q0 -27 -20 -73l-443 -1012h-164l457 1036h-641z" />
<glyph horiz-adv-x="1044" d="M102 299q0 119 88 213l78 82l-61 82q-72 95 -72 203q0 141 102.5 223t282.5 82q182 0 284.5 -81.5t102.5 -223.5q0 -110 -65 -197l-68 -90l80 -78q88 -88 88 -215q0 -146 -111.5 -230.5t-304.5 -84.5q-194 0 -309 84.5t-115 230.5zM252 299q0 -83 71 -130.5t201 -47.5 q131 0 199 47t68 131q0 72 -66 141l-76 80h-252l-80 -80q-65 -65 -65 -141zM287 879q0 -79 51 -146l59 -80h250l60 80q49 64 49 146q0 74 -59 119.5t-175 45.5q-118 0 -176.5 -45t-58.5 -120z" />
<glyph horiz-adv-x="1044" d="M109 793q0 171 104 279t295 108q190 0 298.5 -108.5t108.5 -287.5v-413q0 -169 -102 -275t-281 -106q-117 0 -317 53l-86 23l33 137l86 -23q193 -51 280 -51q118 0 177 64t59 178v82q-149 -41 -244 -41q-204 0 -307.5 98t-103.5 283zM262 793q0 -242 268 -242 q79 0 234 39v188q0 124 -67.5 196.5t-190.5 72.5q-118 0 -181 -69t-63 -185z" />
<glyph horiz-adv-x="1044" d="M106 84l35 141l95 -32q200 -68 329 -68q92 0 160 47t68 141q0 135 -170 174l-222 50q-284 63 -284 311q0 75 29 137t78 101.5t108.5 62t124.5 27.5v184h145v-189q108 -10 252 -61l90 -31l-37 -139l-96 35q-176 63 -319 63q-95 0 -160.5 -46t-65.5 -140q0 -68 39 -109.5 t129 -62.5l219 -51q141 -34 215 -108.5t74 -203.5q0 -74 -29 -134.5t-78.5 -99.5t-108.5 -62.5t-124 -30.5v-187h-145v189q-86 7 -258 63z" />
<glyph horiz-adv-x="1044" d="M78 412v131h123v86h-123v133h123q4 206 119.5 315t304.5 109q110 0 249 -41l84 -25l-26 -139l-88 25q-124 36 -217 36q-258 0 -267 -280h400v-133h-402v-86h402v-131h-400q9 -281 267 -281q85 0 217 37l88 25l26 -140l-84 -24q-141 -41 -249 -41q-187 0 -302.5 110 t-121.5 314h-123z" />
<glyph horiz-adv-x="425" d="M115 96q0 54 27.5 84.5t74.5 30.5t74.5 -30.5t27.5 -84.5t-27 -84t-75 -30t-75 30t-27 84zM139 379v792h156v-763z" />
<glyph horiz-adv-x="425" d="M115 1075q0 54 27.5 84.5t74.5 30.5t74.5 -30.5t27.5 -84.5t-27 -84t-75 -30t-75 30t-27 84zM139 0v764l156 29v-793h-156z" />
<glyph horiz-adv-x="819" d="M72 1112l82 25q129 39 262 39q147 0 235 -70.5t88 -196.5q0 -87 -31 -148.5t-96 -119.5l-139 -121v-117l-158 -24v94q0 62 10 91t48 61l116 100q54 46 74.5 85t20.5 97q0 60 -44 92.5t-126 32.5q-118 0 -228 -33l-88 -26zM293 96q0 54 27.5 84.5t74.5 30.5 q48 0 75.5 -30.5t27.5 -84.5t-27.5 -84t-75.5 -30t-75 30t-27 84z" />
<glyph horiz-adv-x="819" d="M76 248q0 87 31 148.5t96 119.5l139 121v117l158 24v-94q0 -62 -10 -91t-48 -61l-116 -100q-54 -46 -74.5 -85t-20.5 -97q0 -60 44 -92.5t126 -32.5q118 0 228 33l88 26l26 -139l-81 -25q-126 -38 -263 -38q-147 0 -235 70t-88 196zM317 1061q0 54 27.5 84.5t75.5 30.5 q47 0 74.5 -30.5t27.5 -84.5t-27.5 -84.5t-74.5 -30.5q-48 0 -75.5 30.5t-27.5 84.5z" />
<glyph horiz-adv-x="512" d="M100 479v109q103 0 103 63q0 29 -42 132.5t-42 170.5q0 102 66 159.5t171 57.5h84v-135h-84q-41 0 -65.5 -21t-24.5 -65q0 -59 38 -158t38 -141q0 -39 -15 -69t-29 -40l-15 -10q2 -1 6 -3.5t14.5 -12t18 -21t14 -32.5t6.5 -45q0 -42 -38 -142t-38 -159q0 -44 24.5 -65 t65.5 -21h84v-135h-84q-105 0 -171 57.5t-66 159.5q0 67 42 171.5t42 133.5q0 61 -103 61z" />
<glyph horiz-adv-x="512" d="M72 31h84q41 0 65.5 21t24.5 65q0 59 -38 159t-38 142q0 38 15 66.5t29 37.5l15 10q-2 1 -6 3.5t-14.5 13t-18 22.5t-14 33.5t-6.5 46.5q0 42 38 141t38 158q0 44 -24.5 65t-65.5 21h-84v135h84q105 0 171 -57.5t66 -159.5q0 -67 -42 -170.5t-42 -132.5q0 -63 103 -63 v-109q-103 0 -103 -61q0 -29 42 -133.5t42 -171.5q0 -102 -66 -159.5t-171 -57.5h-84v135z" />
<glyph horiz-adv-x="520" d="M123 -100v1271h326v-131h-175v-1007h175v-133h-326z" />
<glyph horiz-adv-x="520" d="M72 33h174v1007h-174v131h325v-1271h-325v133z" />
<glyph horiz-adv-x="534" d="M82 539q0 114 12.5 207t33.5 157.5t52 113.5t64 77.5t74 46.5t77 24t78 6v-131q-31 -2 -56.5 -10t-61 -39t-59 -81t-41 -146t-17.5 -225q0 -135 17.5 -235t41 -152.5t59 -84.5t61 -40.5t56.5 -10.5v-129q-38 0 -73 6.5t-75 25.5t-74 49t-66 81t-54 117t-35.5 161.5 t-13.5 211.5z" />
<glyph horiz-adv-x="534" d="M61 16q32 2 58 10.5t61.5 40.5t59.5 84.5t41.5 152.5t17.5 235q0 129 -17.5 225t-41.5 146t-59.5 81t-61.5 39t-58 10v131q60 0 110 -12.5t104.5 -53t91.5 -107t61.5 -184t24.5 -275.5q0 -160 -26 -281t-65 -190t-94 -111.5t-103.5 -56t-103.5 -13.5v129z" />
<glyph horiz-adv-x="716" d="M109 575q0 52 45 97l297 289h194l-391 -386l391 -385h-194l-297 289q-45 45 -45 96z" />
<glyph horiz-adv-x="1146" d="M113 575q0 52 45 97l297 289h194l-391 -386l391 -385h-194l-297 289q-45 45 -45 96zM539 575q0 52 45 97l297 289h194l-391 -386l391 -385h-194l-297 289q-45 45 -45 96z" />
<glyph horiz-adv-x="1146" d="M72 190l391 385l-391 386h194l297 -289q45 -45 45 -97q0 -51 -45 -96l-297 -289h-194zM498 190l391 385l-391 386h194l297 -289q45 -45 45 -97q0 -51 -45 -96l-297 -289h-194z" />
<glyph horiz-adv-x="716" d="M72 190l391 385l-391 386h194l297 -289q45 -45 45 -97q0 -51 -45 -96l-297 -289h-194z" />
<glyph horiz-adv-x="845" d="M123 506v149h600v-149h-600z" />
<glyph horiz-adv-x="425" d="M76 -154l96 367h170l-113 -406q-18 -63 -79 -63q-45 0 -65 29.5t-9 72.5z" />
<glyph horiz-adv-x="425" d="M113 96q0 54 27.5 84.5t74.5 30.5t74.5 -30.5t27.5 -84.5t-27 -84t-75 -30t-75 30t-27 84z" />
<glyph horiz-adv-x="425" d="M76 -154l96 367h170l-113 -406q-18 -63 -79 -63q-45 0 -65 29.5t-9 72.5zM145 842q0 54 27.5 84t75.5 30t75 -30t27 -84t-27.5 -84.5t-74.5 -30.5q-48 0 -75.5 30.5t-27.5 84.5z" />
<glyph horiz-adv-x="425" d="M113 96q0 54 27.5 84.5t74.5 30.5t74.5 -30.5t27.5 -84.5t-27 -84t-75 -30t-75 30t-27 84zM113 842q0 54 27 84t75 30t75 -30t27 -84t-27.5 -84.5t-74.5 -30.5t-74.5 30.5t-27.5 84.5z" />
<glyph horiz-adv-x="425" d="M66 807l108 385q18 63 80 63q45 0 65 -29.5t9 -72.5l-92 -346h-170z" />
<glyph horiz-adv-x="784" d="M66 807l108 385q18 63 80 63q45 0 65 -29.5t9 -72.5l-92 -346h-170zM424 807l108 385q18 63 80 63q45 0 65 -29.5t9 -72.5l-92 -346h-170z" />
<glyph horiz-adv-x="425" d="M78 883l94 358h170l-111 -397q-19 -64 -79 -64q-44 0 -64.5 30t-9.5 73z" />
<glyph horiz-adv-x="784" d="M78 883l94 358h170l-111 -397q-19 -64 -79 -64q-44 0 -64.5 30t-9.5 73zM436 883l94 358h170l-110 -397q-19 -64 -80 -64q-44 0 -64.5 30t-9.5 73z" />
<glyph horiz-adv-x="425" d="M74 -154l98 367h170l-115 -406q-18 -63 -80 -63q-44 0 -64 29.5t-9 72.5z" />
<glyph horiz-adv-x="784" d="M74 -160l98 373h170l-115 -412q-18 -63 -80 -63q-44 0 -64 29.5t-9 72.5zM432 -160l98 373h170l-114 -412q-18 -63 -80 -63q-45 0 -65 29.5t-9 72.5z" />
<glyph horiz-adv-x="421" d="M123 1235h176l-16 -410h-144z" />
<glyph horiz-adv-x="759" d="M123 1235h166l-17 -410h-135zM471 1235h166l-14 -410h-136z" />
<glyph horiz-adv-x="1288" d="M164 0v1083q0 48 26.5 73.5t71.5 25.5q71 0 107 -54l610 -897v940h145v-1079q0 -51 -27 -75.5t-73 -24.5q-68 0 -104 55l-611 897v-944h-145z" />
<glyph horiz-adv-x="1746" d="M51 0l465 1071q46 100 156 100h948v-135h-647v-370h581v-134h-581v-397h651v-135h-676q-62 0 -95.5 32t-33.5 87v137h-491l-111 -256h-166zM381 387h438v649h-164z" />
<glyph horiz-adv-x="1888" d="M123 584q0 274 149 430.5t400 156.5h1087v-135h-647v-370h569v-136h-569v-395h653v-135h-1089q-249 0 -401 154.5t-152 429.5zM279 584q0 -214 105.5 -331.5t297.5 -117.5h274v903h-264q-195 0 -304 -122.5t-109 -331.5z" />
<glyph horiz-adv-x="1376" d="M123 584q0 278 155.5 436t411.5 158q126 0 232 -41l61 108h145l-96 -168q106 -75 163.5 -200t57.5 -293q0 -285 -155 -440.5t-416 -155.5q-137 0 -242 45l-63 -113h-146l99 174q-100 76 -153.5 200.5t-53.5 289.5zM276 584q0 -237 127 -361l447 789q-74 30 -168 30 q-192 0 -299 -119.5t-107 -338.5zM508 154q81 -35 182 -35q192 0 300 120.5t108 344.5q0 238 -140 362z" />
<glyph horiz-adv-x="1120" d="M164 0v1171h151v-196h328q161 0 263 -98.5t102 -264.5q0 -167 -105 -263.5t-276 -96.5h-312v-252h-151zM315 383h312q109 0 172 61.5t63 169.5q0 105 -61.5 167.5t-163.5 62.5h-322v-461z" />
<glyph horiz-adv-x="1273" d="M47 532v134h113v387q0 54 36 86t97 32h309q250 0 399.5 -156.5t149.5 -430.5q0 -275 -152 -429.5t-403 -154.5h-303q-61 0 -97 32.5t-36 86.5v413h-113zM315 135h277q191 0 296 117.5t105 331.5q0 210 -108.5 332t-304.5 122h-265v-372h371v-134h-371v-397z" />
<glyph horiz-adv-x="1181" d="M123 584q0 267 128.5 416.5t342.5 173.5v186h145v-186q104 -8 250 -54l101 -30l-31 -140l-107 33q-174 53 -280 53q-185 0 -287 -111.5t-102 -340.5q0 -231 103 -343t288 -112q93 0 278 53l107 31l31 -139l-101 -29q-139 -42 -250 -53v-189h-145v189q-217 21 -344 168.5 t-127 423.5z" />
<glyph horiz-adv-x="1044" d="M123 504v141h319v324h150v-324h326v-141h-326v-324h-150v324h-319z" />
<glyph horiz-adv-x="1044" d="M127 500v143h788v-143h-788z" />
<glyph horiz-adv-x="1044" d="M123 369v143h795v-143h-795zM123 623v143h795v-143h-795z" />
<glyph horiz-adv-x="1202" d="M51 0l445 1108q28 74 108 74q83 0 111 -72l436 -1110h-164l-102 256h-572l-102 -256h-160zM362 387h478l-238 619zM397 1563h224l165 -160q27 -27 27 -57q0 -26 -19 -47t-51 -21q-29 0 -59 27z" />
<glyph horiz-adv-x="1202" d="M51 0l445 1108q28 74 108 74q83 0 111 -72l436 -1110h-164l-102 256h-572l-102 -256h-160zM362 387h478l-238 619zM442 1346q0 30 27 57l166 160h223l-287 -258q-30 -27 -59 -27q-31 0 -50.5 22t-19.5 46z" />
<glyph horiz-adv-x="1202" d="M51 0l445 1108q28 74 108 74q83 0 111 -72l436 -1110h-164l-102 256h-572l-102 -256h-160zM246 1266l268 262q45 39 94 39q56 0 92 -39l271 -262h-211l-152 174l-151 -174h-211zM362 387h478l-238 619z" />
<glyph horiz-adv-x="1202" d="M51 0l445 1108q28 74 108 74q83 0 111 -72l436 -1110h-164l-102 256h-572l-102 -256h-160zM160 1350q38 111 111.5 164t150.5 53q87 0 149 -51l103 -74q44 -33 86 -33t77 29.5t66 109.5l115 -63q-37 -110 -110 -163.5t-150 -53.5q-87 0 -152 51l-100 74q-43 32 -86 32 q-92 0 -146 -139zM362 387h478l-238 619z" />
<glyph horiz-adv-x="1202" d="M51 0l445 1108q28 74 108 74q83 0 111 -72l436 -1110h-164l-102 256h-572l-102 -256h-160zM311 1454q0 53 28 84t75 31t74.5 -31t27.5 -84t-27.5 -84t-74.5 -31t-75 31t-28 84zM362 387h478l-238 619zM698 1454q0 53 28 84t75 31t74.5 -31t27.5 -84t-27.5 -84t-74.5 -31 t-75 31t-28 84z" />
<glyph horiz-adv-x="1202" d="M51 0l445 1108q28 74 108 74q83 0 111 -72l436 -1110h-164l-102 256h-572l-102 -256h-160zM362 387h478l-238 619zM377 1462q0 94 64 152.5t161 58.5t162 -58.5t65 -152.5q0 -92 -66 -152.5t-161 -60.5t-160 60t-65 153zM479 1462q0 -53 34 -87t89 -34t90 34t35 87 q0 51 -34.5 85t-90.5 34t-89.5 -34t-33.5 -85z" />
<glyph horiz-adv-x="1202" d="M51 0l445 1108q28 74 108 74q83 0 111 -72l436 -1110h-164l-102 256h-572l-102 -256h-160zM287 1350v145h622v-145h-622zM362 387h478l-238 619z" />
<glyph horiz-adv-x="1202" d="M51 0l445 1108q28 74 108 74q83 0 111 -72l436 -1110h-164l-102 256h-572l-102 -256h-160zM252 1563h143q0 -81 57 -126.5t150 -45.5t150 46t57 126h143q0 -136 -100.5 -221t-249.5 -85q-150 0 -250 85t-100 221zM362 387h478l-238 619z" />
<glyph horiz-adv-x="1202" d="M51 0l445 1108q28 74 108 74q83 0 111 -72l436 -1110q-96 -58 -96 -145q0 -91 123 -91q86 0 186 37l25 -102q-114 -47 -218 -47q-110 0 -177.5 44t-67.5 126q0 108 112 178h-51l-102 256h-572l-102 -256h-160zM362 387h478l-238 619z" />
<glyph horiz-adv-x="1191" d="M123 584q0 148 41.5 263t116.5 186.5t173.5 108t217.5 36.5q130 0 317 -58l101 -30l-31 -140l-107 33q-174 53 -280 53q-185 0 -287 -111.5t-102 -340.5q0 -231 103 -343t288 -112q93 0 278 53l107 31l31 -139l-101 -29q-177 -50 -278 -55l-45 -94q81 0 129.5 -35.5 t48.5 -100.5q0 -80 -56.5 -121.5t-144.5 -41.5q-84 0 -178 41l27 88q82 -33 149 -33q41 0 68.5 16t27.5 47q0 24 -14 39t-38 20.5t-57.5 7t-72.5 -0.5l-8 14l78 154q-231 13 -366.5 160.5t-135.5 433.5z" />
<glyph horiz-adv-x="1191" d="M123 584q0 148 41.5 263t116.5 186.5t173.5 108t217.5 36.5q130 0 317 -58l101 -30l-31 -140l-107 33q-174 53 -280 53q-185 0 -287 -111.5t-102 -340.5q0 -231 103 -343t288 -112q93 0 278 53l107 31l31 -139l-101 -29q-202 -57 -317 -57q-121 0 -219.5 35t-173 105.5 t-115.5 186.5t-41 269zM518 1346q0 30 27 57l166 160h223l-287 -258q-30 -27 -59 -27q-31 0 -50.5 22t-19.5 46z" />
<glyph horiz-adv-x="1191" d="M123 584q0 148 41.5 263t116.5 186.5t173.5 108t217.5 36.5q130 0 317 -58l101 -30l-31 -140l-107 33q-174 53 -280 53q-185 0 -287 -111.5t-102 -340.5q0 -231 103 -343t288 -112q93 0 278 53l107 31l31 -139l-101 -29q-202 -57 -317 -57q-121 0 -219.5 35t-173 105.5 t-115.5 186.5t-41 269zM311 1266l269 262q45 39 94 39q56 0 92 -39l270 -262h-211l-151 174l-152 -174h-211z" />
<glyph horiz-adv-x="1191" d="M123 584q0 148 41.5 263t116.5 186.5t173.5 108t217.5 36.5q130 0 317 -58l101 -30l-31 -140l-107 33q-174 53 -280 53q-185 0 -287 -111.5t-102 -340.5q0 -231 103 -343t288 -112q93 0 278 53l107 31l31 -139l-101 -29q-202 -57 -317 -57q-121 0 -219.5 35t-173 105.5 t-115.5 186.5t-41 269zM569 1454q0 53 28 84t75 31t74.5 -31t27.5 -84t-27.5 -84t-74.5 -31t-75 31t-28 84z" />
<glyph horiz-adv-x="1191" d="M123 584q0 148 41.5 263t116.5 186.5t173.5 108t217.5 36.5q130 0 317 -58l101 -30l-31 -140l-107 33q-174 53 -280 53q-185 0 -287 -111.5t-102 -340.5q0 -231 103 -343t288 -112q93 0 278 53l107 31l31 -139l-101 -29q-202 -57 -317 -57q-121 0 -219.5 35t-173 105.5 t-115.5 186.5t-41 269zM309 1563h211l152 -174l151 174h211l-268 -263q-44 -38 -94 -38q-57 0 -92 38z" />
<glyph horiz-adv-x="1277" d="M164 119v934q0 55 33.5 86.5t95.5 31.5h311q252 0 401.5 -156.5t149.5 -430.5q0 -275 -152.5 -429.5t-404.5 -154.5h-305q-62 0 -95.5 32t-33.5 87zM225 1563h211l152 -174l151 174h211l-268 -263q-44 -38 -94 -38q-57 0 -92 38zM319 135h277q191 0 296 117.5t105 331.5 q0 209 -109 331.5t-304 122.5h-265v-903z" />
<glyph horiz-adv-x="1273" d="M47 532v134h113v387q0 54 36 86t97 32h309q250 0 399.5 -156.5t149.5 -430.5q0 -275 -152 -429.5t-403 -154.5h-303q-61 0 -97 32.5t-36 86.5v413h-113zM315 135h277q191 0 296 117.5t105 331.5q0 210 -108.5 332t-304.5 122h-265v-372h371v-134h-371v-397z" />
<glyph horiz-adv-x="1091" d="M164 119v934q0 55 33.5 86.5t95.5 31.5h674v-135h-648v-370h570v-136h-570v-395h650v-135h-676q-62 0 -95.5 32t-33.5 87zM283 1563h223l166 -160q26 -26 26 -57q0 -26 -18.5 -47t-50.5 -21q-30 0 -60 27z" />
<glyph horiz-adv-x="1091" d="M164 119v934q0 55 33.5 86.5t95.5 31.5h674v-135h-648v-370h570v-136h-570v-395h650v-135h-676q-62 0 -95.5 32t-33.5 87zM430 1346q0 30 27 57l166 160h223l-287 -258q-30 -27 -59 -27q-31 0 -50.5 22t-19.5 46z" />
<glyph horiz-adv-x="1091" d="M164 119v934q0 55 33.5 86.5t95.5 31.5h674v-135h-648v-370h570v-136h-570v-395h650v-135h-676q-62 0 -95.5 32t-33.5 87zM215 1266l268 262q45 39 95 39q56 0 92 -39l270 -262h-211l-151 174l-152 -174h-211z" />
<glyph horiz-adv-x="1091" d="M164 119v934q0 55 33.5 86.5t95.5 31.5h674v-135h-648v-370h570v-136h-570v-395h650v-135h-676q-62 0 -95.5 32t-33.5 87zM274 1454q0 53 28 84t75 31t74.5 -31t27.5 -84t-27.5 -84t-74.5 -31t-75 31t-28 84zM662 1454q0 53 27.5 84t74.5 31t74.5 -31t27.5 -84t-27.5 -84 t-74.5 -31t-74.5 31t-27.5 84z" />
<glyph horiz-adv-x="1091" d="M164 119v934q0 55 33.5 86.5t95.5 31.5h674v-135h-648v-370h570v-136h-570v-395h650v-135h-676q-62 0 -95.5 32t-33.5 87zM262 1350v145h623v-145h-623z" />
<glyph horiz-adv-x="1091" d="M164 119v934q0 55 33.5 86.5t95.5 31.5h674v-135h-648v-370h570v-136h-570v-395h650v-135h-676q-62 0 -95.5 32t-33.5 87zM223 1563h144q0 -81 56.5 -126.5t149.5 -45.5t150 46t57 126h144q0 -136 -101 -221t-250 -85q-150 0 -250 85t-100 221z" />
<glyph horiz-adv-x="1091" d="M164 119v934q0 55 33.5 86.5t95.5 31.5h674v-135h-648v-370h570v-136h-570v-395h650v-135h-676q-62 0 -95.5 32t-33.5 87zM481 1454q0 53 28 84t75 31t74.5 -31t27.5 -84t-27.5 -84t-74.5 -31t-75 31t-28 84z" />
<glyph horiz-adv-x="1091" d="M164 119v934q0 55 33.5 86.5t95.5 31.5h674v-135h-648v-370h570v-136h-570v-395h650v-135h-150q-96 -58 -96 -145q0 -91 123 -91q86 0 186 37l25 -102q-114 -47 -217 -47q-110 0 -178 44t-68 126q0 104 113 178h-414q-62 0 -95.5 32t-33.5 87z" />
<glyph horiz-adv-x="1091" d="M164 119v934q0 55 33.5 86.5t95.5 31.5h674v-135h-648v-370h570v-136h-570v-395h650v-135h-676q-62 0 -95.5 32t-33.5 87zM217 1563h211l152 -174l151 174h211l-268 -263q-44 -38 -94 -38q-58 0 -93 38z" />
<glyph horiz-adv-x="1265" d="M123 582q0 149 43.5 263.5t121 186t181 108t227.5 36.5q122 0 332 -58l105 -28l-35 -140l-107 31q-196 55 -297 55q-195 0 -303 -112t-108 -342q0 -228 114.5 -343.5t309.5 -115.5q112 0 270 29v288h-299v133h321q62 0 95.5 -32.5t33.5 -87.5v-297q0 -100 -112 -125 q-158 -43 -309 -43q-127 0 -231.5 35t-184.5 105.5t-124 186t-44 267.5zM322 1266l268 262q45 39 94 39q56 0 92 -39l271 -262h-211l-152 174l-152 -174h-210z" />
<glyph horiz-adv-x="1265" d="M123 582q0 149 43.5 263.5t121 186t181 108t227.5 36.5q122 0 332 -58l105 -28l-35 -140l-107 31q-196 55 -297 55q-195 0 -303 -112t-108 -342q0 -228 114.5 -343.5t309.5 -115.5q112 0 270 29v288h-299v133h321q62 0 95.5 -32.5t33.5 -87.5v-297q0 -100 -112 -125 q-158 -43 -309 -43q-127 0 -231.5 35t-184.5 105.5t-124 186t-44 267.5zM326 1563h143q0 -81 57 -126.5t150 -45.5t150 46t57 126h143q0 -136 -100.5 -221t-249.5 -85q-150 0 -250 85t-100 221z" />
<glyph horiz-adv-x="1265" d="M123 582q0 149 43.5 263.5t121 186t181 108t227.5 36.5q122 0 332 -58l105 -28l-35 -140l-107 31q-196 55 -297 55q-195 0 -303 -112t-108 -342q0 -228 114.5 -343.5t309.5 -115.5q112 0 270 29v288h-299v133h321q62 0 95.5 -32.5t33.5 -87.5v-297q0 -100 -112 -125 q-158 -43 -309 -43q-127 0 -231.5 35t-184.5 105.5t-124 186t-44 267.5zM571 1458q0 53 28 84t75 31t74.5 -31t27.5 -84t-27.5 -84t-74.5 -31t-75 31t-28 84z" />
<glyph horiz-adv-x="1265" d="M123 582q0 149 43.5 263.5t121 186t181 108t227.5 36.5q122 0 332 -58l105 -28l-35 -140l-107 31q-196 55 -297 55q-195 0 -303 -112t-108 -342q0 -228 114.5 -343.5t309.5 -115.5q112 0 270 29v288h-299v133h321q62 0 95.5 -32.5t33.5 -87.5v-297q0 -100 -112 -125 q-158 -43 -309 -43q-127 0 -231.5 35t-184.5 105.5t-124 186t-44 267.5zM547 -317l55 213h168l-70 -252q-16 -64 -86 -64q-39 0 -59 29t-8 74z" />
<glyph horiz-adv-x="1253" d="M164 0v1171h153v-509h619v509h154v-1171h-154v528h-619v-528h-153zM266 1266l269 262q45 39 94 39q56 0 92 -39l270 -262h-211l-151 174l-152 -174h-211z" />
<glyph horiz-adv-x="1247" d="M31 817v133h133v221h153v-221h619v221h154v-221h124v-133h-124v-817h-154v528h-619v-528h-153v817h-133zM317 662h619v155h-619v-155z" />
<glyph horiz-adv-x="1175" d="M164 0v1171h155v-1171h-155zM535 23l20 141q129 -31 184 -31q69 0 99 38t30 122v878h154v-886q0 -140 -75 -215.5t-210 -75.5q-66 0 -202 29z" />
<glyph horiz-adv-x="483" d="M-18 1563h223l166 -160q26 -26 26 -57q0 -26 -18.5 -47t-50.5 -21q-30 0 -60 27zM164 0v1171h155v-1171h-155z" />
<glyph horiz-adv-x="483" d="M92 1346q0 30 27 57l166 160h223l-287 -258q-30 -27 -59 -27q-31 0 -50.5 22t-19.5 46zM164 0v1171h155v-1171h-155z" />
<glyph horiz-adv-x="483" d="M-119 1266l269 262q45 39 94 39q56 0 92 -39l270 -262h-211l-151 174l-152 -174h-211zM164 0v1171h155v-1171h-155z" />
<glyph horiz-adv-x="483" d="M-53 1454q0 53 27.5 84t74.5 31t75 -31t28 -84t-28 -84t-75 -31t-74.5 31t-27.5 84zM164 0v1171h155v-1171h-155zM334 1454q0 53 27.5 84t74.5 31t75 -31t28 -84t-28 -84t-75 -31t-74.5 31t-27.5 84z" />
<glyph horiz-adv-x="483" d="M-193 1350q38 111 112 164t151 53q87 0 149 -51l103 -74q44 -33 86 -33t77 29.5t66 109.5l115 -63q-37 -110 -110 -163.5t-150 -53.5q-87 0 -152 51l-100 74q-43 32 -86 32q-92 0 -146 -139zM164 0v1171h155v-1171h-155z" />
<glyph horiz-adv-x="483" d="M-70 1350v145h623v-145h-623zM164 0v1171h155v-1171h-155z" />
<glyph horiz-adv-x="483" d="M-106 1563h143q0 -81 57 -126.5t150 -45.5t150 46t57 126h143q0 -136 -100.5 -221t-249.5 -85q-150 0 -250 85t-100 221zM164 0v1171h155v-1171h-155z" />
<glyph horiz-adv-x="483" d="M94 -178q0 104 113 178h-43v1171h155v-1171q-96 -58 -96 -145q0 -91 123 -91q86 0 186 37l25 -102q-114 -47 -217 -47q-110 0 -178 44t-68 126z" />
<glyph horiz-adv-x="483" d="M141 1454q0 53 28 84t75 31t74.5 -31t27.5 -84t-27.5 -84t-74.5 -31t-75 31t-28 84zM164 0v1171h155v-1171h-155z" />
<glyph horiz-adv-x="1024" d="M45 508v147l119 54v462h158v-391l264 119v-149l-264 -119v-494h600v-137h-629q-62 0 -95.5 32t-33.5 87v442z" />
<glyph horiz-adv-x="692" d="M51 23l21 141q129 -31 184 -31q69 0 99 38t30 122v878h154v-886q0 -140 -75 -215.5t-210 -75.5q-67 0 -203 29zM102 1266l269 262q45 39 94 39q56 0 92 -39l270 -262h-211l-151 174l-152 -174h-211z" />
<glyph horiz-adv-x="1150" d="M164 0v1171h153v-649l564 649h202l-374 -415l381 -756h-166l-332 641l-158 -176q-59 -65 -88 -118.5t-29 -121.5v-225h-153zM465 -317l55 213h168l-70 -252q-16 -64 -86 -64q-39 0 -59 29t-8 74z" />
<glyph horiz-adv-x="1024" d="M164 119v1052h158v-1034h600v-137h-629q-62 0 -95.5 32t-33.5 87zM408 1346q0 31 26 57l166 160h223l-286 -258q-30 -27 -60 -27q-31 0 -50 21.5t-19 46.5z" />
<glyph horiz-adv-x="1024" d="M164 119v1052h158v-1034h600v-137h-629q-62 0 -95.5 32t-33.5 87zM387 -317l55 213h168l-69 -252q-16 -64 -86 -64q-39 0 -59.5 29t-8.5 74z" />
<glyph horiz-adv-x="1024" d="M164 119v1052h158v-1034h600v-137h-629q-62 0 -95.5 32t-33.5 87zM502 922l92 327h162l-109 -366q-19 -64 -76 -64q-44 0 -62 30t-7 73z" />
<glyph horiz-adv-x="1024" d="M164 119v1052h158v-1034h600v-137h-629q-62 0 -95.5 32t-33.5 87zM578 606q0 52 27 77.5t67 25.5q42 0 69 -25.5t27 -77.5t-27 -77t-69 -25q-41 0 -67.5 25t-26.5 77z" />
<glyph horiz-adv-x="1288" d="M164 0v1083q0 48 26.5 73.5t71.5 25.5q71 0 107 -54l610 -897v940h145v-1079q0 -51 -27 -75.5t-73 -24.5q-68 0 -104 55l-611 897v-944h-145zM221 1350q38 111 111.5 164t150.5 53q88 0 150 -51l102 -74q44 -33 86 -33t77.5 29.5t66.5 109.5l114 -63 q-37 -110 -110 -163.5t-150 -53.5q-86 0 -151 51l-101 74q-43 32 -86 32q-91 0 -145 -139z" />
<glyph horiz-adv-x="1288" d="M164 0v1083q0 48 26.5 73.5t71.5 25.5q71 0 107 -54l610 -897v940h145v-1079q0 -51 -27 -75.5t-73 -24.5q-68 0 -104 55l-611 897v-944h-145zM553 1346q0 30 27 57l165 160h224l-287 -258q-30 -27 -59 -27q-31 0 -50.5 22t-19.5 46z" />
<glyph horiz-adv-x="1288" d="M164 0v1083q0 48 26.5 73.5t71.5 25.5q71 0 107 -54l610 -897v940h145v-1079q0 -51 -27 -75.5t-73 -24.5q-68 0 -104 55l-611 897v-944h-145zM500 -317l55 213h168l-70 -252q-16 -64 -86 -64q-39 0 -59 29t-8 74z" />
<glyph horiz-adv-x="1288" d="M164 0v1083q0 48 26.5 73.5t71.5 25.5q71 0 107 -54l610 -897v940h145v-1079q0 -51 -27 -75.5t-73 -24.5q-68 0 -104 55l-611 897v-944h-145zM287 1563h211l151 -174l152 174h211l-269 -263q-44 -38 -94 -38q-57 0 -92 38z" />
<glyph horiz-adv-x="1376" d="M123 584q0 278 155.5 436t411.5 158q257 0 410 -157t153 -437q0 -285 -155 -440.5t-416 -155.5q-255 0 -407 157.5t-152 438.5zM276 584q0 -221 111 -343t303 -122t300 120.5t108 344.5q0 217 -111.5 337.5t-304.5 120.5q-192 0 -299 -119.5t-107 -338.5zM438 1563h224 l165 -160q27 -27 27 -57q0 -26 -19 -47t-51 -21q-29 0 -59 27z" />
<glyph horiz-adv-x="1376" d="M123 584q0 278 155.5 436t411.5 158q257 0 410 -157t153 -437q0 -285 -155 -440.5t-416 -155.5q-255 0 -407 157.5t-152 438.5zM276 584q0 -221 111 -343t303 -122t300 120.5t108 344.5q0 217 -111.5 337.5t-304.5 120.5q-192 0 -299 -119.5t-107 -338.5zM514 1346 q0 30 27 57l166 160h223l-287 -258q-30 -27 -59 -27q-31 0 -50.5 22t-19.5 46z" />
<glyph horiz-adv-x="1376" d="M123 584q0 278 155.5 436t411.5 158q257 0 410 -157t153 -437q0 -285 -155 -440.5t-416 -155.5q-255 0 -407 157.5t-152 438.5zM276 584q0 -221 111 -343t303 -122t300 120.5t108 344.5q0 217 -111.5 337.5t-304.5 120.5q-192 0 -299 -119.5t-107 -338.5zM326 1266 l268 262q45 39 94 39q56 0 92 -39l271 -262h-211l-152 174l-151 -174h-211z" />
<glyph horiz-adv-x="1376" d="M123 584q0 278 155.5 436t411.5 158q257 0 410 -157t153 -437q0 -285 -155 -440.5t-416 -155.5q-255 0 -407 157.5t-152 438.5zM266 1350q38 111 111.5 164t150.5 53q88 0 150 -51l102 -74q44 -33 86 -33t77.5 29.5t66.5 109.5l114 -63q-37 -110 -110 -163.5t-150 -53.5 q-86 0 -151 51l-101 74q-43 32 -86 32q-91 0 -145 -139zM276 584q0 -221 111 -343t303 -122t300 120.5t108 344.5q0 217 -111.5 337.5t-304.5 120.5q-192 0 -299 -119.5t-107 -338.5z" />
<glyph horiz-adv-x="1376" d="M123 584q0 278 155.5 436t411.5 158q257 0 410 -157t153 -437q0 -285 -155 -440.5t-416 -155.5q-255 0 -407 157.5t-152 438.5zM276 584q0 -221 111 -343t303 -122t300 120.5t108 344.5q0 217 -111.5 337.5t-304.5 120.5q-192 0 -299 -119.5t-107 -338.5zM393 1454 q0 53 28 84t75 31t74.5 -31t27.5 -84t-27.5 -84t-74.5 -31t-75 31t-28 84zM780 1454q0 53 28 84t75 31t74.5 -31t27.5 -84t-27.5 -84t-74.5 -31t-75 31t-28 84z" />
<glyph horiz-adv-x="1288" d="M164 0v1083q0 48 26.5 73.5t71.5 25.5q63 0 107 -54l610 -858v901h145v-1261q0 -136 -77.5 -208.5t-217.5 -72.5v129q80 1 115 38.5t35 113.5v102l-670 934v-946h-145z" />
<glyph horiz-adv-x="1376" d="M123 584q0 278 155.5 436t411.5 158q257 0 410 -157t153 -437q0 -285 -155 -440.5t-416 -155.5q-255 0 -407 157.5t-152 438.5zM276 584q0 -221 111 -343t303 -122t300 120.5t108 344.5q0 217 -111.5 337.5t-304.5 120.5q-192 0 -299 -119.5t-107 -338.5zM379 1350v145 h622v-145h-622z" />
<glyph horiz-adv-x="1376" d="M123 584q0 278 155.5 436t411.5 158q257 0 410 -157t153 -437q0 -285 -155 -440.5t-416 -155.5q-255 0 -407 157.5t-152 438.5zM276 584q0 -221 111 -343t303 -122t300 120.5t108 344.5q0 217 -111.5 337.5t-304.5 120.5q-192 0 -299 -119.5t-107 -338.5zM342 1563h143 q0 -81 57 -126.5t150 -45.5t150 46t57 126h143q0 -136 -100.5 -221t-249.5 -85q-150 0 -250 85t-100 221z" />
<glyph horiz-adv-x="1376" d="M123 584q0 278 155.5 436t411.5 158q257 0 410 -157t153 -437q0 -285 -155 -440.5t-416 -155.5q-255 0 -407 157.5t-152 438.5zM276 584q0 -221 111 -343t303 -122t300 120.5t108 344.5q0 217 -111.5 337.5t-304.5 120.5q-192 0 -299 -119.5t-107 -338.5zM410 1335 q0 29 26 58l166 170h221l-288 -269q-27 -24 -60 -24t-49 19.5t-16 45.5zM762 1321q0 28 26 57l181 185h221l-303 -285q-26 -23 -60 -23q-33 0 -49 19.5t-16 46.5z" />
<glyph horiz-adv-x="1159" d="M164 0v1055q0 55 33.5 85.5t95.5 30.5h385q164 0 254 -81.5t90 -237.5q0 -117 -92 -231l-88 -109l256 -512h-170l-230 463h-383v-463h-151zM315 594h416l66 82q73 92 73 174q0 192 -194 192h-361v-448zM438 1346q0 30 27 57l166 160h223l-287 -258q-30 -27 -59 -27 q-31 0 -50.5 22t-19.5 46z" />
<glyph horiz-adv-x="1159" d="M164 0v1055q0 55 33.5 85.5t95.5 30.5h385q164 0 254 -81.5t90 -237.5q0 -117 -92 -231l-88 -109l256 -512h-170l-230 463h-383v-463h-151zM315 594h416l66 82q73 92 73 174q0 192 -194 192h-361v-448zM434 -317l55 213h168l-69 -252q-16 -64 -86 -64q-39 0 -59.5 29 t-8.5 74z" />
<glyph horiz-adv-x="1159" d="M164 0v1055q0 55 33.5 85.5t95.5 30.5h385q164 0 254 -81.5t90 -237.5q0 -117 -92 -231l-88 -109l256 -512h-170l-230 463h-383v-463h-151zM205 1563h211l151 -174l152 174h211l-268 -263q-44 -38 -95 -38q-57 0 -92 38zM315 594h416l66 82q73 92 73 174q0 192 -194 192 h-361v-448z" />
<glyph horiz-adv-x="1124" d="M123 84l35 139l98 -30q218 -70 352 -70q98 0 167 48t69 142q0 135 -178 174l-232 50q-303 65 -303 313q0 67 21.5 122t58.5 93t86.5 64.5t105 38.5t115.5 12q97 0 180.5 -17t204.5 -53l98 -29l-36 -139l-99 33q-198 67 -344 67q-64 0 -115 -18.5t-85.5 -62.5t-34.5 -107 q0 -138 178 -176l231 -49q150 -32 226.5 -107t76.5 -205q0 -83 -32.5 -147.5t-87.5 -103.5t-123 -58.5t-144 -19.5q-178 0 -395 67zM424 1346q0 30 27 57l165 160h224l-287 -258q-30 -27 -59 -27q-31 0 -50.5 22t-19.5 46z" />
<glyph horiz-adv-x="1124" d="M123 84l35 139l98 -30q218 -70 352 -70q98 0 167 48t69 142q0 135 -178 174l-232 50q-303 65 -303 313q0 67 21.5 122t58.5 93t86.5 64.5t105 38.5t115.5 12q97 0 180.5 -17t204.5 -53l98 -29l-36 -139l-99 33q-198 67 -344 67q-64 0 -115 -18.5t-85.5 -62.5t-34.5 -107 q0 -138 178 -176l231 -49q150 -32 226.5 -107t76.5 -205q0 -83 -32.5 -147.5t-87.5 -103.5t-123 -58.5t-144 -19.5q-178 0 -395 67zM201 1266l268 262q45 39 94 39q56 0 92 -39l271 -262h-211l-152 174l-151 -174h-211z" />
<glyph horiz-adv-x="1124" d="M123 84l35 139l98 -30q218 -70 352 -70q98 0 167 48t69 142q0 135 -178 174l-232 50q-303 65 -303 313q0 67 21.5 122t58.5 93t86.5 64.5t105 38.5t115.5 12q97 0 180.5 -17t204.5 -53l98 -29l-36 -139l-99 33q-198 67 -344 67q-64 0 -115 -18.5t-85.5 -62.5t-34.5 -107 q0 -138 178 -176l231 -49q150 -32 226.5 -107t76.5 -205q0 -66 -21 -121t-57 -92.5t-85 -64t-103.5 -38.5t-114.5 -13l-45 -92q81 0 130 -35.5t49 -100.5q0 -80 -56.5 -121.5t-144.5 -41.5q-84 0 -178 41l26 88q83 -33 150 -33q41 0 68.5 16t27.5 47q0 24 -14 39t-38 20.5 t-57.5 7t-72.5 -0.5l-8 14l77 156q-147 11 -315 63z" />
<glyph horiz-adv-x="1124" d="M123 84l35 139l98 -30q218 -70 352 -70q98 0 167 48t69 142q0 135 -178 174l-232 50q-303 65 -303 313q0 67 21.5 122t58.5 93t86.5 64.5t105 38.5t115.5 12q97 0 180.5 -17t204.5 -53l98 -29l-36 -139l-99 33q-198 67 -344 67q-64 0 -115 -18.5t-85.5 -62.5t-34.5 -107 q0 -138 178 -176l231 -49q150 -32 226.5 -107t76.5 -205q0 -83 -32.5 -147.5t-87.5 -103.5t-123 -58.5t-144 -19.5q-178 0 -395 67zM426 -317l55 213h168l-69 -252q-16 -64 -86 -64q-39 0 -59.5 29t-8.5 74z" />
<glyph horiz-adv-x="1124" d="M123 84l35 139l98 -30q218 -70 352 -70q98 0 167 48t69 142q0 135 -178 174l-232 50q-303 65 -303 313q0 67 21.5 122t58.5 93t86.5 64.5t105 38.5t115.5 12q97 0 180.5 -17t204.5 -53l98 -29l-36 -139l-99 33q-198 67 -344 67q-64 0 -115 -18.5t-85.5 -62.5t-34.5 -107 q0 -138 178 -176l231 -49q150 -32 226.5 -107t76.5 -205q0 -83 -32.5 -147.5t-87.5 -103.5t-123 -58.5t-144 -19.5q-178 0 -395 67zM213 1563h211l151 -174l152 174h211l-268 -263q-44 -38 -95 -38q-57 0 -92 38z" />
<glyph horiz-adv-x="1087" d="M82 1036v135h924v-135h-383v-1036h-156v1036h-385zM399 -317l56 213h168l-70 -252q-16 -64 -86 -64q-39 0 -59.5 29t-8.5 74z" />
<glyph horiz-adv-x="1087" d="M82 1036v135h924v-135h-383v-1036h-156v1036h-385zM180 1563h211l152 -174l151 174h211l-268 -263q-44 -38 -94 -38q-57 0 -92 38z" />
<glyph horiz-adv-x="1087" d="M82 1036v135h924v-135h-383v-370h276v-136h-276v-530h-156v530h-272v136h272v370h-385z" />
<glyph horiz-adv-x="1259" d="M154 420v751h151v-751q0 -147 81.5 -226t242.5 -79q323 0 323 305v751h154v-751q0 -206 -125 -324.5t-352 -118.5t-351 118t-124 325zM342 1563h223l166 -160q27 -27 27 -57q0 -26 -19 -47t-51 -21q-29 0 -59 27z" />
<glyph horiz-adv-x="1259" d="M154 420v751h151v-751q0 -147 81.5 -226t242.5 -79q323 0 323 305v751h154v-751q0 -206 -125 -324.5t-352 -118.5t-351 118t-124 325zM526 1346q0 30 27 57l166 160h223l-287 -258q-30 -27 -59 -27q-31 0 -50.5 22t-19.5 46z" />
<glyph horiz-adv-x="1259" d="M154 420v751h151v-751q0 -147 81.5 -226t242.5 -79q323 0 323 305v751h154v-751q0 -206 -125 -324.5t-352 -118.5t-351 118t-124 325zM270 1266l269 262q45 39 94 39q56 0 92 -39l270 -262h-211l-151 174l-152 -174h-211z" />
<glyph horiz-adv-x="1259" d="M154 420v751h151v-751q0 -147 81.5 -226t242.5 -79q323 0 323 305v751h154v-751q0 -206 -125 -324.5t-352 -118.5t-351 118t-124 325zM334 1454q0 53 27.5 84t74.5 31t75 -31t28 -84t-28 -84t-75 -31t-74.5 31t-27.5 84zM721 1454q0 53 27.5 84t74.5 31t75 -31t28 -84 t-28 -84t-75 -31t-74.5 31t-27.5 84z" />
<glyph horiz-adv-x="1259" d="M154 420v751h151v-751q0 -147 81.5 -226t242.5 -79q323 0 323 305v751h154v-751q0 -206 -125 -324.5t-352 -118.5t-351 118t-124 325zM199 1350q38 111 111.5 164t150.5 53q87 0 149 -51l103 -74q44 -33 86 -33t77 29.5t66 109.5l115 -63q-37 -110 -110 -163.5 t-150 -53.5q-87 0 -152 51l-100 74q-43 32 -86 32q-92 0 -146 -139z" />
<glyph horiz-adv-x="1259" d="M154 420v751h151v-751q0 -147 81.5 -226t242.5 -79q323 0 323 305v751h154v-751q0 -206 -125 -324.5t-352 -118.5t-351 118t-124 325zM319 1350v145h623v-145h-623z" />
<glyph horiz-adv-x="1259" d="M154 420v751h151v-751q0 -147 81.5 -226t242.5 -79q323 0 323 305v751h154v-751q0 -206 -125 -324.5t-352 -118.5t-351 118t-124 325zM285 1563h143q0 -81 57 -126.5t150 -45.5t150 46t57 126h143q0 -136 -100.5 -221t-249.5 -85q-150 0 -250 85t-100 221z" />
<glyph horiz-adv-x="1259" d="M154 420v751h151v-751q0 -147 81.5 -226t242.5 -79q323 0 323 305v751h154v-751q0 -206 -125 -324.5t-352 -118.5t-351 118t-124 325zM408 1462q0 94 64 152.5t161 58.5t162 -58.5t65 -152.5q0 -92 -66 -152.5t-161 -60.5t-160 60t-65 153zM510 1462q0 -53 34 -87t89 -34 t90 34t35 87q0 51 -34.5 85t-90.5 34t-89.5 -34t-33.5 -85z" />
<glyph horiz-adv-x="1259" d="M154 420v751h151v-751q0 -147 81.5 -226t242.5 -79q323 0 323 305v751h154v-751q0 -206 -125 -324.5t-352 -118.5t-351 118t-124 325zM362 1335q0 28 27 58l166 170h221l-289 -269q-27 -24 -59 -24q-33 0 -49.5 19.5t-16.5 45.5zM715 1321q0 28 26 57l181 185h221 l-303 -285q-26 -23 -60 -23q-33 0 -49 19.5t-16 46.5z" />
<glyph horiz-adv-x="1259" d="M154 420v751h151v-751q0 -147 81.5 -226t242.5 -79q323 0 323 305v751h154v-751q0 -155 -73 -262.5t-208 -151.5q-92 -58 -92 -143q0 -90 123 -90q86 0 186 37l25 -103q-114 -47 -217 -47q-110 0 -178 44t-68 126q0 86 74 150q-24 -3 -49 -3q-227 0 -351 118t-124 325z " />
<glyph horiz-adv-x="1570" d="M72 1171h149l187 -964l276 895q21 69 104 69q82 0 103 -69l272 -901l189 970h147l-217 -1101q-7 -39 -36.5 -60.5t-74.5 -21.5q-90 0 -110 73l-275 924l-284 -924q-22 -71 -111 -71t-104 82zM430 1266l268 262q45 39 95 39q56 0 92 -39l270 -262h-211l-151 174l-152 -174 h-211z" />
<glyph horiz-adv-x="1570" d="M72 1171h149l187 -964l276 895q21 69 104 69q82 0 103 -69l272 -901l189 970h147l-217 -1101q-7 -39 -36.5 -60.5t-74.5 -21.5q-90 0 -110 73l-275 924l-284 -924q-22 -71 -111 -71t-104 82zM494 1454q0 53 27.5 84t74.5 31t74.5 -31t27.5 -84t-27.5 -84t-74.5 -31 t-74.5 31t-27.5 84zM881 1454q0 53 27.5 84t74.5 31t74.5 -31t27.5 -84t-27.5 -84t-74.5 -31t-74.5 31t-27.5 84z" />
<glyph horiz-adv-x="1570" d="M72 1171h149l187 -964l276 895q21 69 104 69q82 0 103 -69l272 -901l189 970h147l-217 -1101q-7 -39 -36.5 -60.5t-74.5 -21.5q-90 0 -110 73l-275 924l-284 -924q-22 -71 -111 -71t-104 82zM688 1346q0 30 27 57l166 160h223l-287 -258q-30 -27 -59 -27q-31 0 -50.5 22 t-19.5 46z" />
<glyph horiz-adv-x="1570" d="M72 1171h149l187 -964l276 895q21 69 104 69q82 0 103 -69l272 -901l189 970h147l-217 -1101q-7 -39 -36.5 -60.5t-74.5 -21.5q-90 0 -110 73l-275 924l-284 -924q-22 -71 -111 -71t-104 82zM545 1563h223l166 -160q27 -27 27 -57q0 -26 -19 -47t-51 -21q-30 0 -60 27z " />
<glyph horiz-adv-x="1159" d="M41 1171h182l363 -526l352 526h180l-456 -663v-508h-158v500zM494 1346q0 31 26 57l166 160h223l-286 -258q-30 -27 -60 -27q-31 0 -50 21.5t-19 46.5z" />
<glyph horiz-adv-x="1159" d="M41 1171h182l363 -526l352 526h180l-456 -663v-508h-158v500zM293 1454q0 53 27.5 84t74.5 31t75 -31t28 -84t-28 -84t-75 -31t-74.5 31t-27.5 84zM680 1454q0 53 27.5 84t74.5 31t75 -31t28 -84t-28 -84t-75 -31t-74.5 31t-27.5 84z" />
<glyph horiz-adv-x="1159" d="M41 1171h182l363 -526l352 526h180l-456 -663v-508h-158v500zM225 1266l269 262q45 39 94 39q56 0 92 -39l270 -262h-211l-151 174l-152 -174h-211z" />
<glyph horiz-adv-x="1159" d="M41 1171h182l363 -526l352 526h180l-456 -663v-508h-158v500zM293 1563h223l166 -160q27 -27 27 -57q0 -26 -19 -47t-51 -21q-29 0 -59 27z" />
<glyph horiz-adv-x="1140" d="M123 94q0 40 27 74l671 870h-684v133h774q48 0 73.5 -25t25.5 -67q0 -37 -29 -73l-668 -873h705v-133h-801q-46 0 -70 25t-24 69zM205 1563h211l151 -174l152 174h211l-268 -263q-44 -38 -95 -38q-57 0 -92 38z" />
<glyph horiz-adv-x="1140" d="M123 94q0 40 27 74l671 870h-684v133h774q48 0 73.5 -25t25.5 -67q0 -37 -29 -73l-668 -873h705v-133h-801q-46 0 -70 25t-24 69zM453 1346q0 31 26 57l166 160h223l-286 -258q-30 -27 -60 -27q-31 0 -50 21.5t-19 46.5z" />
<glyph horiz-adv-x="1140" d="M123 94q0 40 27 74l671 870h-684v133h774q48 0 73.5 -25t25.5 -67q0 -37 -29 -73l-668 -873h705v-133h-801q-46 0 -70 25t-24 69zM471 1454q0 53 27.5 84t74.5 31t75 -31t28 -84t-28 -84t-75 -31t-74.5 31t-27.5 84z" />
<glyph horiz-adv-x="1187" d="M164 0v827q0 165 109.5 263t328.5 98q178 0 291 -66.5t141 -152.5l-272 -328q156 -12 239.5 -92t83.5 -211q0 -158 -100 -254t-295 -96q-92 0 -207 35l-49 14l33 139l49 -16q98 -31 180 -31q116 0 175 56.5t59 152.5q0 90 -63 137t-181 47h-27q-77 0 -77 78q0 35 22 59 l254 299q-29 35 -97.5 65t-158.5 30q-80 0 -137 -19t-88 -52.5t-44.5 -73.5t-13.5 -89v-819h-155z" />
<glyph horiz-adv-x="1044" d="M137 379v412q0 185 102 289t289 104q189 0 285 -104t96 -294v-403q0 -191 -96 -295t-285 -104q-187 0 -289 104.5t-102 290.5zM287 383q0 -104 37 -168l305 817q-49 17 -103 17q-239 0 -239 -265v-401zM432 129q40 -12 94 -12q236 0 236 266v401q0 90 -33 158z" />
<glyph horiz-adv-x="1044" d="M137 379v412q0 185 102 289t289 104q189 0 285 -104t96 -294v-403q0 -191 -96 -295t-285 -104q-187 0 -289 104.5t-102 290.5zM287 383q0 -266 239 -266q236 0 236 266v401q0 265 -236 265q-239 0 -239 -265v-401z" />
<glyph horiz-adv-x="1044" d="M139 0v137h359v895h-62q-120 0 -192 -33l-41 134q38 19 104 28.5t123 9.5h96q63 0 98 -30.5t35 -87.5v-916h291v-137h-811z" />
<glyph horiz-adv-x="1044" d="M127 92q0 47 43 84l416 377q96 86 137 152t41 147q0 99 -62.5 143.5t-166.5 44.5q-115 0 -287 -49l-86 -26l-33 137l86 24q195 56 324 56q76 0 141 -18t118.5 -56t84 -104t30.5 -154q0 -200 -217 -391l-370 -326h592v-133h-699q-43 0 -67.5 24.5t-24.5 67.5z" />
<glyph horiz-adv-x="1044" d="M106 68l33 137l92 -25q211 -55 312 -55q121 0 183 47t62 129q0 76 -67 143l-80 78h-238v133h242l57 78q52 68 52 150q0 73 -52.5 116t-164.5 43q-47 0 -132 -15.5t-155 -35.5l-84 -24l-35 137l86 24q187 54 322 54q179 0 272.5 -78t93.5 -219q0 -112 -74 -207l-63 -80 l84 -82q88 -85 88 -209q0 -146 -108 -232.5t-287 -86.5q-124 0 -350 57z" />
<glyph horiz-adv-x="1044" d="M88 305q0 35 29 76l514 741q41 58 110 58q99 0 99 -97v-735h143v-133h-143v-215h-150v215h-510q-92 0 -92 90zM276 348h414v604z" />
<glyph horiz-adv-x="1044" d="M123 63l33 138l86 -25q167 -49 278 -49q132 0 199 68.5t67 183.5q0 123 -69.5 183.5t-198.5 60.5q-97 0 -205 -31l-133 -37v616h701v-143h-559v-297q130 29 210 29q191 0 297.5 -94.5t106.5 -286.5q0 -178 -111.5 -284.5t-302.5 -106.5q-139 0 -315 51z" />
<glyph horiz-adv-x="1044" d="M131 387v414q0 169 102.5 274t282.5 105q122 0 318 -52l84 -22l-33 -137l-84 24q-162 49 -283 49q-118 0 -176.5 -63.5t-58.5 -177.5v-82q152 41 245 41q202 0 306 -98.5t104 -282.5q0 -173 -104 -281t-295 -108q-188 0 -298 109t-110 288zM283 393q0 -125 67.5 -196.5 t190.5 -71.5q119 0 181 68.5t62 185.5q0 242 -266 242q-79 0 -235 -37v-191z" />
<glyph horiz-adv-x="1044" d="M135 1036v135h715q96 0 96 -86q0 -27 -20 -73l-443 -1012h-164l457 1036h-641z" />
<glyph horiz-adv-x="1044" d="M102 299q0 119 88 213l78 82l-61 82q-72 95 -72 203q0 141 102.5 223t282.5 82q182 0 284.5 -81.5t102.5 -223.5q0 -110 -65 -197l-68 -90l80 -78q88 -88 88 -215q0 -146 -111.5 -230.5t-304.5 -84.5q-194 0 -309 84.5t-115 230.5zM252 299q0 -83 71 -130.5t201 -47.5 q131 0 199 47t68 131q0 72 -66 141l-76 80h-252l-80 -80q-65 -65 -65 -141zM287 879q0 -79 51 -146l59 -80h250l60 80q49 64 49 146q0 74 -59 119.5t-175 45.5q-118 0 -176.5 -45t-58.5 -120z" />
<glyph horiz-adv-x="1044" d="M109 793q0 171 104 279t295 108q190 0 298.5 -108.5t108.5 -287.5v-413q0 -169 -102 -275t-281 -106q-117 0 -317 53l-86 23l33 137l86 -23q193 -51 280 -51q118 0 177 64t59 178v82q-149 -41 -244 -41q-204 0 -307.5 98t-103.5 283zM262 793q0 -242 268 -242 q79 0 234 39v188q0 124 -67.5 196.5t-190.5 72.5q-118 0 -181 -69t-63 -185z" />
<glyph horiz-adv-x="1181" d="M123 584q0 267 128.5 416.5t342.5 173.5v186h145v-186q104 -8 250 -54l101 -30l-31 -140l-107 33q-174 53 -280 53q-185 0 -287 -111.5t-102 -340.5q0 -231 103 -343t288 -112q93 0 278 53l107 31l31 -139l-101 -29q-139 -42 -250 -53v-189h-145v189q-217 21 -344 168.5 t-127 423.5z" />
<glyph horiz-adv-x="1044" d="M106 84l35 141l95 -32q200 -68 329 -68q92 0 160 47t68 141q0 135 -170 174l-222 50q-284 63 -284 311q0 75 29 137t78 101.5t108.5 62t124.5 27.5v184h145v-189q108 -10 252 -61l90 -31l-37 -139l-96 35q-176 63 -319 63q-95 0 -160.5 -46t-65.5 -140q0 -68 39 -109.5 t129 -62.5l219 -51q141 -34 215 -108.5t74 -203.5q0 -74 -29 -134.5t-78.5 -99.5t-108.5 -62.5t-124 -30.5v-187h-145v189q-86 7 -258 63z" />
<glyph horiz-adv-x="1044" d="M78 412v131h123v86h-123v133h123q4 206 119.5 315t304.5 109q110 0 249 -41l84 -25l-26 -139l-88 25q-124 36 -217 36q-258 0 -267 -280h400v-133h-402v-86h402v-131h-400q9 -281 267 -281q85 0 217 37l88 25l26 -140l-84 -24q-141 -41 -249 -41q-187 0 -302.5 110 t-121.5 314h-123z" />
<glyph horiz-adv-x="817" d="M88 1028q0 57 22 99t61 66t86.5 35t104.5 11h181v57q0 123 -137 123q-87 0 -203 -35l-68 -20l-24 111l67 20q124 37 230 37q114 0 185 -57.5t71 -178.5v-325l86 -49l-54 -97l-73 43q-35 19 -74 9l-45 -13q-100 -28 -185 -28q-109 0 -170 50.5t-61 141.5zM211 1034 q0 -88 121 -88q62 0 151 21l60 14v152h-183q-149 0 -149 -99z" />
<glyph horiz-adv-x="815" d="M119 969v805l121 24v-297q95 29 172 29q151 0 228 -89.5t77 -258.5q0 -158 -83.5 -250t-230.5 -92q-94 0 -202 28q-37 8 -59.5 35t-22.5 66zM240 975q115 -25 159 -25q100 0 147.5 63.5t47.5 170.5q0 231 -191 231q-56 0 -163 -29v-411z" />
<glyph horiz-adv-x="729" d="M88 1184q0 167 83.5 257.5t223.5 90.5q74 0 189 -31l71 -20l-26 -115l-72 20q-112 31 -158 31q-184 0 -184 -233q0 -234 186 -234q44 0 156 31l72 20l26 -114l-71 -19q-132 -32 -189 -32q-143 0 -225 86.5t-82 261.5z" />
<glyph horiz-adv-x="815" d="M88 1182q0 166 80 257t229 91q61 0 168 -31v277l121 22v-829q0 -41 -22 -67t-62 -34q-122 -28 -205 -28q-149 0 -229 89.5t-80 252.5zM211 1184q0 -107 47.5 -170.5t147.5 -63.5q55 0 159 25v411q-116 29 -164 29q-98 0 -144 -62t-46 -169z" />
<glyph horiz-adv-x="800" d="M88 1184q0 174 88 262t223 88q143 0 226.5 -85t83.5 -249q0 -33 -17.5 -51.5t-50.5 -18.5h-426q9 -87 65.5 -133.5t139.5 -46.5q73 0 176 33l82 27l27 -109l-80 -24q-128 -41 -207 -41q-151 0 -240.5 89t-89.5 259zM215 1239h367q-5 84 -50.5 136t-134.5 52 q-79 0 -127.5 -49.5t-54.5 -138.5z" />
<glyph horiz-adv-x="538" d="M51 1401v110h105v56q0 108 55 164.5t154 56.5q40 0 155 -23l-18 -112q-95 22 -137 22q-46 0 -66 -27t-20 -87v-50h206v-110h-206v-557h-123v557h-105z" />
<glyph horiz-adv-x="817" d="M88 1303q0 108 77.5 163.5t211.5 55.5h69q92 0 121 10l158 41l29 -105l-131 -34q49 -43 49 -129q0 -108 -76.5 -163t-214.5 -55h-45q2 -10 2 -24q0 -33 -14 -55h194q107 0 163 -45.5t56 -122.5q0 -213 -352 -213q-79 0 -141 16.5t-105 60t-43 109.5q0 77 49 135l62 74 q20 26 20 47q0 17 -14.5 33t-34.5 32.5t-40.5 37t-35 54.5t-14.5 77zM209 1303q0 -119 170 -119q78 0 124 29t46 90q0 118 -170 118t-170 -118zM215 815q0 -84 180 -84q115 0 168 26.5t53 80.5q0 61 -100 61h-270q-31 -31 -31 -84z" />
<glyph horiz-adv-x="782" d="M117 844v930l123 24v-299q113 31 172 31q132 0 193 -69.5t61 -180.5v-436h-123v432q0 139 -142 139q-57 0 -161 -29v-542h-123z" />
<glyph horiz-adv-x="376" d="M109 1708q0 37 20.5 59.5t56.5 22.5t57 -22.5t21 -59.5q0 -39 -21 -61.5t-57 -22.5t-56.5 22.5t-20.5 61.5zM125 844v680h125v-680h-125z" />
<glyph horiz-adv-x="385" d="M25 627v110q59 1 82.5 29t23.5 88v670h127v-674q0 -108 -61.5 -165.5t-171.5 -57.5zM117 1708q0 37 21.5 59.5t56.5 22.5q36 0 55.5 -22t19.5 -60q0 -39 -19.5 -61.5t-55.5 -22.5q-35 0 -56.5 23t-21.5 61z" />
<glyph horiz-adv-x="759" d="M119 844v930l121 24v-602l303 328h164l-234 -244l238 -436h-146l-188 346l-58 -57q-42 -42 -60.5 -74.5t-18.5 -87.5v-127h-121z" />
<glyph horiz-adv-x="358" d="M115 844v930l125 24v-954h-125z" />
<glyph horiz-adv-x="1144" d="M121 844v555q0 75 80 102q101 29 186 29q112 0 166 -51q118 51 219 51q121 0 179.5 -63.5t58.5 -174.5v-448h-123v440q0 64 -29 97.5t-96 33.5t-148 -31q15 -51 15 -92v-448h-123v440q0 133 -125 133q-56 0 -137 -22v-551h-123z" />
<glyph horiz-adv-x="831" d="M88 1184q0 165 87.5 256.5t236.5 91.5q150 0 235.5 -91t85.5 -257q0 -165 -87.5 -256.5t-237.5 -91.5q-149 0 -234.5 92.5t-85.5 255.5zM215 1184q0 -115 51.5 -176.5t145.5 -61.5q95 0 145.5 61t50.5 177q0 114 -52.5 177.5t-147.5 63.5q-93 0 -143 -63t-50 -178z" />
<glyph horiz-adv-x="815" d="M119 616v783q0 83 82 102q124 29 205 29q150 0 230.5 -89.5t80.5 -254.5t-80.5 -255.5t-230.5 -90.5q-65 0 -166 30v-229zM240 981q102 -26 163 -29q191 0 191 234q0 106 -47 168.5t-148 62.5q-67 0 -159 -22v-414z" />
<glyph horiz-adv-x="815" d="M88 1186q0 158 83 251t230 93q82 0 201 -29q84 -19 84 -102v-758l-121 -25v252q-92 -28 -174 -28q-151 0 -227 89t-76 257zM211 1186q0 -109 46 -171.5t144 -62.5q73 4 164 29v414q-101 22 -159 22q-101 0 -148 -62.5t-47 -168.5z" />
<glyph horiz-adv-x="520" d="M117 844v555q0 79 84 102q62 18 119 23.5t157 5.5v-117q-150 0 -237 -20v-549h-123z" />
<glyph horiz-adv-x="755" d="M98 893l19 113l71 -21q133 -37 213 -37q50 0 84.5 22.5t34.5 65.5q0 31 -26 51.5t-72 28.5l-131 23q-89 15 -138 63.5t-49 124.5q0 99 70 152t172 53q125 0 240 -37l65 -20l-26 -113l-70 20q-133 37 -211 37q-51 0 -84 -22.5t-33 -65.5q0 -29 24.5 -51t74.5 -31l127 -22 q91 -15 140.5 -63t49.5 -124q0 -98 -71 -151t-173 -53q-108 0 -237 38z" />
</font>
</defs>
</svg>
